<mxfile host="65bd71144e">
    <diagram id="F9tkXI4G-0Dlc9-eRW9X" name="第 1 页">
        <mxGraphModel dx="1106" dy="644" grid="1" gridSize="10" guides="1" tooltips="1" connect="1" arrows="1" fold="1" page="1" pageScale="1" pageWidth="827" pageHeight="1169" math="0" shadow="0">
            <root>
                <mxCell id="0"/>
                <mxCell id="1" parent="0"/>
                <mxCell id="3" style="edgeStyle=none;html=1;exitX=1;exitY=0.5;exitDx=0;exitDy=0;entryX=-0.005;entryY=0.495;entryDx=0;entryDy=0;entryPerimeter=0;" parent="1" source="2" edge="1" target="6">
                    <mxGeometry relative="1" as="geometry">
                        <mxPoint x="120" y="314" as="targetPoint"/>
                    </mxGeometry>
                </mxCell>
                <mxCell id="2" value="引用计数" style="text;strokeColor=none;align=center;fillColor=none;html=1;verticalAlign=middle;whiteSpace=wrap;rounded=0;" parent="1" vertex="1">
                    <mxGeometry y="298.5" width="60" height="30" as="geometry"/>
                </mxCell>
                <mxCell id="6" value="" style="shape=image;verticalLabelPosition=bottom;labelBackgroundColor=default;verticalAlign=top;aspect=fixed;imageAspect=0;image=data:image/png,iVBORw0KGgoAAAANSUhEUgAAAXQAAACCCAYAAABW3zPjAAAAAXNSR0IArs4c6QAAAARnQU1BAACxjwv8YQUAAAAJcEhZcwAADsMAAA7DAcdvqGQAAKjaSURBVHhe7P3nlyRJet6JDsQC5CGHwEKM7u6qyszQykPriNRaa6211pVZWVprraurdU+P1oMBBgBJLEEsueQB+W3P3r33X3nu85qHZ0ZmZYlWM4NmfHiOK3NzE6/97DVzC48vWV0eKDndsDh0yb6N52wuTcnu8sLu9sLh8VHcp/T9Z4+dGreUbO1uuV+P2+xwwWR3Kpm3ty6K1+wShs/hM+xuP+PRJft2t8Tjh43HFu6LzCI+S2TNXBc5XT64XX64ue/heTfjczH9Tj7f6XTpcjjhcDC99hAV4XGU52O8Nw6nm8eeMPMbZDnweZSN+04Pz2sRPiOsjs32ACy8X7ZWZ0Cde66cO/sSr43h7Txnd4XUsb6fJTfTxec4eN2Zue5w8hxlp2wuPk/KgXkVmZW8sDj9Ki1WB9MmabeLGMYh0o/lmgqTCafSzvjVfraMMFnhdh3vDZc5lmeY1XNly+fKflZYSYc6r8o2c4+6xnp0Sh5EGs9RsqXkvI3X5ZrYiBxbJa/qXv1Zu6TiNq4bypxjGqTcpXylnOVY0rMjPQ69fuWaSO6VMgrznCGpe5HYgp6n/aWXR7aMtO2VLaecPgN9SW9MuvTGv3NsIxxFdmkIAhYCZpfchgifjNSxR5eCD+834jbbvTDZtF0y27w8L8/jcxjenrlftup+ntfjYSPjvoXPVeKzRDZKQZAN1UW5dylACdQ9OyIUXIzH6WB6BeaUi0B3OeO8zi2h7nAS3GzEItl3eqJME4Hu4nlC1cKGLNIbqKRRB/aLJLB2Mty2mL5d26zzLifTxfAOt5v5YufD8w6eszmTjEtgRLC5Pcw/oWdIoM6yljIys7xN7LQMmTNQ3w8kn6X2g2o28FWYfdMhwCRgM7JklH1ut/bphJ4jlRYFU70MpK7EXgygG2nVlWkDmfC6xD5Ztuz8LbYU7VUU47kIJVCX8qVzsld22rbqEMROdmR0ZDnl9HnoS/ud3BYNXjUA5SHSa3wFZXtABsy2G86uhmJIQKA/S3mtAueMJyxpyG5wZh6bmR4LoWYleEU2yu6iB025KLdSNLMNZoCucavLRY/WRdDvAroBdQV0wpv5sPG6SPadPGeXZ3HfKkAnUHSo6+mzZkHieZJO79kOZ395CG838+hgWgXsTu6LbKpcOXoh6K0ejqY8hDpllS1HIzJyMTG/JnZaBfRyTQ4PJVsCSdKZXbefgwyYq2MB+StLyjX6imK9sw72j+dZKdsRu7NlAZ1lnG2b23nIODLqHlVm7ChZhmZuFZxthLgtyviiPDYkQLdlZM3IzvO8T0E8vEs5oOf0eerFQKfES7UTbK8q8WANMO9tNNJQ9g5B9wO6yGiMu+HvJ5wE6oQqAafATu0FusctHjchyPsdbJBOh0y5GN45gc64daBnply2gc7tPkB38Jx4xoaHqA/BJa8Z7zuT5hdp/xHEs3IxTg+f5Sa4HJI+pkvy5JSRkkxJEd4OjwtWzQWzRqhTAnSzhyDn9QJ2WgUcieQ73Swr0W8P6Eb9v1RS3oS1yMo8GzLOPasd23qhWJYqXWJHAnSmT46zw0hnrOxTaWd0KiA32V0cRbqe2ZfRonRCBtAtTpuS2W5hOJHss5OVTiAH9Jx+g3oloIv0Ye6O9PM69AzpQDcaizQ6XUajkYa1W3JOl1zP7ghUeAV8HeYmG4HFbQEbiYnPVlBXnpoAXTxYAp0QFJB7CGa7jXFa2fhsbtjZGB0CdYG700sZUy47QPe44nBLR/AKQFdSUNkN7RfpZUCXazLlYmM+PTKCIBDsNjvT5IHmCTJdMT4vkfHSNeWh7wY6wZ0F9AJ2YAJz5V0qoBNUmTr9tNqus73nPiHQ9VGPMTfNurXxmPvijdtYlzrEBfAG5HUb2U8yEpLy1qfrjLTpQBeHQPb3u0+XPsVo48hIAH7IZEWe2c57PNw6kG9xcl+DU/PCIWXvtDKcmem08lnile8A3aTeDYlXr8+3y9x7Dug5fd56KdAVWOmxyLysegGX2TcabjbQRQJ1BxunLt3LlCkbBfXt+NiwxMvJkjSoZ4AuDTEb6GyU2UAXCQwMoCtloC5TFi5p3GyANjZOgbqdUFcvRBmvk3E4mUaXgnoEPm8KgUAabk98B+iEi8rPPkAXr1LSKwDZq2yQG3oe0OWcS+VdAOSFzeqAy2ajvgWf508R8n8Ffn8BIUI4eJJUjABn+WmEOKGilAF6AeGf76JXrl5CywtuD9NK+Ntl6oBxM992AZqCO+tQ6iFL6mXjc6Tfp4czEXoi2Xdk6tREFfC6mTLqWbTTwe8vvZ55v+qsXci3aci3smOS9ysqjUFKpmSkzEUCed1GdpyGTFwsQ0+AI5qATMcxj/LyOGOrO0CXdGWnQWzPALku5aET0AU2C+XkMcuUjoHJJtdYnxwhObwH4fJ9HR7fQdqPCQ6rCWaqgEDPt1t5n4RnvgToqoPKAT2nz18vBbregMXzIywIDNnKsTQUua7AbSe4M3LaKCu9XksULkuMxzGeJ/wEgoSoxKc6BAGCNCb3PlMW0kgzHYDh9elQ3+OhE7Iyhy7ANYCuPGo+q66+AzW1LfD6+Gx6q3Y2ShshJ4B3EBROgkQHegheQry0tIH3dCEcKYaVDdEijZey81kOxrsDdEkXQcDn6ytRdOlg1s+ZPSEUUCbKmslTdthsCcxdAhGBj9tFz7wA8cA30Fb3dYwP5mF6QkNDkwZX0Is8LU7FUEC4FxDoBZoLeW4n8gmYfHrsebxfZHG69E7MJvF5mF92agS6k2XoZMfoIOCt4rXzudJJW9ysa0pWzVgzQFOSfcpOeVhvKp1UPjsUMyXw87CO5MV0Hu8/xHtMdi87EIbL2M/LgK7kIYhDIQRTIXgiLDvWVygVR7KsDK5AFGbGrdLJ51lYZmI3Fjf3aTu65JjA5silsLIK6Yoy2HzyboEdG+1VRig60GUKhGElbcyPDnN5+S9ih0ep1TYsL2/IiXRpDLFUWnnjkWQK0WQZ3N40r7PT9X8LtY0FmJhIYbg/jaoiG8v3IJ9Dr91GsLMjKKD9SCdgFntS8+mZZ+eU0+ek5wJdwKu8G7VlQ+C+LI+TrZpXJ6Sd9ig8tgQ81qQuSxJucxwuM70kUxwecwJuS4LeZgwuhhX4K8+NDfMZkHsIYlkyyH2joeve216gs5FI48gAXV6M2mUVCqEuc+miVGENzp2/iZW1Y4jGiwhz8VJdlEDdS0j7CH56lwJldgDxeDlW107iyrUHqK5pI8iZV3qJFsrOsnBIx0GQqLRnykdf9WNAmd4249IkPqb/dV8I3/CH8Bq3AnYBnoQVuBurc3TJFIEfXkLE4SZQ3G52MN/CcPsf4t27Bfjg8RiePljFwkI/fNEkDmlJHCDUD3qDBLsHh9wOvO6w4g23neddOECYH6LEo3QJzM0Ej8UFDwHuZp7dLEM3ge6k9yvlIFA0U1aN5U3pYNQ9VnsG7gJbJ89FCCMf60GuFaglqgFoTL9MD1n9Ybyu+fEtmfIRIPI5UmdSTi/10EUeL4rrSjB3ZBBdY52Mz43h+X4sH19DgnA2cQQizkQ+489nWqTz0jsxnlOSY3rUHisOn9nE4tElOCMOmDQz8p30mB0CVzoirFeR2JK+mot24dKX1u5IRjNulNVGcfj4NMamx+nxu7jtwdxKPwpLy1lPXvhCdszOl+LBg3p88G4JHt2IoyT2VWgWO9zWfDoEVuTR5sSzV/Pp7CRk5ctnOfWVU0579UKgC7xl3ybzmXKe52QrHrfTRg/cRmgT5Jo1BZ81Da85DY3ymnhsSsNvKoLfUgQvr2s2At+RUNMbIv0FJL13md5gozfArho5wbnd4DMQNYCeT49HvHQ13SIrTwhzO71Wh0fmmCWuEFJFtQrOG0fPIJ4q5Tnx0FwUgS7TGsyXnXkx1nhHosUYn1zC5tZZlJU3KKALzGWrgG6suskCug6qnQ7JgLvyVrUQDlKyFW9dzoks3JfjHUm+/fAJVPgM8T5dttdxYvYP8V9+HsLGTDUaKuOIRQhSjXknNA94A4xbPGYP/HYnwxPmHgde05x4nd56nkvW2TvhY36DhHmIIIvQa44yL37CXLNqrCsPNAE8y0Hm571Mp5eg9FEay8XD8y7e42MYP4EdokroZcat0iEQTAShrMDReJ+d978RDOMvgkH8ecDPNHAkYZXpBvF0me4XAF1gLktQTUxzbVclbr17FKtn5uGIurF1ZRE337qO0qZamHwEtpcjEHrKeQR4nmZj52bJbDP7XhPD5OPEtWM4fG4FjhhBrh3CQXrNB+kx51ltyLfKckKBqw5um4v2wE5UbV3sCCmBuoVl29pTiHc+uopzl89Ao7d+9soS7r65hrqWGtpakJ66F6nEQVSU/AGOrf0J/vu/r0Jn7b9DwHYIXos+zZXHkZLMxctvLYzfeOSAntPnqecDXaY6KI8njmiwHD5PIRs6gUyQu+lxB9xFiPkr4XcU0StJsdGXIh2oQ1mkFZWxDlRFOlDib0bUXomAuRh+KuqsQMpfi6irHHFvJdKxOpQWNaGouB4eX3wb5AqQhscuni3PCxwE6HmEisDcHy1BUUUTyuhRl1a3cjhcCbcvQYCEkaSHfuHKXRw9cQF1TR2orG1EeU09IolChpEXawQWgRqNFaOopAaV1c1oaOxCdW0rfP6EgrmFz7Ix/2oNuAA5G0JMj5lb8b4L/BwdJDkKKCyFNV2iZE8Vw5MuhSuSIoj5vFcAuoUjDJNMG1lfx/nFP8Q//iiK9rpCOMxOjoYcTION5WFGIOxFPBBCGzuzYW8SA+EilMY4EiLo7E4CnooQIJWMvz1ciBbmsYnbZnaeceYraHGjhGVYy3ptDqTRGStDPb3+Bh63BwrR6E8hxTwHCf0ykxe1vNYSLcVYpAKD4TLU+pPwE/zygy9nIEzvOYCvhEL4VnU5nD0dsBYVE6LyGwPdS88G+nanzXOqTqUcKRNHGtWdJbj21gpWTk/BnfRg8/IUrr55CcmaMtjCPoTLCuGKy8jExjI3E9h25PvzOCp5g/s23uNAQeAgjl/bxMaFJUQqvEhUhVBSl0KsLMpRAAFvy4cW1BBLx+ENsUP3OOFkJ2Fjh+L2+2gfdFACklYNTZ0xPHnvNE6eP04P3YLTl2Zx4+E8qhpLmW4ZpQbYDt5gJ/kHmOz+Pfxfv4pjtP3fsj18i05OnHmMMF8ywmXdsoOwbisH9Jw+P+0LdJnnM9MTtlmDKEk0YmH4GNpKR1DkbkTYVIaQuRRtFSMY715FUaReAb0y2YbZwSNYnzqLtfEzOD53FQv9x1AZ6kDEVIFwfjkqtHYstJ/ASPUyJlsPY2XkFNbnzmB6cgMhQsN4WSW/ynT7YvSCZCpF944lTcpDJ4ziRTWYmDuMrZOXcfT0VZw8dxOTs4dRXN4El5ZQHvr5y3cJ9TvYOnEWJ89eoi5ibmkNJRV1jJNeZySN/oFJbB45g6PHL+ASwx49dh7pwip6V2x0hLnyzjNA12HEDoadjMA8n16rTK0cTBaiZHIKZeurSK8tKyWW5lG/uYF0bz/shLoxj27dA3QLgS5TF15p6B4XLJoZXtef4uLS7+MffpJGBWGWz9GIzeEi9M2IOfOx0liPy43tuF/fi7ebR/F+1zTe7p3FKDu4EnqfScK8yRfFRl0HrnSOYatzGCe6xnC1dgAN3gSSZg87giLc75jGuz2L1ALu1g/jZlUfHjaN407LOLp9hSgya5gwx3CqpheXh+bxuHcBb/Ut4VL7OJrjhLfAip65zRfG6/E4iuamMXbrOupHx/U5b5bhbu98p5MWmMt1eYEqUDdxZFFUH8O5+7OYPToCLe3F+vlxXHxwDqFSjgBTUSwcO4zmwQ566ybC3Yfu6WaEyqwcnfwZWkcq0DPdBGv4DQJ9HadvHsXIch/mtyZw7OKaUnlDkp3Ht1BaE8PSxhRqm8tZlxY4NAfTYEd1Qz3mV1h/JWWsKy8q6r24fm8DKxvLHAEWYOv0PC7fZJ2WpmiH9OJltGK1IGD/Q8z2/z7++W9L0Vn9rxFwHuJIVJwGdmCadGIsh8z8vHQUxig3p5w+D+3vobORydZhiaA02ozLhx9ho+8Catw9SB6qQ6G9AYfHz2Nl/BSKIw1qqqWjagyHJ85jqnMDPdXT2Jq8hHsnP8B40xohU4vQIXqCvj7cXnwf9zY/xKXVh1geOomhzgW0NY/A66M3a2fDp/ft8sbgDabgCya5Ly89BQIcmrOTcdODnF0+ihv33sb60fMYnV7FkROXcOPOW5icOUwPtoQeei0uX3+Iuw/fxcrh4xiZmMPS2iZuP3iC2cV1+EMJeP0x1Dd0YXRsAUMjM7h24wFu3HyEisomBXHxwGRKRr28JIRc7GQ8/jhc7Ghk7ruAOugNwUSvv258Ch1Lq2hdWEbz/BJqpmfRzuPSrj44wimG399DF6A7xUMnsO3at2D3fxnp+O/j3taX8H/+Mo2SmgTyxRP2uBH22FHssOH+8AT+ZuUo7o3M4khTNy53jOA/LJ3B2YEJ5p0A8bpRlk5jvqcfi609GK9rxVmG+ffTJ7Fa340SluFyrAZ/tXUVb4+u4i47hB+tnMU9bu+2T+BXMyewHK9GIzvzxyXd+OHYJi52T2CrqhOXG4bw7sQGtpoH2bmH2cnoL0sLQlGUjo5g5spldI9NwcWyUS9GaUc7UJdy5AhERiyqLvVlqMpLd7sQLNSweWEUnWNN8MQ1jK92YfXUCtxxlnsihtM3LmD99BoChW70TrbhzjvnMThfS4j/JdbPjGHt9Ayc0TyG28Tdd67hyIVV9E+3Y3Z9GPfeuYy143NwBcyIF/tx4cZxLB+ZhC9qY7mb6YF7sLq1gRPn2IHEk0y3hmSJEycvLKBveIDQt2FmaQrHz5xAMMoRnLx/YMfpItCDtj/GVNcf43/+fRSTPf8GJUmOorQqjpiKeZ90YDJlR+eA9ajgngN6Tp+jnuOh03Oy+uE0RxG2lWOp5xSuzT9FR3ASRQeb0JWewvnVe+hrmkHEUw6fqRBpVz0qfO2oDnahIdKPibrDePvcj3Fk5BKKtUaE8svoIQ7grbUf4+7GB+iumkLEXqZemjqsbOQ2Nn6RI0h4xhTM/eEkIRolBHQvXVYJFFc04c7D97C2dQ6FZQ0K8IVljfTAb+DC5QcorWylh17H/Xu4dPUB0sUy5xlmQ0zjxJlLhPxb9NLrIZ8usDI+l/ykn4BZ2ziJy1fvobKqWQe6eOiEjXrpKTAnyH2hlIK6AD2fOkAP7EAggvwooR1Lwx4vhJX7JnYYBcGYmkc/xAZsYliBuUi8dEMSj6y6cReY6cV/GUU1/xrzs1/Gv3//y/j1hy7myw0TPUiXz4Wo5kY5IfJkaBYfjS6iLpGC5vGgkp3Kj3vmcXNhDY5UGAf8Tmh+D9L+AGqZhq5UCY5UtuD/nDmFc/0cSTBPK4lqfHfzPGaKazGaKMcHLMulymbMxCvwN9PHcKq4CcP+NP52cB0/HVrFYqwK/fTahz1p3OJo4O7UYTU1E7N6oZndyLM44YpzRNHeheKSKrgyIxyxpWygS8csUFceOkdbOtBZPjLX7DahrCmGWBk78CDTXx1DSX05rH56ttTU6jQu3jmN0vooNs8u4ul3buL09VkU1tpw7NI8xhcH4AwX4NzN47h8/ywqmopZR6/DHjiEoxfmcPX+eWgR2rXHhqHpLlx/eByVfJ7dn8eOswgXbl5F/9gYAc9005v2hKxo6apBNMW6pQdfUVuHxtZejhzjtEMNFvmNgMWMkO1P0VX5R/jHn72B9+7nY2u9CmWFQ/BqNbSbKEX7kY5bgV1+a8E2xvzvbXM55fRZ6PlApycnq1X8BcVojg3h2txbmK08hhpLD7b6r+D8yj3UFncj6C4m9MsI8m6M169jY/gCtkZ4fewB3j/9cxwfvY7SQAtCplIF9HdXf0Fv/yKSnhp4TEk4TFFYzWzw7EBsfKZMcwhENV8U3kCUDUhevIm3J3OyPtTRK3345rfRPzxH4BfTg48TtglMza7jJr30lvZBDpvrcfbCbZw+dwPJoirlFXoDCSwsH8Hjt77NOLoIPZnnlKkcfQXN+uZpeukPUVXTsg10tW6b++KhyxSQ8tDZSM30tg+ykX7TH8LXY3FoPd0IzUwiMEtNTyA6MY706Cj8Dc3IYx7yGFaWMBpz6dsi6GRdvIdAz7P8G7QOfBWPHuXh//2PefjRPROK03ZYvLJEzkGgO1BrdeDpwBQe0eNOBJguzYNiiwu/rB/BO4R8cTiMqMOORrcXa2W1uNraj0tDE7jVP4n/a/Eszg5NooTXVgjx766fxGS8FKORQny4cQqLpbWYDBXiF1MbOF/ejDle++vpLfxyZgu320ZxtWMM59tGcGNyFSdmV1ASScJrc3MU58JBkw1fPWjCAbtHdcAOgZbYkNiTwIuSvBpz6GJjaspFwM96NTs8yLfbkO/Mh5UjDKvXy307z1nY6dnY2dnQPdqOB+9eRddIFW48PI9rD0/j8r0VDM5W4vztTdS118DmK8DZ6ydw5Mw6rD4zDthexwHr17FyogdXHpyCJxbBQZsL8fIALtxZxuRKB8/lY3iO5XT7GpJl5XwevWjC1+bW59dlHb+s6Xf7JA8anQOpN3E8PNCsdkTtf4H6xB/gp2/9Cf7p16X49rtzaKgZYmdbSpDH4Ka9uLl1eeiYyIos2rZRJnvbXU45fVo9F+hWexAees+B/GKkTHU43nMdFwYfYrqMDXz1PSwOnEAqXAu/uxDF/iZsDFzApflHmOndRENZH9oLx3B16QmOjl5FeahVrXip9/TjvcVfYqXrNCJauRoB2C1h2Dm8t1npwdBjNuat1ce+lFejz0Hq64N9qKxtxaOnH2JiZhXBSDHcBLqTjWbl8Alcu/kY1fUdiCYrcObCTZy7dAvxdKWCicefwNLaMdx79C4qCG0BtDSqPHqYBVYNa5uncOP2422gyzy68tIlPSot9BwJdgGSWplB7/oQva+CcALVQ2PoWj2MzrXDaFteQ8vKmtoWdffDTPDlM5wBdANqhtzMV9Bqhcn8dXYy/ztqSv4I3774e/in7/tRX+EhmGxw+G0Iu62os9jxeGASt7tHESO8nV4NRfSOf9owgrfGFlAWDqGc3u4aO5Kr41NYaO1AW1UlhlLF+LvhNZwbGEe5W8NGogw/OHwSM8kyjIZT+ODwcSyX12I8ksZ35g7jeHkD5sJp/NXYKj4cWcB6XRsmapowWNmA/tomNFXWIERP1sMRg4fA+5qm4c/iEbxRxTpNpNULZ/UrzWxocd/w1pXDwLJVdiYdNctAlg9a5Rs18itYt3jJIg/LzMGtDdXNRbj58Bi2zozgzpMrWNyYwNV7qzhHL/3Wo7NIlhbS0yfQr5zE1ukNOFhuh6yHcMDydSydaMTVR0fhTcTZUcRgC3gwPN+Oc7cWUdUWwekbR7F4ZBWecET9xkKALi+r9eWbUk/6uw79K6D6NQfT7GP+Y44vY7Tpj/BPPyrBhbUg6krC8Lr0Xx/LN4AE5h6NjoBAncf6Elj9pXB2m8spp89CLwS62xoniIsRPFiGodIl3F5+H5dnnuD2kffQXDaIgKcIPnca1bEuXFl4gpPDN1EX70FpqAX9FfO4t/EhTk7cREWkDZophRpXD96b/yVWe88g7CvNwJwNxkbvjZJP2soPeQSisqxQlhjurA7QgR6KFeHi1bvYPHYeVbVtBHYFSioacfn6fZw+f11NsYTjJTh59qo6V9vYiUiiFOXVzbh45S7OXrypvHYBugDmkMmFfIsH60dO08N/UwFdni+rXGTaQM2lq0atSxqjapACJpFMmxD0HnpfmkwpME4Lj82+CArEO9eCuzz0bJhLPDI9ETQ5YTWZOVLhEN78TVyb+UP8809DaKkl3AJWeqxmBBwm1JqsuDcyjYvD4+zM+CyfF0mrE281DOLO1ALSIT8aNS/ujk/jUu8gGiNRlAYDmEiX4u+HCb++UdTQQ9+Kl+MnayewnCzHLIH+3dWjOFxSrfa/v7CBrYp69LKsv909gbcGZ3h/OZq1MKrpmVYFIkh4A9BkyaTdBQ/r5c+i9DpnR5A8vYnCrm52THrZ7mdbAjIFdLGxDNBF2T/uUfsK/nLOxXKzE9g+nLu2gDffP4EL106grqUMNx8cxnvfu4Qrt04gkkwr8J+5SKCf3IRDsyPPWoA3LN/A4rEaXH6wDi0ZQb4rqX6YVdJYiEv3V3HqxgLuvXcVdZ3NsPmZFo3PZH3pS2ClA6dXzXoVqNszq3vUp6SdGoGuIer8I8z2/DH++ReDGKhyI+JIwetIQL4N5CbI5ZfHAnXlpQvQGVcO6Dl9Xtr/pWhGNsLWaaIXfTCCtFaPI1MXcefMu1iZOoV0rJYAS0BjAyn2N2Kt9xwuLzzGZvclHGm/jEv9T/D2xk9xYuwmymIt0MwpVDg68Hjyh1jqPomQAjobSwboDsqZAbpMdaifpyugy8oAkQ50WSXQMzCBs/TAj526pDzrYycvKViPTS2pX/MJsE+du4Zbd58qsK9unMSps9dw8+6bGB6fV1Mnxsu53UB/goqqZgVyYx36fkDfWT8dUKtdCtg4BeTywyKPjftmNnjpEBgmn16eAL2AXvozHjrj9dCTi7BsXFY3y9KLmM2Nm/P/Cv/j5zG0N9BDDNoU0P2OAlTlW3B5bBobExPQCFGHj0AhVM/VdeHc1Byifg317PzudwzgZ+PLeNA6iMvNPbjXPYYfja9hs2sAVfQyF2Ol+GjxCNZSFViOFOEjeuWHOapZCqbxs9lNrFc2ooze8eGKBtwfnsGDgRncrevHtdoeXO4eR2dJJfz0qO30UB1M71fZuZQeP4zhN++jY3YevoAsH30OtOTc9vm9QM+WQFXgLuvD7fCGLTh1aQ5vffssFtenESsM4Pg5djjfvoC1rRn4w3F6+jYcO32UNrGmliTmWU300F/H1FoDTt9cgjuuIZ8etsnrgyPswNxWHx5/5wqOXV5HqDgBM0c8Fo8AW+qGEM/8Qljm/3c+ESBpYt4dbvgJ9JjrX2Gu/4/x335Zj+H6fETsEZ6vYkdXpE+5eHQvPQf0nH4T2h/oNDaZ/5QXoxYzle+nR5ZCXVk3ZkY30FDbC82bpJciP52Pwm8tQmWwAws9x7A+fgaLg8cx2biB6aYt9FXPIuGvVj8sKnI0Ya3uArorpuD3pHWYWzPeeZaHLhDdAXq29Hl0eTnZ0TOCucVNBetFepjNbf0IRYvVevYoPc+RiQUMjMxgfvkIjhw/r6ZbuvrGFPDzzfLDEn3of7CADd/s3p5yKSfMZLrl4wA9n52MLMGTsA6bHx6LLGmT78UEYOY1eYG6H9AFFAL0sJkdI8Hoc7kRt9twdelf47//qhjd7ewkolbYtTy4zG+g8JAVQ5UNqK+qgpXeuXwqwGuxYyRehqnmDsQCAaQJ4sF4MU619uFs3wQW2nsw2NCMPpkqqa5D3BdEVTiJ6c5e1MfTqA0nMMsw9bEUqkJxzHb2oaK0DHZ2FmnCv76sEiN9QzhLqJ8izFfaB1GbLlOeuUw72GwaCrxBlDC+7sUVVDZ1qHcOu8H9PGUDXWBpSOC5A3R5KWlxHkBHfwUW1nvpnVfBG3KhpbsE82t9qGsup0dOO2W4/pFBdPf3qfvyrFYcpJfe1FODvqlujnYc+i9KNRu3+WgaqMStty+jdahFvXwt8Mg3cdiJKo9cl4K5/PhNpUfSK+nzwMFOxue2Ier7Q8yN/j7+6a+LMNT0VXroTvjVj+jiBHhElyeiwK6+tZ8Dek6fo14AdEKKQDMTTrKc0O3m0NEVh8+XplHKx/5p3LLMUDxrEz2QPBrxoSSc4nXbwvDa0wjZS9WLT5krl5//+wuKkDhUC5+lkOBjQ5G5c7W6hVBnXPZdQBdA6o19u9GrxsTrGe9P9gWMsqRR3wbg9tIT0uS72fqLNznvC6bU/LdI3cNG6vKyIwqnlacuHYR4++LlF5XUsgwIB+ZdTbswLc8Dulm8cyqP6RTl83myVt5h9cFJOdQ8MdMhYfedcmE6CAu//FjL4eWIR0OQUNqcfAN/95M2nDhRgq5hP9KlJnrE9P7y7Aiy8zEJqBwEk9PJUY4d4XyetzgRoHcZ8gYYB+NxeBDxhmCxO9npyHde5JsmboLFT8AwT/JvT/Q01dponrfJ53cJKrOXIwp2DAe8BDaBavIH8bqPnSjTH2Be3FZNfTrAIl+yZJ1Y1LdbfApWvkAyUzevCqz9PPTMlIsCu2w9TKdMu5jZOb7BsnydHZyNx1bk274Bk+ObBHkBJeHczBfFcrRw5CLfU8ln/gvY8eW7nTjotMLss8Kb0hAq8WOenv3ZW2cQKU0ij/fm8z6T2wB6dj2Jpy5Al7TStqTc3G+gtPwg+nq/ieuXTfi7n9ehpeorCLosHKnJH6vIx+FkVQ/FzlxWaskL1RzQc/o89dwpFzXPKUDKvLzSl5zJMiwdlgJ0WWIoS//sFhp+ARtBHo2VW1m/7rIS8rY47Gaek+uEvJzzWghRAkw+gCXnBeZWyviyofERrx2o62C3s9Hr8+o6MIxVErKeWbaqkcg94lFlGoyap1Vb5inrWK7HUuVq+mVgeBqzixu4Tu9cPP5gtGg77/J1PolzL9BV/JT6UQyVL0An2ET5lPrZu3j3vF95+JkOZz/JJwPk8wPSQVjpyTupmtJinDnegWu3U7hwswTDE1FE6F36TAQyRxeHTBYcoCefp75R4mAaXWpOVyPAfQGWvSb5F6i51ecOrEyTnWUkH+dyMz0uKSdCebtMpXzFK+a+QFbAIwCSr1XKvvooFs9LB6/bBMte9uUcj03cmpj+PN4vZaHywnLJtqfnS+pEIC6jJuNn+CI5NsAuf03IfLhshLqZ5W6l5DO1B3guXx1Lx2QjkOXvEGWeW5YWFljd6hsuBW7WiXw6gXFoiSAGZnuxcmIOl+9fQu/kECx+Hw6xvGTNvwDd6HjF5lU9yfSLmj/nM5yyTp3p8nwNfaP5OHuhAndv9OH0Zi1SsTx2mA6mgZ2CR16k8l7C3MERjEj90IjnDPvcvzxyyumT64Vz6CIDbmKEapUHAaSMkdqeJyXULRY2bpmesfBYAK1ATeCZ2UgsAjg2XCsbBT1zFZ7H6hzDKE9fpGCeDXSRACdL8tysBqFDRfekJZ0q3Zlre/clrJFumWefWTis5s6Pnryo9ksqGpTHrsKp8Pr92QA2gC56FaAbq3YE3Nnx7BKvG3HKihofYVpSFEIi+RrKKy1Ip+h9axo7RMKKIM63OnDQ7sAhep954oE63YQoRwRMu4MjDyvryUS4SrmodFAOmQJiWbtYzi4ZCakVRXonKt/q2e5Mue9wMh4ldsaUfGVS/hLOrBRWW/lAmonbAuYvn+nPZ/7ymP4C7pu5L2WzXQcvk/LQ9dGCLoG5bHeAvnNewO5k/PKnEmbuW3m/M3NNwuhTc1IHsnpJPsObz+MCwlo+5OWJBzGyMI75I0toHeyDPRgmzL0U80Fomygd6Bkgc6vqSObW5fMKhLzEb3GYEYrmsY5sCAVsiIdcHMU41Pfr7awrJ6Euq7TsCua0gRzQc/oN6KVAF2WD0DBGA0DGcba3LF6bcWySRkWp/cx15f0SMrIvcFcwfy7Qd0s1hKzGoDqcDIBfWZn0y8tRWSUjklUvBmCNPBlht8GbuWZIfYeEMoAuMC/4mEAXgKvrhhivm+dkxYybx0ECOuJPwM9jF/Npd7AMZd22w00P3aWU75TPGrNMZSrME+FWgC6jGJaPjIRkSSjltHIEwA7VZYuo6S0b4WyzR56R3bGj7H8QslBmkXynhNsC3p/P0YUOc10FPFbPNsrvVaSALtA2ZIBd9ve7pkNdtOPNG2HFHlgvdBZEBayLPHZ44p3LtMsbdgtckTA8sQQKCF354Vc+y1tPv74cddtDV162iOWntjIHnrEB5s8htsHyNJvo6HC06eGxm3Vhd7vgIvxd8ufpXo54ckDP6TekVwL6tmiE2UATozeMU6Cqw9wYiuv7Mqdsomf5DNAzWwX0bZAbYvx83n7aN10fV9KYMmlWaeC+3oB35tmN68Y1Q0beZcpFzaHz+mcKdEr+Ss/jSsDrSsPnKoTPmYLmiKqpEvnsr/yS0URwCMh1mBtAp/csMJctPWv1rz/yfoJyUi4F85cDPVvPAJ0wV0CnCvgMAfjzgP7KXvq+QM+GdPa17Os7XrnuydNG+Gz5i0Az8yt/MCEeep7LQu9cZOe+hxJvnGknqOUTDgJyyYOAXd51qHpRtpCBuvxDkUfWkJdxhJrgc1h2zJvUlc0WR0F+ClZ5VySjG3aw8kLW6dFl1+jZazmg5/Sb0WcK9F1S0KYE6BmQ68qc3wa6wFvgki05txvkhvZN16cV07/TiHemlSSN6hqPDQBn51/+aMH4p54ChhXJz9nV/DK1vY5dQC1xPEcCBjXPLuEoJ0Ep/2bkccuLUg80wsrDc/J/o+IVWgk5s1OgztGPg6Mf7gtAzS75BC/BKyJw5W/drISMeJHimTvtzJ8SYc1ytsr1LGC/THuBbmKaTAS4QLyA6dVh/lkCXfe49W22jDB7YM40yLeA1PSQeM4CdeloXWbC3IwCzaGmXgrcUSpGCdB1qBewbuXrmfJ5BvHQt2GuvHMBOo/dKdZXXH8O0+FwOVhn7sy0FtNgZ3o4cpL6sbPe5M+8bR5eI9AF5rK+PQf0nD5PfXygs7FmQ+15xrkNdAEctXO8Izm3e6rFkJzbDXJDe5/zmUjyxXwYUBfIyjnlofO65FnO7ZdvgZYsWVTK5Enf7gB9vzLbllwzyk/SQekdgKwcccPtdlLy59YCeqZDhZPnsVwdhLqagmH5ShySbkJdibBVf5UnEs9RwC5euSGWsf7vSwJ2A+4vlvrfz2wJPJkmAbghM6X/bdzHAboAOVsGtPeeN2Rcz4b5TnkqD515VP8SxLIxOZ0cuYg8alRlZoeni9d3ifdk6nnnh0QiATS3vKZ37PIseZHsZF05WZYeli07IEo+FaDqUEHdq371apN7VUfB+9S9OaDn9Pno4wFdJIaYkTSe7eM94fZ667uOM5JwOrwFMNmSc3LtWe19zmeirPwYYJBjI43qWtb5XeL17TxlgG7kd2/8Rvi92r5XxbNzXj4OZmg7/5lwRkdpdJbqecYzDGXFtVfZZaqX94tl/PXes9LBrUYI1CtDPFtyz76SPMko6UXaP98Cc116+T4bjml/joy63i2jIxHJvpyTsvMT5hmx85AVQ0p8xq6OJsshMNKYU06ftT4+0D9j6cD4LQPd0HZD3+98lrKvfQxtg3uP9o5aDKklfepefX+/8Nv3bYf9zcvwxg3tF+aTSSD8Eu1733MkaXuV9BnhnpHx3KxzDL9jn5IeXWrUtUsZuzJkPCunnD5D/VaBLuDW153/jgD9c5buWb+aFLwVHHbufR7MRb9NoOeUU06/G/otAl33zP/XAnoGzB9T+r37X9vR/s/MKaec/tfRbxnoOtT/VwF6Tl8EBfc5l1NOvxv6rU+5PF/Pwly0Xzw55fSbUw7oOf3u6rf+UvR52g/mov3C5pRTTjnllAN6TjnllNMXRjmg55RTTjl9QZQDek455ZTTF0Q5oOeUU045fUH0Owt0UQ7mOeWUU06vrt9poOeUU0455fTqygE9p5xyyukLohzQc8opp5y+IMoBPaeccsrpC6Ic0HPKKaecviDKAT2nnHLK6QuiHNBzyulzkPFZ4/2u5ZTT56Uc0HPKKaecviDKAT2nnHLK6QuiHND/xUn/z8od7Rcmp5x+d/Rxf+n9L/GX4dv/4yB/Mu7ksUidzw4n39L/fL+nnwP6vzjJv8prlD8jL43HzfNe9Td0r6r94/7dkkUZv/43hbK1ZLZWpyisZJF9npN/utovDqXMHzO/Ur5VWD73Ge0J99LwGe0KK+eyjj8HCUDsGT3b+Rt69r79JHE4Mlvj3Me1HUmPg/kW2SkB3jNllCUJY4R/cdj9n/ebl6QzxPSGqQgl+76M/JT8b7InI92WJY+fV/pzQP8XIzZEGonA2+Z0sqHQkHhO7bvyeM0OMw3IREN5FX22/87/eShIeES5jcNlT6itxRnLbBOwuHSZuW9zJOC0x9lYpKFIOe2Ry8+wfpgzWyWelzLYK6uL5foc6fDW06c6RjZM1aG4ROxgtqWfk2vZUucYz77PfZF2lcvLRBjaBcSSdx/j1iX7ujMgEkdAvEjJE9OlpOdPeZQsGwnjtvvhoVwqLpafkp5v8wukd8R63AIwJ2EnEujZKRu1u7x4jmUjZSwAdGa0qwOQclOSctSP98//C7Sd1z0SZ+BVzqnz8txsMV+OCNMbg5vyMH0elxNul4vHXtpulNfMuuzMF+8R6Ev73TeNn1I5oP+LkTQq8cadNAg7Gy17fzu9AXrmDqeF11wEtR8FbHAFrpdINcr9nvHblwKN2qfR22NUilBIERSEujMOD+Ftd6VgcadhFrnSbNxpNv4kJVAgsFwsJyVCTORmfimzm0AypADPcxnpsGAjowQsdjZMu1vXc4HOcxbCSMkd4XN0ybE5SzthZJuB+h49ryP5OEBX3jCh4bb5CQ+CnPA202bMAnMpF27tlEDdznhVeWUAq4CagahVlYeEF4fBy2PGwfLS7SdIOwu9UGZK4CfxCsRd9FxFTvFgXRE+i+VESZmpclPnJA060F2UDj4jPSwjt4hxSxlyq4CeVR8vFePZzuseyUhvv/N7pY8KBeo7simYJ5jmJDzcepkPr9sDL5+n0VY9tiK4HQS83UaFuK93bmrU+THq9lX1LxboYnyGwX+a5WHqXsYh8cn+dkPaJ+xvV37VGF1ODw3DDa/NS4WgWcNswAEaCdPPfHyRgO6w0esm0PPpieez4TsInQgblMcTg8OXglVLKpnd9NTdDMu82Zwa61OXzcUtYaSA7qH3SJCbdolwoswCC4GG1LvAIgPyXRLgZexN0qk8a3WPhCeYPNFtmXlsYsMWyf7ONQEYoZD1PAvTrJ5LGbaXrY/T6KXcnPTOXYS5QwFdYCw2TdthfsV+nCwL2T4DdCUd6jaVJgLc7UMe7U1kIuBNyn6CtJ/QC7UX6G6C3E1ouygFdCkTVS665NhOSX5leseZkQK6Kl92gh7GS8lW1dHHLR/J16687i8F6X3Oi4xpPpU31q1d8uOMMn8J5i8BjQ6HzxWjwvDRCfHai6DZCjnKCRPsAYpbdgAuQl0fqTD9+6X1U+iVgK4D85ND8/PQdmVKw9rnunHtmfN7lA3xXUB/xft/U5LG6qKxeW1B+MwaIgU2REyHEDS9AZ/1II3GTiPxZhrdS5TJmwyr9Xr9rKWnd28ePp4IdDu9cQK9gI3E7Nbg9tgRdTvg9XrhDhICPjYMyizA1hheI7RcHuaNIszFS9eBTrh56JGLuK976eKx6zBXQKcEtDrQCRJ2AEoK6LI17EKXmm5hWepAp9dIMFm1qJLsiydpypy3aLzmjenXPQJ0AoFbmyYeu8TDODN2t1efxAbthLGHaQtwFBempxtkPF4+y0mP2808OQTwjPdZoDNtzI+d4V28X7Nr8FhccFldsHJfpmxkyqWAYfYDuSHx0mWKSeJ7EdDNUk4G0DPPFZC7M3LxnHTiv0mgWzjCUVAnlJWMa3uOpQNyuKNw0bnwMA8a69PrjsHvItRpKz6XmR77AQL8AMvRTrB7uQ3yOKTasV72+6TzU+qlQBfImaUi1Us3mYfTzxtvdWXoIEN/uyF1jgazSzQeGUJJWCVWNHstuTd7LknvOHY/fz9ZaKgSVhpbsqgKJRUN8Pjj25Ur1/bT3ngU1GgUEk8kXoqqujbUNnaipqEDRWV1cHnZABnGeJ5SZv+ZuD5nKaCzzHxsWIH8byGd9+/QEP59dNZ8Cd2tv4eKitcJNI2NzRga75FMx2T2ZQ7dwbp0qheqBF6WV2txeNgYjWO5lq1MGGPrMMIZ0sNJRyEN03iZJhDQ514z+ZGtsf9csdHak5kpF8LAbkHQm4eipBWhqAZX0IdwKo5IOgGbl/D2+qCF/CgsK0FRaTk0gl7AZSPArR6mlTIrMX+al1vatBLr08PnUWooT/C5QzEUVlQgXV4Op58w9jBf7FDUPDwbs5npMRFSZtqOEhuwgMYisOb9IptXYE7b5jaULoU/UQxnIAJvJIVQogQufxQO2peac2adyDSHeMZ79fJy2pGUu4vhg9zWepOYiVVjNVaHiXQ9ygorCFYfwcq64VZe2OlQF9AJwHQpoLMcgsxPeb4brQRwcyjNeFlmdg/Tq3vqRp0W8H6BuJSLhcoj9PLUsR6XeNlulpHIALRDyplScKbkeZJuL8vRz/ZVGi1Gms/08JyL16Xzk7IV+KuOkzDV590/BdAzcDZGEiKZ+y8srUdxeeNOuD3annKR+xhHqrAa9fXtCIXi0NxpeAn0gD8fJWV/jI7u30Mb22Zx8k8QcL5BqLOj5TNcwkiVnn3S+Sn1XKBvQ4wVL1JzcQrqbCRMjPS8Thq2xx7nkD8Gp4W9lZU9sS0EtzHsk7k6hncwA05C3OVgGIe8vIrDZuO+TeafZPghBUQDUcNEwpL7ajiiZOzr6TLbaFDs7SR9wWgRllaP4fT566yIWhVO7pd4JIxsVV4y54y4jbiUuJ8srMLswgbOXbqFcxdv4cSZqxidXFTxy3WJy4jPZN3Zl/h2xblHxvXt4TkNVgBgonQY8Lxcy7pnO137SOYVA04LQuY/Qk/8S7h99Ot4cvcgbt7+OiYWvLATcm+wwR6i91nAZ5n4bOmMC6iDVJ5AXdUlGzY7BrfAmx5tvtNJb9LF9LlRYLPxHgcbDI8dLkLCTag6lVyUk8pzOVR4E8OJ7E4X69TJDp3hCXYZ3jsESJI3lQY/8nks0xuSRwfzrsT6Eqjs581L4yrgsNViZyPhUNVny0N5sQ3Tc5Vo7q6GN+pH/2gPxqaHECukTXk90CJulsMY5lYXECZA7TK9IWXspsfudcOs2bm1w+YjnDXWJWFvIqit9OytXoYTr9kXRaS4BLPrc5hamYEWTaDAY4OJowMTO4MCgtzkSiLfEct0kLQHxmEm9C2MR2Tz0t4DtGmfjyBPYmJxCa39/QgkE2jv78LMygIC8ULVgSg7ELuV8pIOSOaulWQ/Y1v7lM8uSRgpV9pkhMBspKd4qrYHb/fM4zs9i7g7uICulk5V3+Jtu2xu1pd0vvpzZERiU+BkmmWfaQoz3rYCDWer23F9dB6xeJqdGPNPeznk1lkgHrveEYXgpLfqdEVxyBPFAR6bmCfpkNSoICNXpkNx0z5c3Drl2exQHexMpbNJsCNMsX3PtQ1gvLUXPtqNArrqAOjJe+i0cbRmY/7Eq/80QHcwnTJlsr2SivGZCNzVjdPYPHph+7zumfNZvEcgLh68yM78ShzTcxtsf49RXFrNPBUxbzFy4zUMjPw57j78Gt566yu4cNKM8uRfws90aMynlIN0bL8RoBsQMsApWzkvYDDZBaQCaoFzjPCOwysNzpqG28QeyhJj44uquV0PoS4vVfRVFSwQwtztSPK+NI2CxsF7PewEPIxHOgf1bMP75T1SWdmSc3K9wEovlJK0+cNprKyf0IFeUqsqTe6XaxLGiMuo9F1QV8/Tj7v6xnDv0btYP3IavQOT6OgZUd66N5hUYfMtHhWnwFz280yEg5SLpOlF6eU1kTTaAi2Eg94QXmNj/xb1uhbEQRpynsBXoCNpMsS07SfpGP0uG6K2P8bZkS/hH75ThrNH6tA3EEdxVQx5hMrXCKkDbDASj8vshYdyWn0EkACdcKes9KzdNhc0QtjlchIoNkKN0PY4kW8zsZ4tNHY7AW6Dz2qFz2RGwGJF2mxDjHrDbUW+JjC3qHv9jCNoko7GyoZJqNNbNhGQ+cyfrIywsd4O0Fs9QG81n8CQ4bWbjcLL/MgwNNubF0lZSGeURw/dRNsKyLsCxyE0NPtx9e4kFjfGEUwEcPzMOq7dOYeqhko4fB7Y/SbMHx3D2vkl+ItKCeA4DrGe8pzsoHx2WLwmbm0K6OKZS+dmIuxtPsLJS1un92f3JxAsTGLz/BrWTq3Am4gzrwUs2zyYfA52lGGYtBS3MW5Znh4X73OwM6BYJhaWo5WdiyPAjsLrQqqyFLefPMTikXXEywpx5NwMHr1/BamKKnYM0qGwjFge+rQL682YJuI1dfwCezCkpisYTqM9F3F/LVWL784fxUbHIOYa2jFU34JKjlrcdgdcBVZ4TSyDzLSUANcp4BVPmUCV9w1O1lfIrKGR7f1YbQuuT84jkS5mOToJczeBTU/d7mZb1uDnc4OEXlhL0EON4RA7xNcF9IxDIO0l+P0STsSOJMhtgPkL8XyQHr+LnaGTdquxkyilfdTaAjg/MI0zdKgiBLlb0sWysTBuC0cdZg9HZPSCdcjqjqAqh+eVk5ynBMwyRaLmvQlity+hIK487gzgC9hOzly4hSvXH/Fenpe5bnkOZXjmZnJN5PGRZVoci6vHcenaPfKnmpAmy/gMXyiAmqoQJoaduHLuIP7nf57GWLeNzliYHry0OZdyaH5jc+gKRKwQAZis73V76IGz91VTKvSWdJBz6OgsQcheiqC1BGEq6S5Hka8SRUEOV4M870+r3tRsFw8+jqClEGlPDbyeSnh5b5GnHIXhSoRDJcooXwr0TLoEtFoggUCkEHVNXUq+UCoThnngVqZgfMGUCheOM21FVeo+8SYM0EoYuba0dgwPHr+P5vZ+1UlIXGoUwsYrz3ZqERVOJHEY6dxJ2+60KmU6F5GJRnkoGMM3onH8RTyGP6P+MhbDtyIxvOEPK49ahrGSbpV3iU8qW46z6kV6dB9hHXf8KR6s/B7+/v16VJUUo4D1kkcjy5dOWLw0GlraHkGJRby1NFp9JShlI3DyegFHWgVON/xWB8qsTnSxc+kJhNEYCCBNL9brstKLy0eCQK8n7FoZtpNedzsb8AAbY5/GBkxv1eswEfYF7JDNqCXEe+j59dHrr/Rx5ORn5+MlMJlWAZV44t8gQA+WlcHSwOEsvVMZxYUtAYSsHGrLS10eq3xKnnmPArotAbM1RduSl0lvoLLegav3x7FweATesBvHTy3i3sMLqG0sgydIIGuvY+7YANavzMJXUoRDBNRBgssWYucV5wgm4CQUBOw27tsRSPkRLWUaCmnnBL5JpgG8dEpSYWxdXsDKmRlEyovhL9HgLbLDV0SHJhiFxV9IuMeQL/GE2VB5f7hY4vHBE+VoJSCdhpVxWQjxJB5/8AQLR5a4n8D66UE8eO8sEmWVHBnRMVGjBN1Dl5UlFpnaUeKzBOoErvFewiifvSBwSkfE+6McYXQQeg+revAf185hjF5jbSiKwkAQQc3DMrQT1DZUELQBQjTJDqPJHUejN4UqXwoxAixIL7WU0KxzxtDJ50/4wphMlbIdEdQEeh5HZg7ajoujsRBtqZLl1RwpRW20DBF2hgcDERwQaJMdhUxPITuFMsK7lvHUM44aXk9zFBNhpxC0OZHkCDBFwNdGEuhNlmCQtnurb4qdyCISBLyLZeMkeL/KtvpaeR3sTZ3wp2oUPPVlg3qZbLeVfbZSXgJvp0YnlCCPJCrU1Eo4XgbNn1JgdpBx4pWfu3QXN24/pZddwk6smtyoIUcKFdglDgkTipYiUViNcKwUNY3dSh5yRi3BVM+JI8ByDdq/itbKL+H/+9+WsTTMMqFD62WaZLSiVu8YafwM9eI5dDa0WLgCHc1jqC7qZK9aShAUEeDFqIy1o7t2EqWBZjbMclSG2zDSMIf5znVqDUt9GxjtXEIq2khvvQR+UxGKbZWYrZ1HT/k4eqvYMDuXMTu4gr7uSQTChXoGpQIIXQeNVEDqoFHIHJsCJ9MkkBWPWqZEJmZWsHL4BHvJoyzgShVGgC4g7+4fR3ffOPqHpjE5u4rDW2cwNbuG4rJ61XmIty7z5dPz68o7f+/DH6m4JM6RiQUEI0UqXCxVrrx2eYZoZuEw2rqGEIoV62lS6RWDkV4+rNIsknslveLJOyIpRFs6EBkdgX9qHN7pcfgmR5EcH4e7pg55fhnGG/Fw+JrJu5Fvo2MQeWg0UcdX8HDpD/A379SisLAQB2lseTQ0h9mPYnMQS6WdWC1swwq355rGcbd9DtcqBlHPTlY8sDx6WeUcLSwWVuAGPbiH7BBvNrRis7Ia9fEQUgT1cCSKm3UtuF/biscNHbhX2YR71c140N6Lleoa1DtsKDt0ENUFBdgsLMWd+jbcrGnGuZYuzPG+MnZ8Tnpqqky8UXyFgIrNz6Dm+kUk+gYI/QRSpiA9/gAbP42cQJepFyk3B/Muc6wFModuSyNCJ8LrPojiigJcezCOqaU++CNubG5N4s69k6ipLyLQCUftW5g/0YfNa9MIV6RZrhq04gjaRtrQ1NsObyxKD49QK2JHNVCGqdUeTK93ckunoKMcWowdCDs4b9qPo9enceTaAoaWZjC63ouJI10YO9yDWE05TITSIXlfEXwDFe0xTK51Y5JxzG30Y2C6CbFSer/+g1QeO4wInnz4CKPzIwimA5he68Dtp+cI9Go1fSEjBIH6Dsw9GXFfPHUZUSmo6w6N2ISUqbI9njPsz0xw1rMNnKzpxt/0LOF/rJzHJdrpcmMbhusakAjQW3axE3d4cLy6Fd2E9ExxPa7VD+Fi/TDWanpQZg+z7gOYKO/A4dpebFTX43xlHU7SBsKRYo4omR7NjZjFgQp2BkNFlThMmB3tGMImNVnXTsjJEj4Pimwa5orrsFhciwWC+HhrLy50DOA81ZUoQpgdg99mQw/TP09n60RHP05S52o78N74Mu6yDabYCYiH7iYg/3UsDcvCEqqu3kDTyAI8ssJJedFSBjvtcBcveE5dp8SbjxDgbV0jbPMbdOJOYG5pC31DM4gmKxTUXd4ELly+h4dPvo3h8SXlfR/eOkd+rKOotIHx6lDv6Z/C1NxhMmgZ0wtHMMH9IONWL3rJAdl6nRFEHF9DB4H+//uvs1jqp905iuCjTbvtdI6NtH/Geu6Ui4UNzGGNoDjWiNOrt7HYfRLlrnYkTXXsdRuw0HMcW1OXURkhqKwV6KqYxOboBRwZOIf1rpO4MHMXd09+hN6GFXoOjewIqlDhbcGN6Ru4uHADJ+cvY2vmDOZHD2N4YA6RGL108YhZOQJt8Z7FG5YXkwI49cKG6ZMK6x+exvL6CTVF8uDJ+3jv2z9GVW2bDlFWYqKwCmcv3sT1W49x5vwNgprpuXIHb77zHQVkgbUAvbVzEFsnLuDpu9/FB9/5CY4cP4+1zVOYXdxQIJdnS8dx886bOHXumpreuXD5Dq7ffqw6DIGu0cgkjW56bb5QWo0KJJ2SFnmOlihGzegEmo8cQf2J46g7eRy1x7bQeew4Eu3dKAhw+C5AzzRWiUcj8FyaDBF3RhTSWblcBfSM/hUeLH8Jf/1OMdKFbnr4DnqiLjhNbrSaIninbxU/njuLa8NrODe4hEcDa/jvs5dxrHUcAZar3eNDR7oUJ7r7cbyrC6fqm/CUjemXU8uYq6FXZ7PgREkF/hMN/pcjc/gJO8V/nDmMHw/P4Hscfv9gbgUTHF00vH4QJ5nX98amcZf5O9HUgicdw3z2FlZrO2nQQTa8KGzeCL5OaNVtbWLivaeon55DjIBIWIKI0Ev3G0CXumc5aoFk5oVhmiPCQgV0nzsPkdRrOHO9H0NT7fDRQ19YGsCp0wvspDmE9ntg9r2BxVMDOHprCvGaKMJVYQws92Lr4il0jYxAi7JBBq0YmmvGuVur2Dq3SZgP4+iFJca7ibbBLrhj7DxSPhy/MYcrb53C5uXTmNwawtrFYdz+8DhGVkfhSHAEEbKjqjuCzUuDOH5tHDMbzdi6NIwrD1cYfyNc0UPsYN5Qo4CrD66hb6IPrjBHMZPNOH31OCL08BTMPfL+wp0F8hcD3U2PWNqG3iYy0KLyLW40ltbhVOMA/mHyKP554zIu0xHZ6h7EXEc3R8ysCwK9gaOovxpfx93BGVwfXsDN0VWc7pvFbMugWhLqZx30VLRhtWMUaz09eGtwDD9fOYHKkgbWI0e+Hg9KbR4cTdfh20NLuEO4bbV142LXAL5DCK40NKPY5UKpw4Wn7SP4Hu3mTP8YTvWO4knfNP5h5TQutPUjzfwFzRZcLmrE09EFXByYwBF63/d7xvHT1ZO4x3aXFqBzlOVyR/En0SIkjpzA2FvvY2jxGLw+OoAcUeijYx3gwg8vnTmRan+ZMpOt0xPFwMg8bt59G6fP3yI/TuHU2Zvkx7d5fk731L1xnL10B0/f+QFOMcza5lmGuYEnb3+P+2cYp7AopoAu9wvwr956E+9/9+cormyG+t0B0yBbjWmLOr+CdgL9//mndiwN/iXCHhs9dB9HN7Rzto1PvxLsWT13ykWGMy5rDDFPFTbGLuL89EN0hKdQUtCKjuQELiw9wHTHJpLuWjbKClSHutESH0FzgD1wZBQLTSfw+PSPsTJ0GYX+DjgJ/SJ/G+4sPsDVjfsY6lhEMb33qLcM0TCHPmpOSwe6AFJgLtMfAjd9SKmDTeayBbTywjKSKMXCyhYevvkhKulFGECPpyt1oBO8Hd0j7IHL1Jz4rXtPFdhlvl1AK3HLy1Tx3m/ffwuVNa1qukU8fDEIuXbxyl2cPnddxS+jiHJ6qecv38bRkxfVFIw8z/CapKFJZyFxCOzFyEQWAs2eKoa9ohoWereWGqqyCu6KGljjhcjzyItSHehyn3QIEofHR/jynDxDL5cwvdQ/w8DA7+MXt38Pv3yaRCrpQoHbgtc1B8wcvrZawvhgZAPfmTuNwfIWpKPFaKdn/l9Gz+LqwDISzJufXnpZKIb2VBqdbOgTBPyV4mr8ev4wTrV3oN3uwBkO1/+RI5aL5bU4WVqFX08s4jzPbZZW4Iezy1goLUMjPay3Owfw3uQcFsvK0cW45gjwj0aW8ebYKsro8biYfply+gaH55G2TrQsr6KorhV+No4gR4A+SqPEyMWLcnFYHCTs3ezQrK5COOihhwl0jR2ZFvw6escTqGxIs6ztaGkrRXcPh75RD0cBLlgI9KXT/ThxZwKVXYUY3+jF+UdH0DUxCS2eosdsR7jUhvN3VrBxbhGl9d3w0VtMVqVx9tYWjl7c4vUEge7FqdsruPTmCVR01sNdaEGszoLDV+hhPjiDZD1HqqVBrJ7vx4WHs6gf4Eiu6hBKmu1YPztAqB9lPC7kew6yA/GgZ3wI5Y20Oa8TZU3F6BrugSdcSpB7M0CXF9ICcW+WdK9dwdwAut2vOnqxDWkDO519AAVWD3zc1jjDeNo2jl8tnUJbnI4ERxNl/hA9Yg9cDgfa6Dn/l4kj+M7sESw19qAxTUcrWoK4OBAcTcqvQv30MGO05WQiSo+/EX+1chKVhXVwMR6/TK/xGd/pnMFfcXR9MlGNEbbPBd7/UecYHrDDbwtHUWVx4vudE/jB/BF0FFeinKPQuUAaf92/gJ+OrKBZCyFtd+FnvfO4Ry+5PZaiPXmw6EvhhzMbuE8PPZ2ZchH4vU6PPNw8iM6lE6hqHITTnYSFXrD6UZBwgxC106YCtPdQvJT2EON1jlyk3LiNpipx/c5bOH/lAcqq2xmmAml63ecu3cPth+8jnJARfhTn6KHfvPcuWjpHVJh4YS1OEPwPn36XYSoYH52LUDFi6WoEY+WYnNvAB9/7BUorW2mvbKvSyTItXo52ovbX0VT0h/ivv7biye0/Rn/fnyEZo+MlU4zSEUlnzPR9lnrulIssJ5S58rC9HP1V7NmW38N05TFUWXuw3HkG55fuoaV4CGFHGQIFxShyNKKnaBpLzcex2noKx4eu49HpH2Fr8hZKw92wWkqQDLTixvJjLI+dQDJaD6clBTs9SgcbrIOFINAyACmGa3joAksFRmW8fvViUl56yrmxqSU1ZVJR06IDnWmPpypw5sINHDl2Xu3L/dI5nDhzBTfuPFFAl05C4pJnzC9v8fybSBFq0mHIeYm7hcPD2/fewihhJpCVtMn1xZWj6kWILJeUtEpYeYbuoevz9kaaFewDccSqG5Hu6EGiqxfRzm5E2ztR2NmDcHUDLH7xRnc8dGN0It6YEb+Kh9d6R/Px+OnX8P/5m3+FH93zojAuL1gsOKDZkC8emDToicM41zXJRhrHQZeGcIGGnzTO43IfIRZMI23RUM9OZqyMnXVzK87X07Nu68OvFzZxlV57j92NY0UV+BsCfYbgn42n8QN66VPBKPqDYXx/ZBabHMZ3RSJ4nw347ekFDpk7sdbWhvXqJjwYW8KT2S3URMthJagPscF9g53Ia/S2LOxQbPRy7DwvEHfZCXHKqZa8yhA7jgAbjIsdvM3JjtWWRID24XHY2NkdhCvwTTg0E8vCAl/AjGDIyo7PSo+e+fd8DfMnOnDhzRnMnxrFhadHcPLBAqJVJbCE6PGG8lHeHsCNt05icH6IsK2Ek86EJeDDzJExXHl8CcVNJfCX+HHs5go2ry7BnfYiP/QGCqJ/hs75OO58eBMlbbUoZLhzD2dw4fEMBpZqMLBYg+7pMhy+MIabb59HpDyAPM2MAq8GB8vJEY6gwCMrkXjM51ncCXbidFBk2oV1JACXpZPyYtJYbaK/KGebyLRJGTV7VLvQga6/D5JRoDg6PtgtXrZFFy7V9eCjhaMoiqTpdXsQdrqhUS56zV203/85exQ3u6dQTsC6+Dw768Yu87oyPUhHR1a1yfsPKzvoNXr9v1o+hSp65C5vCAHGMe5L42+mj+LHvQu4Ut2F0xyNna/rxJs9U3hEB6s7WYJ62thPemfwZHwRoaC8wHSjrsCJd5m2v53aRL+fDkU4jv84voEjDe2IuJzqpXsn0/90cBr3x+aQkjXz0hZtkrYYXM4ihEPVcLuLOIon0Algi7ywZAekr4KJwhsugp8dlJ2OgSydNJFjsi2racc7H/0CvSMLvMb26U3Cxu3QxAq+/7N/j1RZE+sghvPXHuH81YfquskZRT7tcmx2A4/f/gG98FYUENQm2qnLz9Ejw/QOz+GjH/wKZVVtil/GSiUf6yRqO4ia2P+GX33vy/gf/7UAj94sRktTEewckcp7pd840D22BL2jclQHenB65B5O9t9Bb3IBp6ZvY33sHMoizRz+FyHuKMdwzQJOT97EydEbmG08isnGLVxZextHJm+gPNIDN4FeHGgj0J9ism8NIX8ZPBZWjJmGadM9WQGmAjoNVaYbtr1zwswwbAlnQFeMenx6GXcfvL0NdDkfTZSpJYgbR88q79xOEAogxRO/cuOB8rwFltIg5LzMjQvQS8obFDRF8sxODhOlsxibXFLHxuqaBXYAl68/UF6/8eJUrot3LV618s5VmvX0auEUmjh07VhdR/Phw6hbW0PN6iraDm+gfGBEzbHLSpjseFyZvMu5HYXooccxM+nA//HOv8GvHgdRm3Yj6LTSOCyEnxWNTPujmXWc6BljQ2JH4dBQmO/F96qncK1/GXWEZX2Blx55G97mUPtkzwCW6hpxvrwR/2FiHff7xtDv8GIjVY6fr5+gV5XAeqwEPyOkpzia6I/E8TeDi7jEEctENI2fTK7gu0sbONs/hM2+fhzvGcaJ3gnMtg4hHSplY4riDXrqX2F9foUdjKmwCnmhIuTJ7xBk2ap868IuW5a7rDd3yQ81EvTAYjxmWdrj9OCjhL584sBJqJkJHyucLisbdgHDmlmXZjh8eSjQ/pxAb8bt76xh68465i+N49Rbi2gaq4AtbkZe4CDKu4rpeZ9Dx1QH8uRFaNCNPL8F/YtduPzmBZR2lEIr9WD98gLWryzClrTjUOg1mBN/hu6lKG58cA3p5hqkCfSLT6dx+e1ZTB/rxMzxbkwd7cTsyX6MrPWyI/DgoNeOg5qs8PGhwBdihxNkGrlPWJqcGeDQRvRli6x3fxLx4hraCxs94WTNeKD6XLE4NOI4sCwIK2OFhpwT0MvKC1nW6jdpuFzTie8T6IX0VGVFidflpu3IMlU3ga7hvy9u4XB9P6IsYxthLuvrZQmifE7CTsnKpHwnR7BaHBvFzfjrlTOoStXRHunk0UNvpef/i6WT+OHYYVzon8Jp2trpvnEc7xrBEp2g6mAcFYzj+z2T7NznObKK4pDXh1KTHbeqW/Dh6hGOGqMYpj397fg6TrZ0IcZRSthlRxPTeWdojECfQtrD9DAdJnq0h+wxdohFCKQaCeJiptkAOp0EQywTB23NQWfA4hYnSYAuZRxCaU0H3vnuL9E5OAtPpBR2ATI1OLmKD3/4N4gV0znj6ODc9cc4Q6Bb6FgcJJfyCPRReuEP3v4+CgltE59pYrnJvY5AIXqGCPTv/zWB3qoALT/us9NO/TYXPfSvo6HwS/hPv/Tio6caluaHUVpIW7QyX8JZ4V0Wcz8LvRLQk9YGTNcfx52Vj3By5C4ur7+J3vppxH3l8LNgS4MNODt7C6cmbqI1MUZvvQ31sWGcXXmEzalrKAm2E96FDCdAfxujvYsIelk5FnpiVvleh8B8B+gK6gSbAVaB2XbmuTWWHwrwZI5bplJkKsQAukzFyNSKzInLvtwjXvPhrdM4f/mO8qx1z1+f3pBpmxu3n3DY1KhgKs+VbXV9u5q2OX76snrpKp6zrJaRZZLnLt1WPz5SowLGb8A4O82GpEPxJ0oQKKuGr4INlvJSgcpaaOlStfZZH6plwvP+XfnOkvyoxeP4Jp4e+wP854/q0V5ShIjDQ/ARclYT6gmO2/Or2GRHEQixPOgZpfM1fNAwg2uDq2ikMXcSmD/onMN3O6YwzI6jgQ1tzRvHfxpdw5uDUxjgcHi1pBrf2ziB8WACi2zAP2YnMZYsRlc4hl8MLeJ8TStG6OX/bHAeP6SXMx1KotsfRgfjawsX0/sr4rCTDY6e6Bv0BL9KWPlbelA7u4pAbbta+mfjdYf8hmEb6hTz53TwPCVbJxuy+sARG5Z8dMpFG/Cw0XjYaDwEgOZ2QNMchByhHvgKVs+04Pp7C2idbkW0kZ3f6SEcuzWDotYUPW0P/OVFOHnvJKZO9MNXaYYleQDuUhvmz0xj49o6AtVsbIVWLF+cw/G7mwjVEniJPITqLFi72o9jt08hWFUGd3EEh6+N4sS9KRR1+BnOhmC1BbEGPqPSi4KIAwd8HryhhakIwR5FHmGcz/0CgkeALst5s1XbMoj59dNo6BiBJiu/WE9mdnTylcltyRQD4SXDevXRL3VephYIe7ajgMmLC/RGv7d0DKlYOWGusazcHOIT7HYNHdQ/rhzBSusoAkyD/qM/+S4Q2xPLV4Au33qxso35OELaKGrFX62eQ1WSI2oZOdBDT0YTeDqwgB+OHMZUUT06goVoYSfUHC1FFUfCMdppmnG82z6IO8MzqiM4SDinC2y4WMMR3Nomyn0BNPhD+HBgDo9GZ9EZCKOWdTrG7ZORCdwdHUOxl+nyBvEa8/pn/hSc7SMoZ0cVqutnx1iowFpAD/25YlnlZxSRF8APPsCRs7cQL2+GJ1aBRHkLts7dxq03vwtXmM4HPe6TVx7g3M2naiWNHIeK6nCEYa49+pDnqpFHh0NklQ4hWISuoXl8+L1fkh3kD/MsP9Zz0vnwWwL00L+Bruov4f/+ry1Ym/k6fOxkXDa2bZbz5zF/Lnou0MUjkB8M+axFCFkr0UBAX1l9G4/P/RBHF6+jJNEEP4c98nPXkkA9Tk1ex/m5+xitP4yB2lXM9p7C1ePv4sgsw4ba4LIQ/KFW3Fx5B6P9Cwj7OHwylxDohBkzqJ4p0DKez301hMkGfeaaQFu2AnTx0HcDPYBYspxAv4stATq9FLlXB/oZNf8tQFdecGYUMLe0qaZixMtXo4IM1P2htFoFc/Pum1heO646D/H6xZuXlTOybHIvdLPTqw/BxIPiENbMYTU9fIeapySUaKQeevdOgtvJdGfHsyvfmTwb+Taz4TvsX8P9w3+A//h+LdqKyxGhkTitdjhtZlT7/Lg0M4eVgUGmn/e4PYhxyHqzeQqXRtfRlKxCfSiFNzun8f2hZZwgmA9X1OF+xxD+4+op3BudQTs7hYnKajw5dgIdBPhAPI23ltbRX1SCjkQK73PEcqK5A812D86UNeDDiSVcbu7GEZbrEkc5q60DaCtppHcov+JM45v09L4aSKJpmSBhWdZxGO5mg7LLbxBoYw4BO2H+fAn4ubWxvAh2med1O+lxujz00rmlnG4nPaxvYu1ML47fnEKwLIECrwfp2iKcuDGHxdPLiNW2wEp76F0awLF7c5g40YLOxUqMbvXgyI0j6JrvhomevKPIgbUrq/TAz2Py+AQ65zoxfXICF56eQdfcBFyFxTgU9KNhtAFbN9cxcWwY7XMNaJmqwcBaN2oG6+AoDOOAP0CYx6i40kFZF++JIV+8PMK0gKMXQ/nsyBY3zuG97/4Kpy7eR7qsGQ52ejJnKxA3vti4LbH1PedkGstr9mKzrhVP6aQkCXRNgE4IewgZAXo94f6z9TVME45egsn4booS26F8Llc++CZLXGVFxkJxC763dhYVhQ3qUwV58uMklw/LJS34aOoYznZOYrGiHQvVnVhhnN1VLQiz7YTpWd9uH8DVoRn4mHf5DELc4sJWQwuuLG8gEYrSPjQca+zF21PruNDQjeNVjbjW3IX3Z5ZwaWQURQHWtT+C19hO/y1HiYVb5zDy5NtoWTgBc7CU5Shwjei/Tn2JrPSmB+c2cen+e5jeOIu+mcNYPnEFV598hJHl4zDz+kECd+viXdyiNz7Kc90cfS4ev4yrj7+NsZUTMBHiB8m7QxpHAOzErBztdo0Q6D/4JT10ju6lbOwuyqOWbcbtf46++i/h//lvg1gYpeOQVca/BaDLg+Un1/KFuzQrqQp9rQtYmzuPlsZhBOiBuelpeFigcWcZhivncXz0KrbGr2N9/ApmB05jbvgMRjoPI+Gth8NC79Zbh7Wes2jmcM/PoVHQwmGLhcZK4BmQ/rhq7xrG0vpx5UELAAXosqRQgDs0NqegLN6/eOSyOkYAHU/r8+oCblF79zDmCRtjKkbOiYcsaZJzspxRXozKHLx461Nza2q+XeCvQLwnTdsy4Mx9u5VDWMpr1V8E+gkmPxuqR9KmAL7P/fvI4nLR2/pjPDr2JfyHD6JoLbPQQzeznsw0GCvKPRrmm1vRX1sHj48jGQ51g2yIE6WtmG8ZRmW8DCF6PSNFNTjHofKZoQmcHZ7A0c4+nOylh9jWiULNi5qiQixMjKMoGOTIKoSF3j7UxOOojXEY3tmL0eo6pDiUT3m9GK2txxmOCK72juJs7xiOj8yhrbKFo7A0h65JfI1Q+gpHAMm+MfSxQyzi0Nzio4cjQKcHrgM9/GqiR6rme+lxOlyUm0NceYHooVfsNaFrqgM9s71wh+OsP3Z0btrIQD3mjqyhuKkPpgBHSqUpDK70YPncNFbPL1Cr6JjsR7A8iTy/HbaYB0PLk5jeWsTa+aPUMWxcOo2RlQWEymtgi5YgT0Z4LI+2sQEsnSIczq5i4dQils+sommoC+5UHHm+IA4x3CFCXZQvHiWhIXOzFrYteamnxH0TO+XOvik8JkwePPkOquu66XAkmEfaImEtdiRrl7dFu9t1TAkonDYvOkpKsdAnv6koJHzZ6ckPyBz6L4PTHNGcGOhEPR0gWdUhv+jVv9tN0d5lK968eJnyK/C2eAW2BiaQSFZydEE40k5dhFIRnbmxyk4c75/Hma5pnOudYbwz6KFT5KdH7mHdLHJ/jsAO0Ju2cqQWYPqG6powx1FgMCILD4JooIOx0Ua76ZigPU7gWOsgtrpHMd7SjThHfR6ffHgthq8RnhF6w90nr6OZjogrUAqT8sLl+zHBzHYfsePLF5FVAdr8wNxhHD53A+tnruEYnb7R5WMIFNfSdqSzjWJoYQNLJy9jZvMsVk9fxbHLdzG+cgyh0nrVGR9kZ5zHDsrGEYmZo4ZuMubbP/wlytkZOVQ558Pj+Rq8tr9AzPX76G74Ev7ff14k0H1s6+LB6+X8WwG6jQ1RPg9ppzfhcqUI4RKEQxVwa0k2InpMLCi3DGfsxSjzNKEx2ofmwhFUpwaQDrYiEWhCzEew0Mt3WGOs0BKU+9sYD4dPNCTNSkO1EuaZKZT90vA8SXh5OSpz4IFIEcGqry2XF0kC61C0WK1KMTxfCS9eusDeALaEk+tyXlanKJjT61fTJoxP7pM5clnCKF69TMmkS2rUCht5OSWdhMSzX/p2SYax8tKKnrIxT6l/s1qX/ivJl3Vq8rKFW3rcDuef4Mzs7+HvvkdPcunP0db8FyguNtETciDlcKPCG0CcXqtDlr5pfni0EBKsxxLWW4hGbnGy3OhlJfxhFNJTKonGESH4Q+wAwiH5IRk9Da/Gcg3TC3ZB41A4xiFyiHCQF2wpxh+l9+lmGIvmho/3VcZTaEsWoz5RgtJ4McL0yDU+r8ARxbfY8L4hXiobgYMNwxwrxSGCzEqQ2wl0u4K1PmXwUnHkKI3CRS/So8SOUgDPsjkk33RJsrFFE4QmbUs8epv8ECSGcIqjQQ6R5auM8n0VbyyBWEkZiuhZxUuqYOOopEC+R8POTrZB5kW+wZIorUa6sp7bWvjjJXCwEds4FDeLd8g6dAZYdkWlKKyqQnFNNaJFxexM2NHzGRYCcPtLiwS5jSAXybdpHAS43kFlxA6+uLgely/dw/nzt1HGEY6XHr20LzfzLBCVb4C8WGJPPgLVhRBHEPJNGQfrzOV00WZoDwS6z2VjnRM88i0Z2rBDXoi6pPykk9SB7hCgMx6Z6oqyHaQDbC/Mj3yyQub8ZfRuE8eEcEvSU62IlKIyQg+aDk6YtqYxDi9VSUgWsUP3yKc+nHGmI4RUNE0VwSttjW1LRvgpdu5V4XLUJqpotylyo1StfJO15h46BfLL0DyGKeC5QHkr66aG93L0x3SoTshoT/tI2pbAU4145Xm0wXRZPUqrW1FU2YRQogx2jgBkDt7ONIU5uo+kK2kvFSisaERhOeuBbLCSC/KlTPlVrzuQgi9SrOKa5ej+g49+hrKydqaFZez8JnyBP0Q89iW0NPwRDq/87/jnf1zBaC+dY3FCWK4yxfVbAbrxIkZeyjjZEBwsWLsYpYCelSNegXwKMmRLI2opoyoQslbAZy2nNyrTKUVwKS+chW+N0AAK2WtV0rMXELK3IoBtAuGPCXQJKz/YEaCrn+VzeGPMqwuEBcYC4ux5aLku0o/Fw2H6KblHZHjaco8h417ZigT0BuSNl5+vAnQ1AlHP96tfQMq3VQp4LL/qlO+c6Nf3Al2WrBkfvRJ5mAYCyyOfQM1HW9mf4P6VAG7eiuDo8QS6+gppSD4E7G4ELE5oNnryGstJvFd6Bh52Jn52nh4pKxqemXFZ6GHnmc2UiWmyczhtwyG7FWYCwUIVOB1Mk4NG6iSA7PTYnHDbeEzZPG56/xpMXqaLcmsaG6eH3h2PZU6fHYaMPORl3QHm7YAnhNfdQbzB7SGWmYl5tHGkIpBWH/5nuFeV/PGC/MzdSy/Sx3Lystzc4qXR4zvAepLOQuae7YSmfNBM7E2m15RNiD0TntKZ2OiB2h1JppeQZ7wWlo98k8Qm8/WEldi5+jk3bd4p0xNsA27jhS2vW+UZfJaEk6/uab6kOi/X5Vh930SJI0Ge179lJKNepskqU5r6Ch/5TnaMnc3o4CxuXnmIIXrqsWCxAqbGtqcxbVJ/L5OUi4NlYrFaaT+sO8JaQC4/9NFf1sk+69BhIdxoa6wPtcLFAPo21H0Uy4L5kqka+VyzLJ10iO2z/ORlo3oZq/ZpY6wD9aleu3xKwKsDnfUbZtq9kk+WryPziQ/1y0+Z/mFbEsDLnz1YWe4u5lU6ugIZsTtkRZmscpJylB8QRVV9yvsjB8vfLmHZUUt+PbQDD1mwX3mI5NvwshzTwa1ypGgfTspFgKuvJBLiIjmWTkZ+N+GinajRjoTjvkyJqnslT5FCDHCE0d0ziuGRWdy6+Qg3rj1CKt5A54edrvsAQpE/5/WDOH7ci3t3krh9tRelhW7mVeqADGJ5/VaAri+Jkq1UvHgXsuqCYsUYQ0AxRr+Vnp+5CEFLCfyUx0ov2CZeeQp2BfMYrPSW5LvBfqdM1Ujjkt5TAKZrN8xeLIGfQPyQyYWDBU591QvPGXA2AJ0NZhU/DVIkYbf3M+Fl37hHwG1oP7ALyA3vXF3bJ43ZkucJzAXeSgJzpllJoK6u7+nUFMQdlH1HLvlolkwzBBDkcW15Gq2ttejoaKXHUQOHjwbPe2WuTv45Rb5qZ8y16h9S0z1WeQkthiVTFmbC2WS1Mx1Opo1laSes6dXZPbIsVD5FKysk2KDt9PLo/csHuOTFmFy3a16CnV6Jxk7GI+lieIaxsDNxs9MQGDiYR6tAhs+Tj4IJZCw8tlkJF8rNxibfc9eXML6CaItulpN45vrLUZF46awXykZ7lfyJ97b9hU+WgXzkST4IJR6SjJZUg1XXueV96kuAjFe20nhVXAwnjVn2ZXpR/qBBPiYnjd8pMBJHh7CXF7geeoyalmI4jtwE/iqsLvlsrEh9oI51IC/GXASd2rI+ROl4BWYn1zA9voKiZDUCBJeX98jX+QRcao34y0QbEqDbLA4+S0ZykkeeZxnpMBGgy5y6bCWPFMtEfcuF9aLvSxnIPdwyf6qcCWs345IylvKXXznKfL2UtZSfPk0j90lZsi64lfCahGcYt5QH7c/JcpPfJai4GUbKW8paXhKKNy3xyedF1Ko3Spa8ilMpv1iXzlbZrdQnJfHK96J2gL6/dPvS3wkI1J1Ml/5MSYN8Wz/COtPr2MP27ibAXWzTol22kQlfUlyD9fUTOHnyktKpE5fQ2zXK0W0aGjsrL9tBOOhDfU05+nua0d1Rh4qSInZA8s9i0nkKR6R97/Dhs9RLgG5AiAVMgxYw6MuoZCpGz7CboPZa4gQ5hyHWQmj0yJ1WeuXy2VP10216PzZ6MwwnPbBawcB4JGOfNFOSLoGhLCM01qSLxy5g3IYi41bz15TsS+dknN+OS53fDXQD5AJtZ2Z/r9Q15Z3rUzbb8T1H20DPpO+Vge4SiNt2ySJeuniNarpCvERd8rJUllTJVuZkrQSNlVv5GzdLJqyD9WDnSMlqY6fMhiPDUTVyYDrU80UsR/kMq/4VREmPSA+jH0s6ZaSjG6ZaqkVDVuWQKU8ZdbmYJ/XPOVaBDEHKc3ZK7fMZ0sBc8l7B8KLYOF8u8UJ5j/HySeYs6XHqkmOOSjJfhHTKvkimG9ghOeXdg3wUSUYbMurgvQ5el62EcUkYCavOOVg2FDs3uS5fktTP61+VNM7Z6bmqYTbLQ6aB1FQQy0AkIFXnCThD6t+lVCfHeyjxVJV43q+FkYwXIxpOqW+Xy6dk5Zvm8jdmTnkOgfAqclIudtJuGU2xc3UzzfJSVMpGykvm0zV1zs2OkGKnvVeaIdqgxnBK9PI9PHZzK52CjMRE4v3LPP1eyQtrj5sdB+3VzVGim86D2+1Vx04+1wgn+zvKxMvniZQDwfOylQ5KSZ7HMpdRg0dJXvi+XG7KJfFkPU9Pu3RuejrUfuZYP5e5nkmzk+nVND9KSyvQ1dWL5uZWpJJFiISSrD926gS+l5z0ysiKnbF8B17/mqy8J2SbZoemvoUv7UW4ZPBBtatMu/+UesmUizxMlkQJyAXoMuUgMBBASK9F74Gg1uiBe630UGxJGhOHRJRV/geSQ1qrXT6iQ4hIHNLbSrzsoXf+7/DjZyYbigLzfYH+MaQgxAJWUzV7oP08SZiPC3RjFJENdNl/LtCVZy4gt9MjJly89Ly8NiWHrL2WpXrc2ikbZfHtSI7lvIRxUm6PWa3ZdnlMPDbBpeUznjzef4hhKNlSTs8hXtstJ2WnjDC65N7M/dv7eSpOuUfTDkLziA5wn5Jt1r43Sz6lN+D3vP5SBTyvIeT5GsKer1Jfebm0ryAk8j5f4Szp5/6S97yKGFb7GvUN6luvpLD2TW5Fsk95v4WIyPcaYv43EPW9jqj/dX2f24hXwn4NQeblZQq5v4JIRlGWT+w5imuGvvaxFPN+DVEq/BxFfBlxP+r7OtP/DaVYYPc2knVN9j+uot6vI2akaZ/87ZUKR8l9+8X3ymK+/K6/YD6+iWSYdcT8BNzMb+AAoZ6PUMBEWZQCQbP64Zub55yBAtj9+XBQzgC3Po6CDaCz89/lZH5KvXQOXUBsoUeuQ1kkMI8T5gQboS5A99Djc6vvm4vnKOvKY+wERPLDlrCac9P/QJbgIsT1/zkkhCn1B7b7Pvv5MqC4Hxg/CdAN7zx7umU/iGfr0wJdOqBXAjq9cpvbAV84gMKyNIoqgyitcVE2yooSqrjWiiKqMEtyLNckjKi82ooKqpz7ZUomqgCltbsl5/bT3nD7y8RnSfh8VHBbyW1lTd6+qqrWVU3VVB9Crajqxaqj6qsOoqnqdTRXvoaWl6mKqn4NzVRLzaurtfb1Z1W3z7naN6gDvOcQlfdKahXV5u9Sm6iuAB31ZrRzK/vtdSa1ba2VuA8wD2+8UC1Ua9UbaKPaXyaG/SRqo1pr+KxXkISTsmmrO5iR7GeOd53PHGdLwu09l6V2qoNl0knJ9mUywsl9+8WntN8zs9OW2Ze8tTccUnlrrn4djdXcsp6aWHf19RbUZlRDVVHlPF9KlWS2pTxXXB1U73OyGfFZ6SVA5/CAXrn6HnAG6PJdc32pGcFGoOtzghEl+WGInZJw+o8lwmq1gXzsXv8uuvxCjiDj8Et+7mz6DIC+o32g+KrKAvq+UPdk9AzQP94c+i6gi9SoYkfPAl3mzMVLd0ALBFBcXo6SyhJU1Bajsq4EVZRsK+pLaDi7JeeqRLxeva+KeC3NMM+qmuf3ar9wz6pQbavrUuqeWm5r65LPVY26nkYdt/W1htIZZZ/bkYQXyb3V9a8gPqeSqqhLPF+1GWWOK+uTzEdqtxr2HCulGbaI94qKnyPjuh5G1Vt96b6qbthPDN9QzOuF3C96rmqoWqal7nOUxC/P2e/5+6mqQdIsNqHbxY6NvETb9+yvaqqmrpB28OqS8HLffvEpveSZIslTTSPrgmHLa5N0XGhbtMk61k89r9VLOWW2Ula6faRRRlstZfhS2mEZbbe0ukyxY9s7F2Xx4tPoxUBX0xA60NUL0YzUsit63uqFk5p6EfGYku+ny/pfmabRPXPDOw9kRKC5CDB5IfeJp1z2Ql0H5jNQfFVlClVB3aVDPRvs0psqGccZmL8y0JkmBfMM0PW0Z2s/oMsqFw/Lx81rbuRb5GWlzF37+VxJK59PyVZ9FEgMZI/UFNK+oofgkhc0jEvFlyXj3H7KDvdc+VRY+fs3B9Mrq12eJ7ku4dSLONqBIf3fbZ6VvHyTeXsL0y9/+2b8yfOO6DTskfyhh/yxxyGHhoN2DQco2WbrgC0ju5fHXoblPaLMvc+Xn2EDvCfA+4N7JOdEfsqndJB1fcge5D1B3isK7ZFxfud6voh1VsD6lO+1v0jmV5Qsv1NL8Pa5li31Qj1LsmRPzu/37P0kac5nXcnadaO89P0ADmW2ovys/f0kYXWx/DLn8lnuBR9DEv5lz3mZ8lknkp9DbKevWzxKh2SUzWvyZz76QgPdnpWt8lj+ktFMGzNR8i9P+oqgnXae/Z5vu+1/Cr10Dl3/v0GCWjz1XeJ5ub4tJowQN+7TlzXREJRkn+eYaF2EWkbZz/o4MqC+V/uFfSVJgaqK0V/wZXvs+8kI86oVkZ2+7bRnAd64tktSRuqaTM/Iy9CsdKmOdicdhuTzAeoPjzPH+/0ARSlz/bMXy5Bb9VzVabxM7FyYHll9oFZlZKSWyO2RelHL8MZnErK1Y1fiJOzI+D9ck0g1LNk+TyxnJXayLPfdYjxqqjBLcs7OjoOQNsmWINcl+/LiXuKSePUGrYvnpD5Vup59hnFt57rkS2xh/3x/Esl3hnRHYP/rhtR7pSwZ8Nmr/e4VSbol/bqMPGYf623BaBM713Yky1v10b1IRviZfXWdcWw7RS/Rrmd/csmyY6nDAqv8e5mGAgJdtV2mSf1WZI922nAmzB5ttxspR+M8n/NJ9VKg6w/ZXYGGng0v5wRMBpzk2NDesL+jkkLeJ6/P06etgFfVLuA/J42q0e/RfuH+xSvTAAzt1IHegAwZDUn/DcCrSgfA9ohqW+JZSePNkgrPhk6g65J9kcRhxEfPbJfYEWQkyzd34to5v6Msb061w0+m7LJSyoKIaL97RLsdtudrv3tFetl/Ou3AeB8Z119B+8X9SbRTrxQ7bOP8dtt8kbLKZrsO9khd3+/eV9QrAn3PuZdJGtR+53PK6Xky7OxVtV8cz9E22D+19kJdzkn8MgLNVvYz9+kIPpY+h7b0Ccrwk2inDL642i/fr6RsW87WfmE/hl4OdNFn8KCccvoXLeX1y5xollSDplelphoNyfEL7vm4+jTQyOlzkQL57ygTXw3oOeX0v7o+CdBVw99zz8dVDui/e8r2qH/HwJ4D+m9YxkugnP6lSeC8R9uwFYhnK+ue/e77OMoB/XdTOaDnlFNOOeX0eSoH9JxyyimnL4hyQM8pp5xy+oIoB/Sccsoppy+IckDPKaeccvqCKAf0nHLKKacviHJAzymnnHL6gigH9JxyyimnL4hyQM8pp5xy+oIoB/Sccsoppy+IckDPKaeccvqCKAf0nHLKKacviHJAzymnnHL6gigH9JxyyimnL4hyQM8pp5xy+oIoB/RPLf0b2Pqfwmb/16Icyx8U5P6kYLeMb3zv1X5h/9eW/ld2+197nuSPmcX+7BntFyan5ylji062XSlHSv0xuWrf+4X/TcmnWGJzeNX2RW3m5UCXD7irP5J9VRn3fEzt9+zPQEajyNZ+4T6RnCFWeoiVHoKDRqD/O73s68d2p0Z5GIaVofKpl5GF17O1XXbbf5BgKPufcF4mhjfieSXtycuriPdZ9sZB7VvGmWs7YY3wPsaR+TeebemNaN9n7qdn4n2RXhaWZbdLYX2rypT725LjrDR85tL/o1L++V/tszx07Rd2f0lY+Ud8B/fddsqmnzfznFx7po4y2u2IsEyeZ3+qvHjPPpJnyLNVerOVecarK/v5z5FRd/ven9F2/RqSc8+RAUjaorRVu0tvy06Wv4tbF/PuoLKh/ryy/OwljqGXz9coDzvpDNSl3ah07w7/YqCrDLMwXKxMyvIS6eEkPOXmvXvl2nsuE1YV6quK4V9RAh8xsr2SClAeDI0+Wx+nF1b3s/E7nBFWfJgV74ObBuDmvpsAkGOXywkn5XAR6i5WAPNvZhmZXOFtmSkpO6NjEMm+jfHYGLeVsmRJjuW8ITnWw0g8elyvIlWve/L0PCmjZZqejYfnafzZ8NkW61WXEVb25TyB7vJmyQC8GOc+dfjMOUk7y4dx2pjfF8sIx7LadV6ODcVYjvGMEpltNCPjWpTPFKhLevSG/7wG9cnlQ4HdgwI2WisdAauTZWM8R5XNfvfsltRBPuvDY/cjYKOs4mn6aWfsKFT96GWtS49T9z6DtGfKzn07y1ekyjnbxrLty6hb1gdlZjvOZ3s+ILbA40/0D/YSdtv2X016R5NtGyL9vAqTXefqeCdtuuSZRn16KTpgtEkX8+J2sxy576V9ao6IatPZUBe26MrYe3ZePjNJHXlZNwJzHeiy1aHO9G576zv3vBzorECrVKT7VcTKVmJGPczkXrGgdo5Z+AwrBmH7GHAxKuxVZGa8Bay0vVJAJ8Ade/SqQJdwDsatwzyqIK65NMqly+miMdjhcVspG5xuF2xuNlAaSQHznOeOKOVTJkJFGooA3EFJJ2HAXEBice2WdRs2uuRYv6bH86r6WEAXg+U90vkY2gV0BWlDciznpcFLGOOZbPhyze0jADTWv1dtzQJ1A15ZDdKQZc+xKhvGJ7Izz3aWoZLsZx8rMYyScS1zrMLGMkpSqYzSarsb8ElKwE6oMX36v/hnQPuZAV1g60UBR3P5LjfjdrNcCHexGZbpqwJdoH2I4X0Eepwwj1EOlnkB7c7M9GZLgK7DnE4E5SDERTY7yzYj3dZiartjX1KnUrcZ0Z5NnpBqV2Y7PVxet/OcXbgh/Ngnnc+I4RRgt23/1bRtF9twl/3M9WfsQ87thbo8V4BOQLL92ljm4nx5aJtejwav240A68DP/GuOKD11xqlsQBxFkc4YM/PweQHdpgCeDXRdcm5nCmbnnlcCuqpIDyv0RRKgs2J1MdPZIKfMGe2c+5cLdGnYAl67K0EDSNMbT8BHaPvdX0c48OeIR/8MifhfIhT6JrxaAXt8N41KjF88mTAOeqJKee4oTDQ2KV8xQgG6SDdYHejWvUCnsoEuygZ6NnT3k94oM0B/xQaXDfTtkQXzYiacBcw2Hz1KLyHkccLmpYF5CRCBiITJ3Cf7JnbozgBHLyHmz0fP0e3htRcD/RmJp6XKPquxbjfafc4ZQFfbDGzkeF+giwTgumfq8MTgcAvM5R55pnQwAlgBlz7P+srQepGkfAkOJ+Ul1FOEcprtI6qFeU7q6dWAbiIADrI8/QR6EeFTzDy4xOalLhhnNtAlTt0z34G58tBtrJttoOsjFNnqdig2xnal6j4jtvc8LQQnn19iDSPMMnOzrJyqnvZP5zNiuI8LdH3EJIDWbcHjSyqpUZeEyZw37MCWqX9bRh5fHN5gkvUbV+FstEWb+wA8gW8gmqCiX0fQ9y2EPA4EHSl47Sl66YyL5Sqj1QKmuYBbA+qfH9AND11A7t7WpwK67qFnwE1ZCSLRLqAr7YV6tgTiItnXw+hAl4rfAboMadWwNjsdu5Rp2K+gTwp0ub67giQ92Wli/DR0i6uI6a8khMtY8RakQv8Kk2NfxsnjB3D6jIb2rgMIBfNo4PTm3WmWYQwFLKc8wvwQlU+ZWa5WBQvCXERjVJ0FG6NdgC0Az5I9IwevKW1fo1GqenpW5iypcwz3sYAu4j3ZQDcR5ibpxJIRVLVWIFVFLybuQEVTBSqbauEM6gDfCU94+MNoHxhC/+Qk70vSBghywsYqUp4SbSPjAYlnvrNviOmQNAssGKc00o8nvTHrjdwozwQlUBcRYGLvHHr7IxHUNjWirLoKdnprxRVVqKpvgpt5cGrMC/OmD9l3l9XHlmpjtD8tgCTbxliiHBfqe3G9eQjnmkdQlqzgdeZdPUfayfMlnmI+6yXGvPaVNWG8oRuhcJIdrOQ7U86ZsrbLM1neDt7nIMgN2QXsClwCRmOkQrGshAPKwWNdinSgB3HQF0LUFsTZoi4MlLUixLJ1q7gkzXze3jzvFfP2cYAu9W9m/BZJM5+l+VPo6Z9C39As3AJ1FWbvfWIzoiDrL4qO7hFMzKwilmiDW6tg+Xvh8H8ZTd1fwdEzdqxufg19vd9ARDuIsKMcfsrDcnCyc5OpTwH5bwLoMq2yG+iuDNDZAX0SoCvvRIGDmXEn4GQDcLmTaivnHNtbET2abemwEQmABN7SmFxSKAyre0e8JuBiryfeggwDs4eE+6YpC9gvkwI687CtbKBnJBDPllwzXiLpjVUv1N2GyQbEMslneZhcFfROqhB3H0Rvw/+G779XgPeelOHW1Tb0dEcQCvjgZn5d7kLd28sA3ICtlR2beO8OysXyEY/MKUZHuWiAIjfrwJORRuMUeUUsN9nq5+R6kM/aLQcl7yrEk1JSz2WjlDyqPBnlJVB4XpkzLBvzbqB7OdR2oKyhBCcur2FwtgnxcifmNsZx8vIJRIqSfJ544TR6Pl86AE84giNnTuPy3ZtIlJXQS2e5avR2KauH9c5hr0w1mJS0jPgcAkg/56RczINM17DjVw6CTN94VDwi1UlsS44lHG1LHAg6HLqkDsQrE5uUjpBwV8e0AXpqFpcF5XVFOHv1GJaPzMAVcGBmaRYnz59BqrQCLgLMzmdLePVeSNnJi2U4Kvs5K+LJ+ni+N1yCj0ZW8OHUYVzvncaZgTlUlNSrtiPTKdmeum6vhKBMk2TqUM45mKZi5u9Y/zQuL20hVVgKR4A2xPJ3ilgmsvXQY/cwPhef66RH7zAkgGf9igznQYl2Ix6u2KmDeXaxTpzSllgOBd4AKq0h/LpjFSe6phD3xtVLWTvj021K73BUh8y29EwZMP/PBTrToZR1Tl5Smxm/2cZ0aHGEoqU4efYGzl++C1+IThbLQmCv7Nq4h+3DkHjyR09eweOn30VZxRCBXsNyScHpPYjO/iAuXanD/Te/ifffT6C2xIygtQIBZw3LLMZ869Nv8s7KzLj0RQ1S/ln5+cyU7aGLBOifcMrFoipDhmQRAiVBcBTC7y6Gz1kEHz1TOZatSHOkCZc0tykeFyLgKYE/E0bOuzlckcJ12mKI2Ko4hCnl8IVDGGcKGoe5HukUpJII8gI2XJFJhuHMkK6stLHwpIJ1CDFOGRbT01XntgtXlwH0fBquyAC6AFuUx/2DNEzRIe4foFG9QeVRcl1/YcJ0ZKYEsg1R5g8PaYzXnYLLXoiU8ys4NvNl/PpHDqxNJWkIKcSCUfi1JEL2OGK2KEI0ggjLNMH7k0xbkM+QhuUguJwyVKaXFuRzoqykFONPM01hu6YUs3uRZp2k5V4acwkbcpoGHee5QuY1yrT5WME+3h9m2DiVsPkQZxwhSl70iHcmc9wCIQvD5vE5B70cNYSL2Cg54uK9ep4zZS2SfaZFjdIo3dOPENYsD68dVS2lePjBZcxtdqOw1oUj5xbx8P17SFawYXkZhsNxC/Nl0TS4wn566F3onxhEMMWG4WO5ah7GxfrWXBy92GH2OWEJuGDyOZCvWSk78twaRzVm7hdwa4HZ7+S+XCd8A1Yem2FiWuS8yWdnXmzcd8AWkuu0Jy8lafCxA2Z+TQS8SU0VyRQQHQp6sAr+HHFY+UyLlo/atmI8ePcyO6dVuEJmHDm9gftvPURVYxPD8V6GtxJm8nJfhxHLKLvcsqRs2M74lXZDXfYFfOk8D85WduMfFs/gWH0XGiKFKI6XcETAtsNyd7BuPLRDD+tMY3gfgRVg25T5XSfrX0DsZlwh1l+ZRcN0WQMWW3sRjdGBYsep2V1sjx7al4YobS3GuGK0vRC3PrsHbpubYHczH7RDX4RxB+h1B5CwhxGn3QYIcy/LzUMb0hgmQvtJMD8pPjPIEUurJYh/aF3GiZ4JRIN0YGhndobLp60dlHIXG9MExKwT3qfyr9qYLt17zgK35Jnet1OLsY3r7VvaustLVvBYtW+WgYflE4mX4/S5mxmgi+NER5LS45GRBjvwzL50Ti62yY6eSUzNHmVnUMd0FjMMHQzCOhRKorw4irmlP8S//7sKTPeHELQlEXCxLph3WQChdxCUpDej59X9p5Mxhy6rXHSwG9JhLi9Gd2xJtC/QxchMVgZmhQa8hagsakNxpAExTyUiznJEXOVI+2tRV9yjtkFbCRJaFSqTbWhmj9ddP4WuuklUJDoQdVchYC+F3RZhuFJ0hWdR5e9CMlCH2tJetNYNo6aiCz4trYCeTw8sTzwxGp546aoxZKVNKrisqgXpkjqUVDSjtWMYLR1DKCptUEMvqXRV4Kxw6T1NNCgD5IbEyPJptJaiUpgqKqkq2MqrkV9ZC3NlPeypckKGAGOBWZgOMw1zF9BZeQLGg5qbgCGQWcBJ+7/F+ZU/x08+sGKwzceG44GHUNUYT5klhCGtGA1aCt3BQsyna7Ba1oihZDmKCBo78+xlJ1YiUxLhNEbTFVirasZaWT3a2CmUOt0oY4Mc8MUxXVSNwUQZVgrrMRwtQ1u4EHNF9ehIlyNEgGr0MFNWF1poZEOxMsxUNGGktB5N0WIEpfNgfmRJpYWN9xvi/bZ0ID67BK2hRUFNza0KnIwyl8aW8WTFq92eeuMQ1eqzobguiUcfXMHESivSNS4cPj2De+/cItDTBDqNzx9CSW09KptF1ajtqFNevRZlWXq9hLgL+QS5JeRCpDKOmt46NI+0oravDsn6OKxROw54nHAk7UjUh5FuLEFNXw1CFRFEq2SfZdgSR0HQQmhYYSJ8A+VBlLWXoWm4WcUTrYmiIMB6DKZY7wluNUTKY6jtakXLQC/qOtuQrCyHnR2AyWuiDqG0KYGrj05i7dQ0HMECHDl7GFfuXkO6ooK2yREBOwQBuo2QU3OzAvV9wK7bL0eehJiZHaxsDTuSrcnmRcCfwEigDN/rW8Z/mj2Jo9VtGC2vR0txLb3JQsIxynbnQ0sijXp/jEqjk/XfX9mOrso2ROilegnEkngxOourMZIswyRteLCwnO2XHSnt1GuzI8o6L7J50BaIY7ikGmO09YHSKjQHYwhb7Rw9O+i9u9FUWomWQAp9riQWE3VYKm3GQEktihjOTzuNMP9lVg+GvPR0Y1WYqGzCcroO/9C7jqN9EwiF2QaVLbnxTda/ub0Hibkl+OoaUUA7VkBXEM+UmVIG6KIMMAXK4k2LF54orEZjaz+6+yfR3DaIeKpKXfMG02r//KW7uHTtAeqaehQTOnvHUV7dqjx2mSd3agmUlLegtqEXDc2DDDOG+qYheAOlfJa8+JVpuLAaEfscVvT0fgl//6siHJ4MstNzws96dosdsh7UajSm09A20LPq/bOR2Ak7RiWOZDMQ3/HMRa8AdJHJysDWAArjtdiYPYuhxjkUeero9VWiyF2H4YZ5rAydQH28mz11FTrLx7A5fh6bExexMXYBZxbvYG34PGqjffROa+jFxlGsNeNc22MsNZ/FTM8WDs9cwNrMWUwMriEcKFHgzKeXlOd20nsKcmgrPa0U2E4jCUSKsb55FlvHL2LrxCVsHr2AUxxuybahuQ8aDdFYGSEQstPztDMem1e8Sh3w4o1bEoUoGhtH5doqKg+vo27tMCrXN1F/5ATKBiZhD7Lhc2hjVisONOXdGi/VZO5UvPZ8D71Ej43POUQP+Y9wfv7f4VdvOzHUxl5dveAiYAnsVnpR95pGcL5tGJd7RnG9axhvjs7hzfF5jJZUwBP00AtyYqK4Ape7BnFmcATXhsfwzvAUrvT2ozcaQZ3dhuPFVXhrdBY3ekfw0fACno4u4lz3MN7m/pWRaTSkUoS2E13eMC7Vd+J69yjO9DCuoWk87BxHf6KEjdFLT44wsjvxF+wAQptbaH7yFsqWV+EMyvSD3tCkvFVHyq2DnZKDHamdsirRmyfQLfSeI8VB3HrzInrG6+FLmTCxPIAr9y4iXBjlCMCmvPTRuTksbC5h7vAMgb+Kw6eWECqkt0avXZWh34Z0czGmTkxi5dISVi4uYv3qCpYuTCHZGsMb9NZTbREsnBvF0vkVHL6+iLkzk5g9tYLNm3M8nkaghiOu6EGEar0YPzrIe2cZfgprV+Ywe6YX6bYkTDGOxAjzVHMUi2dGsHp+A3PHlrF4fIVaRWF9EUz+Ahx0v4F4dQinb21hdKUf1kABlo4u4fil0/DFomr6R70M9tAmFNB1GXB6pmHzWECffd2AuaikqAZnmobx9/Nn8E/L53B9YBpnWM+LXaOIRukwOeOoZeO9RTBerGnDpbZRXBpdxamRZaz3z6CM3m+I8XbVNmGtm/bT0Y/bw5O4QBtKh/z0rB0IOewoJky72SFc6hjEXdrLhZ5B3BiawNPuEfREYvAxXCnr9VzvMK51jeBS9xg1jgfjy3hnag3jNQ0Is2MosbkwGkrhcdc4vt8/h4t9Y3h7dAn/c/E8jo5OQ4uEOeKiQ0ZH5WvxBMLHT6L58ZuoXlpGvt3BvO8PdPG8xSGTl5S6Rx1WTloRRxsbR8/jzPlbOHLsoppeWVo9gZoGOoJ0kCKJcly8ch+Pn35HhVFhL9zC2Yt3FNydngTjKUIP07qyfg4bW1fYATykV38X6eJG9RyZPpP3Im7af8BpxVD/l/CPvy7BkQkLy/YbCNAG3Wzrdpn2YNqdTKMrI5me0uuVyq73z0JSTtwKwHdLh/3e8PsDnZHI1mYLIhmqxOnlqzgyeg5VPnphVnpZwQ6cnrmGIyPnUB/uQrGjDr1lkzTA4xitW0ZfOQuu9yxubb6HycYjKHI0w2VLoDLQhacTP8edhY8I/UuY6N5AV8MUGip7aXRJBckCl1st3dLCCQSihepttEDUSFOUlXflxiPcvv8OFpaPoY2GNzA8h5t338LhI+d4vUINxeQlmkDITcPTImkOm5MEkcz9BnGIFVcQZe/e3gHf8BB8o8MIj4zCPzKO6PgMwi29sPhlCoINl43XSjg7OCx3sXNwatKTs+Lo7RbQmzF5X6MX8CeoSfw+7m3+W/z6qYaBljBCmh9+PkfjcLSbBvWdoSW8v7CJ4939GC0uxeHaRvx4YQOXO/uQSIaQcDkwVliMLTaamcpKzJWU4EZTK76/tISNhhrUOS24WFaDH80s42Z7L95vH8HPV4/jet8o7jb14sPlDcxWc9Tk8eBifRu+MzyLs3VtGEoXY628Dr/uW8RVejYVfhohh9cmiw1/yY7KN72Ihks3UTg6BQe9KTFqA05S5rKyw8l8u+jZOv1JetwJBXR9ftwFTzSAYxeOoa6jGja/CS19zVg5tgZfPIRDBLqJZVTd0oymnmY099Vj9cQc7r19FUU1RTrQZeokYEFxewl617rQMFmNyqESdC614Pw7R3muDdZ0EJXDaVz+4CjGCf2RY124+O5JgnoZk2c6ef4IaseqkRd/DQOb7Tj56DC6V5pQ2kdvdrIIJx6PY/7iMDzlXhyKmtC/Xo9b3z6C0c0xVHRWobq7Bn2z/UjWJum9W/Et+wF4034sHF9CXW8DIW9D11g/5o+swRUO0kZlHl+8dHpr9NKNF6QK2ns8dNkXp8Tti8HjjysbkjDqXY147FQiXor50lZ8b2ITfzV/HEust8GqBnRwZBXwVyNsj6GdzsHPRybxvbF5XB+axTKdg4HqdrRzpFfMeomxvupSJegqq+Qorhx3h8bxdHEV9bEIvHaOWpx2VNmcONfUiY8ml3CmrgVLhaU4Sdv4+8E5XOrsRjzoRhs7qg/obPxy5Tg2+4fQV1mDFdrT38wdxTW2jVKnC1308m+19OEHc4dxrrET40UVuEIb/Gd2RpujE7QJOk4cGcgU1jforQfm11BPGyseGUOe1cb2SYeC5ZINdPGO3bQx8bqNKRWZB/ezs1rdOI07D97D9NwGmtoGMDS2iFt338bmsQsIcxQaYJgrNx7jrXd/oJjQ3D6IwZF53OU9p87dRChazjpIoKyyk4CfQkf3DE6cvoO33/sxz7Xw2dKZkBdqSkmmQm3o6/gS/vOvwzi/9qeoKPrXiMUPwO11E6RuOJl2N0dNHkq2zs8T6JQOdJl+2a39wr7wpaidQPc5UhhrX8SllXvoLh7jkK0Og9VzuLL2EMO1CyhxNapzNb4OtCaG0Vc2i9HaVSx3n8WDE9/F0ZFrqPH30KjSCujvzPwVrk+/S2OdRGGgEWFPuZpHlzl0mdYQL10k3rkWSKgGsBfoV1l5x08RCuy5xQjEKz9++qqqVBlmGVMudoLHKXHI8iQOM+XFmAK6y483COjXCovw1bJSfKW8FN8qK8fX2Bi+WV6DgnSlmu9TP/DIAN3J8NIot9PDRpwnjTn4FXR2fBkPTn8N/8d3TPjOXQdaqzSECDwD6J3uGN7tn8XNsVnUJxII2cwEr4Z36UG/Te+mIhVFkN5uiceFds2H6WgCmyXsuAj0XyytsgH3o9rvxIXSGvxwYhEbqVKcj1Xgoyl6qxUNOBIpwYeLh3GkoRkT9M5/wDDfHpzGJhurAH2anvmPO+mljy+gOV0Kj0ODmQ3rdYLdnKxGqL4PLg7TrW5NwUnyJxIjFRgZQHcRHA5KvHQzr5vYqVm9AVQ1NyMoq1Y4tI8UFaKsvl6tcjHLC0t6fHa/H46gC+6IHYPTnbj3zlWUNZTBIlMumpMeugWOlAOx5iBS7RFUDBahi0C/9P4xLF6aQqC6EDWjRbj20XFeL0TFQAJn3txC1VADR1NBnHqyxPAdcFdYceTOMo7dX1Xhi3uiVAhH74/i/FtHEWlI4mDEgo75alx7bwPzp+fRMNCIwgZ6eeURFPgsyNNs+JbVpObnUzU10JivAnaSoaIiFNXWMc3ynoflxrISoNtkHt2pT6nsbT9KAnSOcATmuj0bU4K602G2+9UwX14qXuucxLsTa6jj6DBsdyMsDddZAp89glaO9H4xNo1Hk7Qh2kaY7cPPOvCzjsIESZTPiXIUGWSZVxE6Z1o78fbMElqDIfgsBfQu7WilTX57chk/4MhuqbAM8wT/4XQZftE7iTfnF1EUD6CBeftodB4/HFtGXTSOCDvkGtrLT3tn8ObCGto4iptnen8+exjX2vtRyQ6gkB1FH/Pxd+OHscpOwB+WtqfRflw4REhaCxsQauiDgw5a/h6gG7YmZSTeuLRl8dLlXZi8+IylKvHg8Yf0ui9wdF6yDX15qfngyYcorWhW0ypXbz5WXEhytCPz7KFYqfLin77zfYZpYVnTkdEKCeUS3l+C8alNXvsRyqsMoOsSoIfoXFUV/x5+8u1v4BcffR3XrthQ35QHb4DeONPtIsDdbsJcSbz0MOysA9WZ72cDn0I6zPfXfuFfCHSHjRm0JVGT4lBv+QFWOk+ilnBeHTyLY7M3UBXqQtxag5S1Du3JUaz3ncOJ8escBl7Acs853Nh4FycmbqEhOsherxRVwW48nf8ZtnpuoszfyWFgJbyOQjjpgch6WHmmMeeo5hkF4lJIWQUlL0Ck4taPnEWysIYVxEaixbG0dkJ57Q30HGTuTYAuq0nEKxdZMt65zKEfZMdxKBBFrLcPxXOzKFlcRPXiMsoXV7hdR2nvGJzhFJ8rc+fipcvwWpY7yYsZfXWEvBQtYGN2hExo68jHvbNW/NPPivDubS+aygkAt08B3ccwHTTQNwdncWJwBKkIy9RhRQUbwmMa+YdsTNWJGOJuB7oI+42GJpymt3SitR2nGlvwk4kF3BsdR1UkgPNVzfj+7Dpm4yU4Gi7FexwGL5bVYz1agffnN3CMntQcRzR/PbeJH0+s4uLAGI51DTC+AdzmMP4Ivbaq4jJ42ck42VHlsxze0JJ4zZsmyGTkQfhmAX2nsdGQWcYOlrWdsnHfSi9KXxLJhsdy1VedyGoSEetRjilZxSMrS2StuivkxNB0N+69dQWldexANIKQXo8l4EBhUyGmjg1h8tggBlY7MHy4Gxff2sTm9QUEq9KoGynErY9OIlQTRFl3AuefnERZVxWKOvw49WCF9/SpqZST94/g8tunMXd6DLPU1PEhxjGLtUub8JeX43WWe7A8hMGlNqydXcORC0eweW4D0+szSFYV0bN045DTjQN2Dw4SPHmEdQElZSUqoEyUvtySDYt5N5Yv6ksLRWKvOzarOkaZtmI5iidqOBzKC+V1Wd6XNvlxtmsKj6Y3UUqgawS6m89/w51W4Vt8YfwtQXt1cIxAkvbhgY3XXRx++9lWAuxQArRTN+u1lNeOt3ThbXrGzRx1BawWuDxO9HLU+8PFI/jx1DoudPSrqRnZvjkyg3OTk0hxVBVnuCeTC3jaPYEaOgcpxlVj8eCDtnE8nFtFRzCKVS2B/7B1ARs1LQiwvGIOF1rNHvyCQF/uHUSInYiHHZ7Mxxew/l/T0srG8tl+ZF5dvadhmewAXebLCUnaluGhG2VUUtGER08/wszCEZ6nDbItmax+5a0/fus7qGvsQTBaigtX7qtplmiyQr1nk7j6h2fw4Xd/hopqjvIIdLsrzvZL3nhSGB5fxZO3fqCuGctYpY5kibGMZkoSv4cPnxTgP/y0FFcvVaCyysc4JV1sDwS4QNyQrLmXJaC/80C325lgW4q9dC1WCetLMw8w3XgEJ5fvY6h9gx5BI6KOepR5O7DefQZXp+9jofko2lMTaE9P4fTsXRyfvIW6CCvZUYH6KI1n+UfY7L2GInr0QVslDbeQRhkn0AlKZeQ7jUGtCMjISJN46NduPVHDrSIOST3sseXFyJHjF3Dt9hNU13coA1EeEAvYTKMxs8GJZP5cfvovjVReikYaW1E0NIJSAeboFCqoytEZFLb00MOkJ8pw2z964b3KAOmdqHXBlFVewLKS/dEA6krewM3TXvzkgxIMtSU58gioOXSfS0MTDfnmwAS2BocIdJ532VDBIfsDGuMH/VOoSkZR5XHjfEc37vePYL6iEl2hMMbZeH7UPYYn/WP02vy4zNHHRzOHMZIowyoh/mh6HZOVTZjlkPItekybHKr3BuP46ewmvj+0gIXaZkwVVmKKXs5gUZV62RVno9YIXTuBcUi8S3r41ppmmOJFai20LEvbC3QFIekkOdIQ2USSd4G6vCDldVkKKXDf/rWwlDvLX36MYpWlXpqfoyU3hqa6cffNSyirK2fZ8To9eI3lt3hsAWfubKFtvAaRKg/itRqOXuco48oMgqUJ1A8m8fD7Z5Cqj6O8I40LD0+juqsWZe0xnLm3iZGVQSTrYzh1+xjO3T/JeBpR21eJqq5yVHdXoLy9CdZQknmmNxXh6KnQh3RNIVoH2jC+OIEbj25h6cg6/PEE61XsReyGeRJPUexoWzq4Vf3zup3xxZLlqKptI0zKVHkZsNIdkkx7UvtyTqTDXBfLm9dT5gDO9c7hyfxxFIdS7PQJZ0I6z81OlOFb6N3/9Rg76b5xeDgqsqrVDhw5Euga7/cS6vIzdSdHlYV2DZstvXi8sEm74UjXbmda7Ywjho8Wt/Dh+ApWKxsxnirDeKwYM4Xl6CouQUhzsVNw4AE9+0c9E6ig3cYZVyWB/rR5FA/mD6PJH8WkL4W/PXwe55t6UcI6rLBq6DP7CPRNrPUOI+4LcXTBemUHk8dO4TUpl9pWeEsqYWVHqV70sZwMCcwV1GlPDsJVfzHKciTUi8saCd7vYWX9NL3ztJoPt9P+VtZP0XP/gOXegTC98bMXb+Pi1fsK6FLGEtfc0hG888EPUVzeQG+ftkaeCdTlx3hDHIE8fvoDlFW26+dkGTXTIKtzfA4LWpu+hF/+oBJXj1aivCgIP8tO5vXl/ZyAW5YDG5IPeKmPeBl1/RlrP5iL9gv7AqDTKO1RNvxCGkQV+ioWcWPpLVxbfgsn1x6hvHgEHmctgq5GVEcGcHnuPu5M3cdE+RK99QlMNB3B9c33cGL6DmrCA4gwbENsEPeXPsRKzwWkvG3wK6AX03DZK4uXzqGl+pWaFJqqgB2oG+mKxMtw5cZDXL7+gJUyh9qGTnT0jOLm3TfptZ/hEE0qNJMHbvX11s9KrX6hwRbQQE301i2sMBNhWMCGY+awWKCkP1O8oZ3nbzdSaZTywyJPMZw06rD2NRxeOICf/7AYE31pNYeu0agD9Eiq2QBPcyh6dGAQqaCPDc+Kcg7jbzX14Ck7kNKiBGp8PtyhB/2oaxhjTEc/h3cnqurxj/SmPhycZKfgxfWqVnwws46+VDmmCfQrU6voqWpAf6QY96fX1NxrSSCI230T+N7YCpaqWzAcKMSwlsJYsgatLJsIPSbx6qxWNxtbCFULy2g/eRrlAyPwE3jOrIYmBq7DXPJKY87IKpBmwzNknFcApNQxy0cXOwKXePUcqmaAfufJRZTXVtDjZ32znMKpOC7euoDT14+gvCWBRJUXbSNVuPZkE1sXZxAuiaNpMIU3v38WpY0pVHcU49L9s6jrqkdlWxEu3DuJ0aVheFMezB+Zxvk7Z9Ay2IhUTZxedwIVLRUoa6qGhaMERyiA5r5Oqg3FtWVIVRSiktduPb6Ls1evIFpYorxuYwmsygPt0dC2w5EBs+ZPYmxyGZev3SdANtXUigH0bagbtqOUuX9bhAEVK/DhVNcMHs8cR2EorerIZ6OcMXrfQTRHi/HR9BFsdI/SUxRvUFZbCMD96kWeh8+RrUA+btaw0tSHe0tHUcEO3Omip+xyIm3TcL5nHB8uHsV6Ywe6mNYe1t8SR70DyWIELRYUWRx4e2oZD3onkKTTI0sUUxYNjxpHcH+eHUQkTajH8dHUJj4aWVWrraaDpTiRrMffzp4k0EeRJsTT8i0ZaXuRJJIjE+g6eRZtk3OwMQ2yyiUb6IbUj7qMMqME6oEw6/rqQ8L6EZrbRlBe1Y62rjGO0p/g5JlrakomECmkd36Dnvy30dPPdBdVo7l9ADfvvKnO+8OFMDE9sm5dQZnlOTy2pIBeUt5B3rATp+T5TubX68hHd/eX8OtfVmNhiB2i206vn4yg3UtHL46elL0umRYjH56p589O+8FctF/YFwLd6mCv5CiiodSgJjSIM6N38PD49zE5ch6+cBszKIvtG1BID32t5wzuLD/Fuak7ODp2HUcmruPi2ptYHbmMykg/Eu5mVAV7cX7qHsZbthD1NEOzVcBDoLvsKQKdwykD6vJDIwPoe4AajpXg0rV7uPfoXZy/dBunzl5jZd/FybNX0djaywYl398Qg9e1O0+7Jb+sy5bx8a7tHxbx3L6SawpccZjpqcpP3r3ef4fNw3+JH/zQj8HeAPwEtnwkKUQIlLFhrA8MYb57AGGfeMdOjmw0HG/sxaWROQSKC9WqmLXGbjweXsQFGuypvlGcGxrDTwjqhxwSV/oDOEYP/d7sGpoSJeiNlGJrdAH15bVopMGeG5nHGD3tgEdDT7oM1+j53+T1C10TuNA9hbMD8xioaWMHzMbDRmWjV2VmZ9a+uYWlh4/QtbCKULSIHpBAfL/GJsNlHdQG7Azg6V7sjuRHF8ZHw2zK+2H9Euiymmdkugd3HhPoNRVweVnnGqEYCmFxfRHX75/H4ZNzWD8xg2PnF3DpziaOnltErDiBpu5C3HpyFMXVEdS1leHizdNo6mpCeX0Jzl8/g9HZYbhDLlQ1VmD16AqOndvCytYK1o6tYev0FnpH+tmhaPCE/NwfxNrRTRw+voXFw4QSPfNrd29ienEZwZh8zyVjPwrg+0nsShSivaUwu3hEDe1v3HkCH73rFwP9WUnjjJh8ONwyhivDa4ixk5Af+/isfo5i6SywLdTHynBzeBnTLf18pqys4GiKIJFvtTgp+Ym/SFZAhE0aZhp6cZXgLgwn4fH44KLnrlmdqONI7PToLO7Q2z7bO44znSN42D+LNY5sE7xebnLiPu3mUtcoYrQFD+EbM3txtrYPZ2hjpVE6K/TAF+u68HR6E29OHKatzeF61xTeHV3HaHsfr4cRZdsN0Bac0RRa1zew9uARhhbXmQ5J486UyzNltau85HwErR2jOH3+jlqZcuwkuXLlEY9vqWWMskhBOtETpy/jzoO3FQfWNk9xFP9IcaK1c1DZrzhxUqfG/tjkCj3/H6O0opujhjSfJfUeZlnSRhxvsNP4Ev76rxKYHXHRyXmNo0835Edy+mcU5B2AfEBNJPvPeX/yGWkvyA3tF/aFUy56o6S34OJQ3S1v3Scw3LKGwqJ+WL01zGAlC6gKfgF+ohdDTUuY6t7CWOcm2qqn0VI5iYbSESS8jQg6qxFx16G9agoVqT5WdjWBXkLvvJBA1z10HehRJlb30qVCpfCz0xSOl+DqzYc4de4ahsfnMTGzgtHJRVRySCeNSaZEdABRLwH6ftr7vH1Fo5Mht8zJywe2CuSXd9pXsLzyZfz0Z4cwM/V1xMNfgd99iPkOMd9x1JU2oKKonj16BCbmy2njMDpeiy7xEAhkmXKqCHIIXNmNmcYhDDd0oa28ChPFVRiqqEHQ50Vzohj9tc2IscGUaDE0VTUhEitk+cbQWFaP4nix+vFJlGlriJRgsrINs/U9mGbH0V/ZijIOTT2ZRm+VJXP01iMNLagZnUCqrgWaLw6XAXQpxyyJt6Qgvg0z1g3LN3sqwtgXyMtw2fghh2wdmhvugBXjcz24/fA8yqrLOYROsUEK8AMoKqvA4Hg/JuZGMTo9iPaeJjR11KK1q5HOgw/J4ig6+poQiPkQSUXQ2deFwrJihOIRhu1ERW0VPAGvUrq0CB29XRiZHKdtTKJ7oJ/xl3MY7lUKxZOob2lDDzvZ0clpDI1P4P/f3rn9xHVdYbx/Qd+aqKoS4dgwzP3GDIdhgBkuBjtOMDYkAZyE2GmNHUKCXezc7MaSe1PUVlUqVUoqtVJf8lJVrfqY/231+9Y6e86Z4YABQ+NM98NPnDn3vfda3157n703y6tr0pq9IKUqWqXIP/3IFUtrMrS1QLv+/vDl1yoicUE/jJiTDMR7JFWVK2ML8mZ7ScoUFuwvI6KsUhix3UI+XZ9ZkkuIpkuIgDlL05ZsNhipkxzKtpauyuLEgmwsrqKChyhD8Cs4xkkqeUTwc7CTzcU1+RCVw9biuuy8vCoruC/74ccRjd+4sCzrbc4vQQshXZEArARzcrl9UaoITgZRQdQRDKwuXJHdlRty++pbsjb9qmzMLEIbFiQL++T7V+AbHC48eeU1efUGbGxhES0Pa5Fo/jKPQpLzi/sC5OmsXF5GWW3el/e2H8i7N3fl0uVrEPJJDfZor4tX12X5jQ0IMct0R3XhlaXVTnmoTYdwqOjme7vyl7/9Q84vbCBwnME5sP3qMGzyeanVfijXN38g3347Lrc2OPFvGIJeRbrL8HXOXi7hvRzfF0Fn5mqmc2r/LIyiLdVSC82PNpqks4hK58CsdjkUQLU8B87LaO2i1EbgGDhewnllnFMqIPJDDZhB5ZDj+flp1IItwAVv0CQMxTynXTzdgt77XmMTc+o4ux8/kubUghYYa2h+0HAFxm3XD9d7/Ung+lC1xkb0OZRHxYTaeuPaj+Rf/xyUr/6Uko93CrK8mJU6msc5VFjsusoi/YNoiQzlJ3GfSZ0ty9m02fwU8sTyo4T9FeYzRLAK4xnNFVExlCRTKiDvy1IEuiocm3uIblOIfDmG9mw5kAGkexh5V8yx33QMlWZDglJT6qUxPKeOd6QjsXlIA6yiVTKiH63ScE5+OKaT5ZiHFPDQyRzWxbA3H0zI45ig2wfAMRlB+bTmFiDCdWnPB/Lw8R35ze8ROUJ0ixVEoiWubsgPUoy0Aqk1JlCmDUTviO7wTnmmr5QNy5SVA54NJ8pXOMmMzlzBuYhOQ+zDLvMIEWmNo0twHZwxGo6J61mpgTzSPhJwZEUT9wz7dWk3TDPTG0trMvxQ3tBuP0bnnzz8lY5kifIs6Zq9UNALEOEKRL2exnvhN9cW4vT5MsqIYlzBPs4yrkB0VbhDXNOf9sD+dMKomudzBAzvpRNTkB4u3jWoz6xLGYGF2gZtBMFECf7GUTesxMoIQNjVU8Q7FSF+5cwIonvYBFoK2lWJdHF2NX0gKDZgryhrnMOlKXTwAWDXRA52pIKLKJrCzj5mXTcJ70BRZ/5oSzhOmCcGyyFAucJXKi3Qhj1BVzjZih/oWWGEAYd+dNYuwlFddIuRuysH7hsJWnIeAdBE64KMT83Lo8e/k6//+o00J1ch6HNa7rnqT2Tp9ZRs75QRdJyT//z7sqxcnEa620jPBAKgAnyeEw1ddO4i9FiX7CmQJOYk6dyDBV0zZBwg8kXBZeEAWRReuogmCoQ9DWdM8yNFCYJVJMxkI+PQJjfXbmmilmvKWRiR1oY5I5/jCBcKOYwi5CBBHx2fkV9/8aXcvf8LFfReIWdBsmBV0FHQvdefBE7QbW2TCRRwC+loSLuZkp3bFfn8o7Z8fm9F3li6gAqtBYPhZCdOVEIe5Cnoxjk4zTnkxaDCdWGwn/kE4WLeZyFKBYg3R6RkKeowJk4757KqA+AMIqWXwECpJi8g3T9G1P48IrkBjulHeWS4klyRH3uQp8gf6xtGGtQAjS4jgfNrGp1z9cJjMQ4SdOt/H0Nk/Ips7dyV2x9syp37W/LFHx/LzfevS32cSzaAIgUdNqbdM6xIHCg/VHQMKDLFArbhWLkFdXDtDlFRZtOdQu2gKBudyAlptXOsklHwXkTfEc9xdIIApKM3rcnUpT42Iw8e/VZbjIwS3bDWowh6mqIL8hC7AuBfWzDOIu48BRt/O4QibrMHDXeM+9wxg2XLdxmFvY3KGTCAdKeQ3wygChmCdMPnhkJSCCqGEVywtcpJQPRFBiRnaa/I/zLO571eQn4N4fdgCLe5zg/9Qj8e4rkUelsnxqXJxHw/QerGBF1HoMCWOZY8B73Jh6NddHo/xRzpYb5bEGH2Y8FoJOit2UuocH8pO7sP5M69h/Lnr/6u49sLCEQ1Qs9N428ga+vrcu/n78pnny3JztaKjMIfh9Ga5tLfnHvg1v93/mMkvfvJ0eWjMZLOfUKXC50WhQNRt9EL+E1RQMamkcFu1cXO6os9v+2DmX00Y9OJBc3lY/lRzS0VawtzRUT/HYZiTrrfiWPB1976mVx97W2tdZ3zxAtPt9UxT1HQKVxqvPxQAkNCWhgB1yCwU0FdZiemJahOSzozKSk4TgppSTEPYtA53Nroveuj6yqUKlpwShgRV8fjb641zqULBlAWZwAnSQ2goh0oNSDq4/JcdUJeLHPsNJ6LcuIKjywXXcoAee8W5mc66FjmZMg3sJ+R7Ic6vOZFL3gGnRHpCFABv35tQ25tb8vNrdvaVTI5gxaJRtPINzgMbSOOiTbhynkMCir4i5ZhbhZ/KU54Pp1K4baD4m0CbkR2YeCeXZjz01Y69qJY+g5DpT4lb75zS+Zfvqrb1pLgO4bvmXDNQbAMGMG6KFYnkCBdtnCdbUcTSyIYhcfPddh9WR5O0ANE17BZROZsDRdAjkEUSAOO17bgA/aDNDCqT9Ensy0IOgORQKpp/MY+2q/DibqeC2xZXrZOo0qKcIjm0ezMyoSzR1XUIeS2UibyWcuqu4zNDsy+nV1wP+3wnZ++L1sffiQf3P0U29uI1i9aetFq5rfC4cy8NBorMtlckqA2LyMltCIzDDbYQkaAgEDB2fje93w2OFjQgQkAhQs1lDazsB+ZayBDgS16H+H227FQQPQ+jGqxzczHtqI1OWEhxNn7LoTXFCvjaHaxxnbOg2O9JFx7kpiYRR8CaXT813MFvh+cIK9OhjTDgHVlOEQpJurIE5xjy8EyT/ibQsuKk/lsfzmqxATO7m0CZ89yS3c6zqEsFBj6WQj4EGCF68Tc1mDpFXTLezqew8ogOb3HB3lRHpWg2ZZ6Y1JyXF1Ru0ToaEwTBYDPRTodSJPh0k+hcvmBe+5XvuGxuIMrTC/2W8QZkXiPI8J7U8R5/8ge7XlJ5x8GCnk8imXLhx/rOYeC208SlKhijc6lrXX+KQMEl11zDKA4oS8eVFlARVgWvM7gbzfSh3atYg+i+0a/zbYQJOA6VkyuxRFP09Ew+3AVvdqE7ks6NwHkAcuFUfxYc06Hl3I+CY9Z+ngvppkBBgSc2xlWPvBl+BWDKa5Yqv+4JbxmzzOeEZ4o6AZFAAlxBoKCi+DvJxC/V9K+43KS9zom8QK2CoqY4cbHpbrzkoxBryMUgw6hqKmxRWglsAcKNStPnB9WBrYcLP864BAgEhvejyIeYfv2vt/Tg0AgpBNVatm5dPWe/5Q4u4iTdN5pcMLPo785MSeHGoW1D2Z/Ls+NvYEUSb4+TtyW3bb77XB+cHwh70FtNyTp+CExW0w+lgjz+hj5/V1wSEH3nCZOzLtQMSfJ13RjQh2/nl1PvVjforuGTuGe4Xg6R/GcLBTteHQeF/Tjirqnv/GCfooc1uG8oHuSiAt6HC/onv3wgn5K0Nn+d4IOId5P0CHinbHkXtC/VzhB3w8v6J5evKCfEkcR9E4fXRcU1yMIbM/1cXGPo8c717lnxIkf93zXODtKJOF8z/83XtD7ETh7kpizJdAt6B6Pp5/wgt6vULiTSDrX4/H0BV7QPR6Pp0/wgu7xeDx9ghd0j8fj6RO8oHs8Hk+f4AXd4/F4+gQv6B6Px9MneEH3eDyePsELusfj8fQJBwq6LXeafMzj8Xg8zxI1+S+f/z2hwr8XTwAAAABJRU5ErkJggg==;" parent="1" vertex="1">
                    <mxGeometry x="118" y="248.5" width="372" height="130" as="geometry"/>
                </mxCell>
                <mxCell id="9" style="edgeStyle=none;html=1;fontColor=#FFFF00;entryX=0;entryY=0.598;entryDx=0;entryDy=0;entryPerimeter=0;" parent="1" target="8" edge="1">
                    <mxGeometry relative="1" as="geometry">
                        <mxPoint x="420" y="240" as="sourcePoint"/>
                        <mxPoint x="490" y="240" as="targetPoint"/>
                    </mxGeometry>
                </mxCell>
                <mxCell id="7" value="只要有引用，引用计数器就会+1&lt;br&gt;&lt;span style=&quot;background-color: rgb(255, 0, 0);&quot;&gt;&lt;font color=&quot;#ffff00&quot;&gt;注意：若是互相引用则会造成GC无法回收&lt;/font&gt;&lt;/span&gt;" style="text;strokeColor=none;align=center;fillColor=none;html=1;verticalAlign=middle;whiteSpace=wrap;rounded=0;" parent="1" vertex="1">
                    <mxGeometry x="190" y="218.5" width="230" height="30" as="geometry"/>
                </mxCell>
                <mxCell id="8" value="" style="shape=image;verticalLabelPosition=bottom;labelBackgroundColor=default;verticalAlign=top;aspect=fixed;imageAspect=0;image=data:image/png,iVBORw0KGgoAAAANSUhEUgAAAUkAAABDCAYAAAARZvd6AAAAAXNSR0IArs4c6QAAAARnQU1BAACxjwv8YQUAAAAJcEhZcwAADsMAAA7DAcdvqGQAAHZPSURBVHhe7b3nm13Zdd5Jk5QlyzOWLY3SyCLZDaDizfdWzjknFAqVkKsQCjmHbjTQARkNNIBGo4HOzWYzUxIpi6I4km3Jevx47PF45ovn6/wna97fOmffulWoDgxN9uPBh/WctMPaK7x77X322ecLlYkaW4sqEgWn4r0kVBsdS9JV6V5VqtaqU3VWna7z8xVpdB7SBIrKWkVK6/WV3KsI+T1fVH4iXV+85+lCPXFaeCytY0U6HUvrSGTqnUjD/fLqvFVUx+2O03Du16X1xGWRnmNp+3hGGWulD7wUy4vvhfurqVh36f24POooq8pFPMRlrUijI3yV5vlUtEpXq4nyXE7iC30U6xQFfoskHkkLn+QNsg5pOS8tI9QR0jzO27KsP9beSsoJRH3w4rzH+vGySijkD3yHdkT3eU5dpIVnUUL1J+uVlvZQB/fVRlHkKyt58zpi/uDf78XnXs8q3kPewEcphTI/Tl+kw28Cr/BYViX9VdE+8sfPRKFNFdW1ehbbVlUsL/HBcQV/qjfIKNz3Ywk/RRl4G6J2FNM678sU8gedBllB6GN1PStk8BnTmiAJAwjAhRAzGADrMcXTIDfY+jWNlsZiBFG6lURZUR4UtFKI3IvSUKeEp+tModky+eZlRXCMKapDFIQckxujnjs/1BG3hzypXKMT6by9OLPuB4PAqeEvav+yUkLZpOPozh/zAWFggDnPQr2cR7zQzvie0iazDd6udL7J64qeR3JYfR6ugxOvr8j4kbyUE+QIOS8xn5wH3j+WSvPEsoSnoL+g+6CbdK7J8nVtlsw0+H14czmKAo8QZSMj+CSdP4/bRTmh3eE8XD/O33Ia9BZdx7ytSgOhA9IV65XTI7P1FVmXF+Tp43aH/KEMP9e9VLZJ17KFVIPqblQ56K1Z57rWvbJKbAO+ZUtJ0jSovZFdUYbrTBTqQG7IjGvagmzC89B+zov5sdlAyE1lOM/O93LaUiIfYJfOt+i8TjxzXecguaEibxsq0QF1RfxWpyTPhADfQZTnWa/PZeBlxbrUebDtoMdQZ5G34nWpTSzrm/ail8hm4TVqd3gW6iTvcv6obmwx3AvPXW+fIT0GkoEBHD1EKkVm4kaGRoTrUsWWPoNoVHhemi5KGwFVbWOnNbT0Wn1zt4491tTW50cckPShnub2fmts7fV7QWjZmhara+ry++Rzau3za4g8zW39fo96QnkhL2moh/JpY+CPY1vXkLV0DBSfuYyUD+XWNnQ6YBfq2z0NR/gPiu/qG/N7dB5chzYE4poySd/ZO2qtnYNyxsaiM4R0pCk6cZyHtkMb5Oy0qW9ostiGwCPntKEIcCU6XpMCf+QpUhRpB5kE4h58t3cP2/imLS5z8jtfcfQRKNgQsu7oGbFcbavzGnQNNUr3dY1dfl6rI2VTXilvgeCFvJ09o86Ht033A2iENBDOjG109497/aR9uiztMiQ/svNy4zpwatIg/5qGDq8nX9tmvQOSb22HtXYMi/cupWlU28dkV0PiQQDsURrOje4b1em1Sib9xXbAi3cmukYfyIG2ch8bgSKwK5V9rDf4KpFnAMpgE6v9a/W9jp4x5z2Tl9xru1RXt4gj8h6Q7U1YT/8mq2/qU9nou0k+KZItIj/AHL7hMejI9SW54gNBRi5HUaGuPUojv+IZ6aBsTavzBv90Wn2Dk14e9yB0GfwR2Xv5es4xspXIXkK5pAl1Fu3kM6KPBsnKCCS5plE0gGOpYUaRR50LkQbDOIrhWdT4qJdMOtG7Pu5w9Ko4W+/gRusZmLD+4U02OLrZnY/7bmjii2iL+60dg14GPFIPADW6cc6fDY5stuHxGb+GxibnnTgfn9zizzBW8tEuFE8+6g1OxDPAgWcj47PuTFwHWQSHJ19b55DzzXnvQMQ/fMLjxs3bXJkAqcssNupgCIA3vNNG0sIjzhPuA9AAJ9eUg/xKZYdcABzaNLZx3mrEb5AvFIzb80kPq/X8GMU6Cw6Gg7juVEap3jjSRnil7qmZnTY0Nu28uFzlBG4/JR0sdkOngW6RK6BFXuQ2MDLlNDg67TpHnpRPPogyQwQbeOzqHbPRiTnnLdQReAuyoR0cKW9I9QSQAsSRJ3XhdKX5KZ9rCLnDI3yPb9qmOidUzqxAAMftU7sXZVM7JIeN1t5Fh9itMhpVb6N8oUd5ZyN/EB+0OdheTmAxMjHrOiZAQCYd3SMRKEnORZL8S3lCnqUy/WiQjI7IkDoGR2cUIAxIxpL3yJwNj8kPRKPjW6W3edntlNq2UYDUJ9nUKc+w0k27Tml7d9+42yIdMXrCjyantxf9CUJW8EW9nKMf2kUZPEfW3EP+8I4PzMwvFjtX2oEssPdgAwPy5aEx+bL07PXonCOyo37OkVOQ0Zo2/Uuij48kBZRpMQ/TODYO7wZYohQIIxgYnvI0XAfl0QjSh9Ca6/A8AthoSERPhAFB9O70VIAbAMJz+Kmp73CBYdgIBT4pC4cDYBA4xo+gyYtSOXcSaJF3YmqrG24QLIZJFEd+yqU8F7h445o89GTUxTAt1FmrMlAScgHgUCxG095FpNHmoDWzZdHLdfAW0YkgB8oNBgSfm2Z2OFEG6TGCQNRBWuQAr43KS51dMlwMiDzUAw+kA6QDkY4j9SH31Xp+jGJjLYKk625Zb+iBNOga2cIbfOHgE5u2ujOFjiY4MsQ9+EAG2EcAdvjFiXEqdNehzmh6fsHLTsvOIj08TgBukD3lF0EDW4JPEXaK3igfEMfBqAdeeEZ+ZI7u4am0g6c87AhdTM3ujGhmQTLeKXlvd0AcEcBMTKlzGJ23zbN71P6dkvOgfKVNgDQom9xom+cW1ZZNPoLBBuEDHuh0scPQdu7TfoKFRBxIBAp2WvTHTwBJv5aesLOe/glvZ2vnsEfAU7OLAsTNavNGyXpC9e6W/e1Q2/ukk07l0UhEkXBLx5DaN2dbdiy53vAddI4d4ZvIHZnQCQCetIHn8AWvgDPRJPJvaO6J2q70dKoRSNZ4OdhtiORpAzwDwsgdnVAfdaMn/JDRYLAV7mHzpTJa06Z/SfSxIEnlCAIjI7QuRjNSUFAMQqGXIIoDIMKwgQYEgHSQxACKvWPUMPJjHNlCixsw+REuwkDBCIp08ISx4WgYs/OoiIB8pIscS0am8lEYAsQB4A2i9x5SpEJ+6gi9NuVwRJmk45r64BEeUE5UX43P0SAX+AUY6M02z+2y2a27/YixIweMf9O0FCtlk2Z2y24HM9pCXkCCc5QNmAKu5ImMqts7CJ5zjcypP6dOBD4xHiJWDI76MDTkjuEiA4CHTsMjAB2h+qZuz/uJhhS3uwiSsbOFOV7kC1/IEIBvkQFzL4Agjk99yBE5UQbgA78MrTB42kYbkBedQABy8lEuIIlc4Nf1Jl2hL3SKHCBkhVzJhywDhY4WnrkeGFFHpDI3TkVR+uTm7c4/deG03A9tQQecZ2RP1M25R0t0Qop4Jqd3yha2iL89Nj23V3JfUhpF/t0Ter5P8mY4riFlocPPewc3SR7bVfasdyTYovMRd9QOMnEnxzX8Uu/qgCIAAPJ0ks0TqQddrdCX0kPICDtAvvguc5JdfROy072ylVmPJgH3LdsPSg97FdzMClCn1DEMOMiTHqCcU3p0RZllqpcj9WBn8Ix9un3EPELYg+tBhM7QBzKnvaQHN7A1/IS2k97boHLxydDZh7bTFgARwKeuIBuCC2ynWPdqW/4l09ogKaEACjAJuCDsokBIEyuKtDghRhiGDCHcDwpHEByDkEuFShp6mn71uBgmgDcWGzSCCD0UeXvlaD1yuABm3KcnQmHUTySD8OmN5rfvdSUE4CDKnZ5bcAeBHxRGm1raB7wM7lEXRsF9CCNDuSgDHn3orLoBOhweHue27VGPuy8CK/Hf2NbrwwRAkvQ4cgDIID8MhXOADr4BBcrDmeAfHmkL8qT3hK8oyohAC4ciD+USlTDXwz1AnTJDJwCvEPmCrj6OXP9KF5wudHQQUTx8IRNkisyYQwaw4AmgRO4YNPKCH2QKT7SJdiAL0pAfZ+DobRXhBOgbXRLpwQ86AlxIF8AMIg36JXrFNimTjoI06BoHxW4dJDqHpIcocgfsuuPoinLRCTpClvADKMIzbacOiPq4D0gOaAhKNAnAjExslZ1qyKdhK9dEYslMi3TV45FarYbbXYomAclIVj1uU0TL6MhJ+oUPZIMfYBvoC33TqRNUeMAhewnzkBy5pgODz9VEOcgNWaAbZFvf1KO2bJduFqSLSQd2It/tu454ZMm91o5R2Q3z6UyptYpXdcKzCx48BNuBN/wDeSAXdEyd0fPoZQ7twZfxN9IEvdEJkR6fpZ3cQ68p8UsZoe10kug1yIh0BCHojI4fwo7wS3RM3aXY9VnRYyAJ0RgEg1FhgEyg0hjvzeJnMIhSiBIQBsrBoWgwaYOjEu05SBJFxgIJzkhYjiAQKkbkQ+OYUAjlA9iUg/AAEr8X84GRAxYIkYgFJWHcRG+AVZgn5B6RV+gZMVqURF4cCIFTNg5HWfTyACARD0DGPQyOdABGiNxwbBwMIwgAglI3qS54pm6UDc+0GZ6RA3zg4NRJugAG7vCS5bjaOqM2cI6TkT/IlTYHo3FAkeMga/JTjstXOgxy5kidn0RhDhN+AItQHyACH7QfvVAn6amLOVvSUg98kg5ZI1OcgrKQF9MD47pPGciJtjerXNri0aWINpGfshnFUC5lMoIIQy3kuUUAuW3Xfj8HBL1Ti48BtCmXemoUiWOryIZIjiNyA9RpG7ZAp4IesUHazDOcEN2jD54x/GResn94Wnbep3bQ6Qqop3aJd164ARgCEZ0TYRbqO+UXgHc0r0fZtM1tS+Q2r7KxLfwHnqkbOXCPtiFnhs74CToOfsc1+kZX8E87oGgEF+msToELZdCRtyoqnJymLdO6N6WOdaPuLyhS3C95zDhoEkHCf22DQL5nXG3eapsFknTCYfSIzSKL+W1RAIIPhGkRB1Gdc58OHl1B5EEXARt89Cf5Ug4+CODDM4RtIXM6VfwCv6E8Orc+1cVUFvdHFI3jc8hsNW59VrQCJP3tXsw4EWI0FIyGVe7kaiTKCs5HBMSQkQYHRw7PuMZR8gLC0EOH5xDCp+FehyI6nGM5iol4IB0GgrOgcASPsN1YlI7eGIPjPj0wwyWMj3vkIaqAh2CQOAT5UCgvOuCdng8gJx15UCjl4ih0EsiBOUjaQRqUh4HgvNQTjIJ7RFKAZBjaUSeG4u0SwTvOjJGQPvCDfCi7rqkzBhKccosbTpA96QAsB22BOHySh6gDQ8RwcEjSY4gckaHzrPZQLo7zkaS2kgbw44gs0CH8h3LhA/1joDg9ciUN+kB/6ACeSc/90AFEshx3nhkpAKQBLEI5gX/k5MtPVCaEPbq9qDxkRtRO9I78ibDhC34ADuRLWsohmqdu9ECnQz3IDz44Uh7pkR16Q8+0jWdES9Q1MMpLJaYzNnk02Svg6x2EX14E7vB5PQAzV9Mp/2kQWI9JN/Nqp6K3TdtlK6Pu2IAN5REp0U7AGpnTmYROFP0C8qRh1ES7uIcOi7LQOW1F5zyH/zByc0DVkefURxt8RNIjWSiKBCSZRyVyBMj9Jc74Vp9fZZoAoG9sGfA2zszvkZ1tkRzHdb/BgwPAHN5nnL/I1h3o4E8+SkeFnOkU4Qtegr3wHHzhnDwEPPimT+npPmkJxrBt9EjbsFs6OvTmnZraiZx4wYfdMH9bil2fJRVBEoDkCCMIBaYdQMRgUBSNBChJRyNwVhThqC6BBGVyjqBQJmBEGa5Qhg7xc57Rw26ejXrs0Htg4Bwpn3QQjlcE41g4PAdsEBiGjpHzHEVyD4f0yE8EnxgmfAawAigpE9AKvFMuz6gPJw5LFMKEOfmpg/pCJEVEVCdA4R4OiOFjQA7WUijRMu3GoakL/nhOdAQPQS4cKQO5A2o4aymIIh/vWQUSgDJluSNLhvCxdeeSy4P60RtGC0hRBryS9pMIXVIPvTkgCU/YAzIHuIJRUybtQE7IjvvuCDp32apedE6Z8IvjI0tkB48BmAFP+G0Vr+id5yGSLFK8yoIlIAG8Ns3u8A42gAs6KgVT6sCu0CHn8ACvOGCI6AB08iFH5Eo+run4w7SOz6dKlp29TAtsFIgN+/Ca6IsXHu1d4z5kZbjN8hmitIHhGXX6dIS8JOz0eoP8A0jSdmycDoj55tAGZEZ6eAsgE4hrZEuaKCCIXqIugyTvB1pcnoyasO3IR2fVvu2yEclhfp+DOi9u4JXpAgdJgTwgmcm3qf3Dss9dkne0ZA5bQ17YRJAdPIQRg08FSWfIkEgwdLQQHS/yhQ/0gw9xDUji/44lahv2TbBEGdzHvqib8pAbc/P4EfdoF/eQhctG9vhZk4MkAAlIoCgEjwIxLpy2VFGkwVnIgzIZwuDMKIhnOIof47IAFQRaCgbBmYje6PF8+CVQQ+AcET5RACBHOsrhGaATeinuY2A+h6H0PEN5GCBggXBDLwRxjfPDJ+UBlLQNgQOiKI/78I3CyIODwDt1BUflGuXDD0pFRj4ZL6Xj4LS3SXxNiv8AIvTEtJkpC5yDKJEeE4UzvCINkTRH6qU9RUOTfDAYDAtekTfAgtHBN5FHcHKAl3y0k/IAJR9CiwJofRKVpgNQgvMhH39xFRs1socPZIjMSkGNtiJL9OedoGSPjGgHHRV6gf+8HD3wTDkYvkeS1Kd6AihDyJV8EDaA/JEV5QR7oF7Scg/ecOp68YBdcO3AI70jZ6ZD6KTIi+3AV9A9vECcwxN1NipqJTpkGD0wMuvAmCkAVKxx7Fa5TcpPWRo+DzGUZpjNsrJWt2n0ja1Cc9v3um2gZ+yBiMpHUWo3/NDWoq/EvkT7ip27dAQYFtNJ1hBpsEE6TGRO+wuS1SZFwAD8xikiX964M3Uk+YlXht2cM59ameTlKh3bJo8iWQyPfWFb6Ai5IgtskrrQAe0JgI0caSd6Cf7ItBe+gK2636mNPCcQQL7BnuDbp6mUNuAA+XcsHnRZBRkSqaJLOkjKIm8pmH1WtDzcVoU0hEbDKIJBESgpKCK85UWxOIALT4YQGHaQjIkyI8XGa/VCmrg+DAPB+xtcKRNBUzcCBnw4p0544BqDxXkDL9SNAgEJlOlDf6VDcTyjB8SZcQCMhnPPK+PjSEeAsuAhGCD3cWbKxWFdkQIInI9204GEepERQIYRYPDkI02D6sEJxzZuVe+HcdCBEH11qK0AR7T+q14A2aUIpX9oyiM/eIdPyiYChXAi2owRBRDlOTKBVwAYHjFe+CEt7XCHk3xDWyE3qI8zqlj/yCLk5+h603MMGllgD7SbNqOjIB/In6N7lYU+6Qjg18FA8sHQ0SNy5DnATzm0i/t0uOSlLpZc0TnRVp4hH3SILaFbyiUCpb3wB1/kQVZ0JvBGW4I9UR/tw15xOspAXlE5g84TtoS9kAfbQB/YU790xhxjz8AmX/JDRNY3OC1bmFJeFrUzx9nkUSbDcV6UNLer8+uIOjDkRVnYTlTeJnf+MFJD1rQDWwy6XQGSsX5cL0oXlgq5XmP9IXvajC9QF7KkjUwTwMvsFuZQdzrAw+PoRl5W7RL49yo/MmR01ebTBESSzGXCH9Fg0BcARccOL8g5+CS88JxzABFdc4xeem33Z7QjdGCAHHngmTYhbwKNwDO+h87oREPE3a7RFemQG2W7XYoPp1gGnxVFIKmKUAqMwxQOSm/q93Gc2FlcYbpHGhh2ZmWIriyUKgfh86MAksX8xTQllcfPgjEgMAwEA8aYcH5e9FAHUVswZPKU9mpRrxrNYWDg5HcHUV7ShqgYxTkvus/6v95hOcPYZutWxFhQHQmVjbESCfo8qSINoik+VQQA4BGeMHAcGwNBBlGkEb0Qgn/mMac01CNizBaYMgBkaCcvSBrUQwIUk+KXLxiYJuixhmbeik9FBiRjIOqk3cG44Jvy6V371Tm5bGiL5IphAjYM0UmDbEM7S4/IeYX8V1OJrsgTgeTy3JLrNu75ATVkTXvRmwNoCYiGspA5sqIDcz0KMHAQdAXf6BlHoCw6SvTr+cUPZZEGORMdER3721DxR/4QsSAj58/z8LJxPBohqDwAEd0D0uiSdMgI8GYkQ7QLoGLr3EePgAygBq8M09E3OmG9Yd/QZgEky2ZmFIkOqV2ssxxUW/nMkJHRRkXNzNvtkd2NC2innRfaP7l5h9swoAEYhJEGH1rQkSIf2oN8HCjR11r6kT6CTrnHM2QW7ISy4Z22Idc+RYaANcA3NIbtTYn/aQEp62t3CBgB5maBXp/4F4jr/vT8okf/LnP5FmUjoxCRU2+1+EZmwWbQHX4SeIw67+glFNc8Q75EjJQV2oAusAFkxD06wWA3AHSk2+jtOrJB78iHulfIoZRK5fZLoBWRJAIIimKIzD2YCEQ6lOlvJ4X4CCbkhYKyoFAuyl7RkPj+6nxcI7ygnBAJ0bsTgSA40iIsehrSIWCE5YYvvhBgAFMESFoMJfR48MGzWtUzRhg/OWcdA4qYazXcQOGqr1sOMSmQrK1rtyS8AwxyPp7hWJSFseBAvAEHlHFaCOdi2QdgRoTJp2m0A74BEQCd+7TJFR0DEUbaM8DbctbMYYQRsAJMTpIP7ceY2sUfBkibaQtl4Xg4dzAejqQJRlSUf6nsV5Oek448ELwF2XIfHojsuA/w0Fbq574DJSAaUygLnogQkD0OguHzMgP9dWo4iCPTyQQZhrrQG86OHHnOeXgWeOSeO5KckPTwwTPSIydsFBtBR6TFkQNfIS2Aynw1dYd7tIkoibLxBZ4BsHy/zVc3oxO8dJDdpRmeMi/I1ESrOlcirxlFmgwbFzzyJKJkqAsNjbL4HvCNpmawoQDO1Is857bucX6Y5/O1xKt0FHyplFboVefMKyNPpl3wG5bx0ClPqDNA5i2KKgFD3l5jb6yLrNEIh3lYXtQwzdTeFX35FToW5A1/6B1d+mhQ9z0Y0hGbANyQIWm5B+iFqA/7wHYIWLiHTOEdWeOz6Awduu1JT+AQ0TBTImGEwnPaFaZkVgPlsjwel9svSl+gYZzAMEbDWyyG06srh1Aecx1hvg6lBYGtLrhIPAu06j5lIpDwVQJOgUIBBISO8OGHoX1wSJwNYfFiIiiRcjA4DJvnnCNMAA1DwVnJTzqOjTKAkc1braVX0VdNs21ICgBSKFuhv9o2JgfLquzqKildhlCtOohMQnkYC9ENRKSAAfGMnq9eUaFHKDIGnDQYBIoOjg24I1+UzNwhE/3jk9vcsVJZdU7szsKOM7GskDNtAAzREdQjcKdO6sG5kAmAwX2MkWkMyq9U3Y/Jfi2K5RjIDTYmrtEz0wnoi0gbOSNL8qGX1SDJsxDZA9icw/+o5IVc0A9pkAnRXAAkyict0RAOtFzPMm+hfAABeZKe6yh6iRapAxKUSTmUSxtpA7bRIv1jbwA4siIv7aRut0MBFQvRSev1KR/2SAcIULIhRNjth69UGpoHfBjb3cfwdErlj8g+mYpheNpfzId+mWqBX+881GkG+dJOolbAyQEdnayitUCSe6UfZ6Cb0LkgB9qOzQLK3I9Aac4jOnyNSJG5U+Yv8WlkiJ/T3lAHdhTKCwDOfbeZ+Jw0gD+dNhQ6GXjC9gFU6sdG8Wvykh5+OXoasEj3w6gDfeAr2AqyofMDK6hrOcj4FYBkYA6GECYNxGhKK0YQQQilUWTE1NoFfyIhYOWnLASAEnAo3gji2AgBApDDUBJBA0AMs1EoZcA7hDEAHrQD48YYMEacJer94l5P5WSUtrZNQ+QYINcl8rZexHCuT47XrZ40hfIr8w6SgCd8AooAIXKgPsAcJ8fRAEp4Z8Ib2eBstIt0yA85I1uMJPS65O/xRcd8jshLJJySJU5MbUTARDoMgbwYKVE2baJON56hTd6RUD/3IHj1Tuxn0Q/6iA0+UKkB8pxenbYzX8fbRp6H8oMeIoreWNJ+dEenC3/wSzuIbsKGB+iDDi9EhMjT384rHfJxHuCrhJAl9TKcpnyWhZAX0KEs6kMHyACHcz5jHuls4AtZIiv0w3PnI9YPvOKclBEAiCkavoNuaGbeFCdfBkneDvO2myNrDhNpPoukM+dFE18d8XmihvGK4IjYAAvqKJUvNgEv2LzLO9ZJkO8KHUFxvlKiDfgRcgag8AXkgi/QXmyS9rdppBiG/bSxlA9o9TXlUoYDePysNA1+Cd/INQQQ+B76g2fkDs8EFHQGoS3Im4iTvCFi5D75eEa91Elb0Au8o1PS8yxMBwU+oM8EJGkAjGH8wTCZGF5RuSpm+M0wHAUEAyef0xoFfyIpH3MxGHboMTjSeJ6hPAwnvP6nPoSIgILzuENKQRBzOzgE+SiDNJQXtSdaWxnVKb7Jm6238kydlekeQLneFVljtXKwGrUvoTIdJMVrtfJgbJQHv4FHCD689xWhNECOOoKT8pz2wjtlQPDCdcQnn9x1ybE7VD+T2bQTiubYguGEvMjEh3+SA3VyjyPXgai7qJ9SmX8aitsFUQa6D9fuDCo7yPQj69A9ennSYTfYU+DR85WWKVlwj3SUR3sAv2K61WWLgi6RLW0N9kAe6ghD6yKFfOIfPkgPIAF8rh+lcVtUveH+6rbxnJdvdILFfRg94scWmEPkPtNPEbGVGumTGqZnawBt6S9P+ZFdwscKHkWBF6e43o8iZOP6KSHys+QOGVIHskEe+BYyDb7BkUAiIx64hpAZVFpekS/dDzyH+yvSiR/KwP8IYni5Q53cK6YTvyzTgx/0xz3KhFfKZziOfkhHPR5cKI3jg3wEX8KmuOf8qq3opFh+TJ8JSAbFwBiVB8GEKAYn5YhgYRymec590J+GrVXwJ5LXEysivgcvUeOXeyp4ggIv3A98UncghAuPLqiS8qJ7yy+dSFehoXV5INoiKtNztqRKKH9S6YkgqyCVA3gGfoMhhTa4nOCB/B79LUeA8PuRVBUNQSIgRJ4BHFeD5HI5oUxvC/UHKvK3ikrT/Dy0qpyojRGVPiu9789C3jhfoBXP17hfpFieq9MFKj5THSFP6XVputLnpdfF+8UyomOQrz+Ly4nyEjFFFIFjCUjGwFgBVTPigbC5KA15l9OH8iIqrWMtmX0UrQWSpfm5Dr4CBX8KFK6xZ56XPgtUlCfliqgTH1grbSnhc2H9ZOl96iwt03lTGs7BksA39ymD9KV8F/koPV/Fz2cCkqFCjGN9ecb3KAxr1HBkEN4dWg1jiUV4xhEi31oF/zwUKUHnJYIIQuB5EG64Xk2r7xfzUmbJfd9puUgFB8gIJAHFaA7SI0go8OR5VR5lxvc4BueK6o5Jz5xXnsUgh8xcpjp3kkyjcz33DVFXkgOF5435UvkO9joPdRfJnz1Ogee1aVken5ZoU2jXinsxn7Sn2O44bSl5nhLZhHTeHvFLfuebNLS7NF8JhWeko14cnfvIotQRoSBvzxfKCzzoWJqWusPRn4X6eO56WQmSrI0MoEg0GV2jI+bhQjqOlBsoqivQijo+gkKawC+0Wu/h/oo8pCtJ87NSKHN1/WulLaXV4FZKpeX5PbVjrXJX5w9pHuPlMTmIQppfEn2BQhEqDryuPL0CCDEudgAJDs7zdQCpgPOzAMlfFa0EyUCRcQGSEUkBkJ5FykH4UgRKie9xHhzWe2MNwaLhdtxL47Aqwx01lmNw2lKQxAGjbfNJuwyMlOvnOjLMpY5wn7q9J6beUiOK+Yp4DnxHTr1Mv1xDiviM2sN5uLea4CmAWGneICvsKUQQoS2laZ10HeohH0dGQeRhGoLhm8vDy475kMz8Opadg6rKQXal9TAUJC9TGqXORp5INxHQLctxOYoEJLlenk9WOobkKtf1EZf1i5Dbnvj7OPK2kN7btHaan4WK5cVlrpXmZ6XSMj9Nm4pUKseP4OUzBUkML4BjcGY3KpE7AE4eg+PqNGsV/HmnMNwppbXSRQrFuZRGjhLAk3s8Q3YcfRiOghwoI0MIxyDfQFwHh43O1xpiRxR0EAwg5Anll9YRUcwz5HzqedGpA3EvPP/FabnumDful/AU0nBcDRiBX55jU4H30nyrdROehXRhyAZQrgXCK8vSeVxHkF0oi7zcCyC6sgwdHSRL5RgD5AoCOAFKnsfll5T1i9CnAhTSBFrr+c9Dv+wyf5HyPiHvZwOS8YkbAg4ZDKkkUfFZoDjN6nT/Y5KEDkhVRVQJuRyQSySbFeBXcs87kmLEGJ7HMitxnggkGabJCSlX5S+DZKhnmZZBlPPHaTltHNGscOzYefX8l0ERv6vIn8V1YLROcfrVeUjnhi0ZSLaMXDjybM30paRnQUYRINHeNdKVUihT6TmSr9Thwv21y9GzFbQ83F5JJbpcs5yY4Dmmj0xXkmYFMJSeP6EifaYg+YTWosgZqmSsvmZSxMucKLKMnjlYxUAYdSAYN46+EiR5Fsot9oQOHHE5VXyzzDFy/NUg6M4Sv1GN5saieyvI76+69xhAQh9hSEXgjtsYA9tjz4tEfTGP/gOpmMTD6joDf1FaZBZTaJuIvPxUi2PUFsoiPc9i2axFcRnL5X8MeZqYdB2BEbKNyMtYnecjCZ19FD1eTkU4xnU6rZDNMkXPSuUY20wRDJZHEk9omZ6AZKDYQf241vNfhAIA+HlkxMxZstic5UIOHF53qfMDjhFAFgEIUHRgjCia35QiRbwMcuIe+SmHyX4cyx0oBlt/VuIsrM/zea94LszX63E/JnemVdd+znxpKUVTA8Wpg9BmUVVKvCZZdiRwV5tpa+DbabVROp/id5Xjr64TPlyWAolonpvOg3zLbXSgcBBZvo4oks/y9UpaBrw17q+iCJQgXZfkKcqOZ/G9tcoovR+dk345iiwvUpxHdYS0VdJvJcT56vpcBoG3iEp5egKSn45+JSCJ035qkoF8KlLa1fX8QlRiIFxH4PQJpDyRM0e0ZhrRSkOU4YoAx7K0DD4j49WxQs+4HwFRads4Z/mQAFCgsUxc11pCeSA+d0wqbUJ5qnWsTrHkgS9tAEDKUF0p6qqzrJ6l0g1Wnm6xDekO1d1qlakmezrdaGWs2Us3qT1NSt/izxKJFpXN4vkmW5dSGt66JpVf5axXeetEG9QG2hfe4LN4P/pLYq2lHSSzam9e6eG3ztK0CWAlj4CTdaPQspxUBvJQugiAWXe3TFXMGao93tkoqt5QrfJF5QLi9ZlaSylPTnaCLMrEzwaVtV7py9TuMn7ZumINImAUySh6QcYyrybjF6l0MNGcYET+tlk8rQAeB206GDZvFk9KA4U/HVapPs6hCqWljHLlg8qUnl+ycp+0lUob1SEivfhbJjZE5tv2yO6qlSclvaQkg7TamKpukE20yDfCF1afRGqv5LJS5k9oTcKmf4m0AiQj8APUPpmqZTAJ9ZgJKfuTSUalskvr+oVIggjGwhvJ4vrIjxNQnIf0vAXFuT4qXSmFN+EOjKsoREcRsEXGjGwSkk3yMYqAMSXiGFEEosgmFX5N6gAAQAig8nlrSnzNGtN/aNncH1h19isCsrTqbrKv5Vpsvag626qyW6xQ1WrNlW3WX91hXakOKyRbBYbNAqhmd1D4XSdAekq0Lq22CeyoP6kOIymATOfqLa9OoFP8NKYFlJm8Pa3rhEAuKxDg/9JV4qlaeQHTQFUqZ5l0TzJJSLa8BOHtMRshVKmccqUtT7JRiAAykVYb03qet6psrbUK6NsqxYPylmfr1QEIJAWs5eoIaGtFijY0iaJF2xHYUbfkLWKH7ACSAKAv7CYtoOd5uBdRBH4CSAEZoFeZEZjR0QB6OtIBhetySGnL1P5AlbpXLbkn822ePnpOBxA9p9xyr59PIdkzUWWprclMmeUy/6s6vd+1mvTvWqF6vQNlQp2Zd5Si0MmuTWrvapAstdsn9JlRESRLAZLhQBgSVEvx0X0ZvF8HkHwcIJNQQqAVKL5P2sgAVBeA40PQ6PyjlO3RXvwsRH9FYvgqQ2EFP9+g8l0qC92LZZWUi2FF19EKfz6c37XnsH/a57sbx2lDlMk5oOtLa5Rn7eVCERWHtIGQmShVVWeZmLJqe0bOmBal9CwpRyaCBKD49DGB3GNZA5DRcFs8C6gK+TIbz/22PTP3Rbt/4Qt27eyXbOe2lCUKzQKTdqvIt8v5mqxVjnm8YcQe9W+390d32u3JHbbQPWL1+XorCLxyaltalEgiN9qoyEbXRDVZ5KJ21EqeneLl2dYxOzUwaV31zbYuLwDwJTkCGr5XFsBWZQBQSLIVVSvihKpSEVWr7ITqBEz5nBOQrODLJuVJpnKqL6O2pQTMKctXJ61D6Q/2T9nWliErKDImsnwKwBXoZAVYuWSL8rQKQAVMgKXuRdGg5O06oC6iOXTFvRgkJRPS8luCiHROXkBMOtkg3eQbemxqyz6bnNtjyZoOgTIRuYAxPpaJNsju10l366WfRKHNJmZ327Y9x6yubdAj3A2qb72nYcTRYJnabsvVD1i6lk/y1FGVD4i3Cqtp/Oe2Z98X7Xnp8fL537ZdU79njTUV0kFONpBzfTwByc8nfSG8WEABSTlDgogBpVTRu8nIZZAJUTK+X16R9wloosOUeslklSIzHaF0dXORMOyMhhfVFQLXKgA2Ap0ASM4Aikbhq5iCAKywYj+8BGEJEkfPr7x8Jvnsxat28uzzvmNIyOdllNQT1hOS5pTS3r73hgNrWFMHX9TFt6xDY5v9Px58L0rE+bOApIObyKNstRdKSXZQQvcTAGQJEU0yDK+o1DBUFOavGAayoL0+/yd2avrL9lcPN9j3Htbay5eytnt3t6VrWhRpRjtTN1ak7ZAimzfn99n7i0ft3syCXZ1ftJ2D41Zf22TZrMBZbUyKV+fDeY6mECrU5mROQCS914j/Hj1/NLPf7i8esbH2bqv0r7CkV4aVylfOUDwbUwySVQ6QLN1hU96UVVem1TnkLC+d1aodOeUDNEmXTOcslc7YhmxSsk1Zg0ByXLy8suuonZ1aEGi0KsoFJNXRADjpFkunBZDpNrWhTfllTw6SAmzkHevb50NVDtEcQ12AkPlBti+D2MqMfFFUyTCZCLXRGtuH7ZkXbtmJZ69YTcuAgyJUoTZzBPy+VlGwp6SbDSo739RnJ85ftZuvvmsDE1utMtviBFBm6rttaHK7Lew/Y/uPPG/zuw5YY9uIbajoVMRaaTX1v28H933VXn4xY+/dX2cfvvkHNjVebVnJ4wlIfr7JN7jw9WkOfIqgADOcXSCZqNK1qFq9blKGlxBV6RyAdCDUEC+nIR6UqWy1VGWzqMnPC1WdcpR2S1XongCUvJUy5pUg+dEKhy+P6OTIXHukJyq+KVYevjW/fO2uA2XY3g1ge2p90r8eIj3lB5Bkxx0+7OdHUuFj/cAPz46fvmA3X3nd3njnQztw+IxHp6tBki9zOPoLHBmvdyixcZfruEG8rhcwMPcHMWzcIKpgbk55mAMkknSSnJF1hWRaVklnEAEkLwOIlPLZP7BXFD3+u++2274d7dY9UGcNba2KzlodJBuqs7bpqQ32nsD92/uP2PGJSdtY02BjDRq+FmoEbmmBS0ZRZEYRbcZqKjNWKE9Zujyp4WlCvGrIK/CqUzTXXJ2zQcn12a5xOzI0YW21AhpFgGnxDdjViL8a2Umt6qxPKo8AM69jOpWVDLOSh+Qt0Muy8W151joraqxPQ+g2ta0gvacVZaZVVyKdtmoBZE0yYT3VaZuTvT3ac8ouzO6xegdJAVKOSL7Jnso121dr2u3pQodVZNsEtMsgGb3o4iUQy4awC8lOZTGUZqjNG2b/RWr8kysHyRgoA0jWtw7ZpZcf2jMv3rZ6AWa1htBEi4De09IFxwqG46JKdUSp2k4bn11UJHnc01dmmy0h/nKNPbZ48Ky9cP01B91nn79tN++8acdOv2D8z7pc7Uynq627JWMbu1rt8Pbftb//yb+0/Yu1GoJn5FtJ2QUfZTwByc8j+QYXgGRew7fW+iGrkUEy9CYayle2W22y21rqBq0m02XpqmbLqUdvaRi0gc7NNtazRUrfYYONM3KcXgfD6kr1uALIkYYt1pkbt6Zsv/W0bbTBgWnr7Y/+HeIKFqFsXwDsc0uREZQ+AyT5YJ4dRfgZOjsQce1GIubZQeTK9Xv23AvXffcRAJCtw/jAHlCkHDYtYFMOdhhi9xrSESWGD+iJRgBePqBnF6SFvUfszXe/ZSfOXPSNEPy5yiklNsioUvn+YkIGjKx8ikLDxeoGya+lxyrae2yDqKxDvHQNWFWjHF2gA9+8UY7AMorUmTuLXhIQHcF3vQ/lqlJ/bPcvfsn+7jvDNtqrTilb6WVsSHYqsm+3zUp3SdHc34+P2o/377cXxsdtqbnRNjXmrS1bbg1VT1tnqtw2N9faRDZhU6kq257P2qLSjLXXW2Ou0tozlTbTULDdTU12oLHFTrd223xzm9Vkc7ZOwIYM6yqyNrYua7MCnj11XXZIALGnpc825hutRUBbJQCuymStpanBujVEH1J7ttX32W4NO2freq1TQ/V8Ims1AtSGZNqGGxtte3uXHesYsHMtg/b+7lP2/OYFq61pVqeSt6eYM0X2E5utZt8hKxudsXV1imzVOSQC0AGIkhfTE9HLEYbbyA658d0wkTY/SeuX3cxL79tlQ1t830fmaZk7rFP0eOX2I7tw+a71jc3Z2PSCjc8sWmPXqAMmw25As7l73HrZsHZ01oY37bAhEZEj4FmVU3BQ22E7l07ZFkXyPSMz1j24yY6ffcEevfMt332HeVOmOgppdTDqXKYHv2z/8Se/Y0f2NltBUXUy+bTsgd+iPAHJzyN9gagMkOhsHrNTu1+yzWMLlkm1aMjUYk1lgzbfu9+O7rhog82zVlfVa5v6dtmppRft3NGrOr5k146/bpcOvGoTLTvkCO0+tG7NDtv5LS/bkdkLdmTxOXvmpNKeeMmW9p/2/eDC1ykAJEAY5gD9i4cYKNmJBTA7/cyLdunaHXvh8i27fus123/otM8n8ukY24Zdvn7XXnn1Tbty455de/m+R4IvXLrl+9HRAbAzCXOQ55+/5kS6M+dfsrbuIUVkApyqrK1XhFUhI4YPtrC699o7dvzUBSvIUYOgiBwjUmSaa7S0wJ6o1YexGLAcNd/cYxM799nWU8/Ylmees1nR/HMXbfGFy7Zx6ZClm3g7jTNHnYD/2iLbJGKnnGjej7er7FdYJvlXVz5ld878hv3dNwXu3X1Wm1V0o6HxnwogqzPtNiswfjA5af/H4rz99PQJu7d00C7tWrS9GzdaV23empMVtqO21u7MzNnV0VG7tnnarm/dYS9uX7A9c7PW3dpsbTW1tjAxYae37bCL8zvsva377KVtu6ytpcXWZRS9J3PWuD5hBzXKuD06Z6/vPGCvLByw13fst1c1rF9saNeIIidQrrVrs/P2ikDmxc27pf/9dmfncXu49IztUXRaV5W2fsn5QF2H3d26YPf2HbS7C0v2HQ21/+bkJbskgKqpaVT78vYVDduTkmXTqdO28cFD6zv5nCUFpj58FnCFJUUOPpIbO+v4SzTuu/zYcahNADVtp85dthev3NNo46Zdu/nQDh17zjr7NjlQ1qvM66+8Za88+Lq9eOOBXVC6y7ce2bMvveKAybA719hrW3cf9Qjx3PM3Pc3pCzc8kizXc4CSF0yAZrahR0N02a/seHJ2h737je+7HWLLTDlkBZK5dNKmh79s//nH/4sd292l4EMjpuT6GCTXAsdAT0Dy10VFkOyoHbXrRx85UHbUj8moe2woucVe2v2qXdhz20Zqt1pr+Yht6TlgR+YEAMN7baJzu52ZvWrvPvdDOzJ5wZoy/T4c78pvtAcHvm2vnf3Qzi5dsa1TB2xydIeNjrBnYryFUgySRJZhjzh/EwpIijH2HATUXnv4vh04csYjRIbA127et30HT/pWTMwxAqCvv/GBHT153ncLX9x71O49eMfOPXfJ5xjZIir8DpOXNi9euW03XnlgPRpSVioKYzlKIN74tgmA79x/247JMQHJ6BPEEhJ/7DDOS6CseGc4mpEBs6wnrXvtG6ete9tO69i5YG3QrgXrXthtLVOzVlHbbBtUB+sPWd6TzDdZRvxl4i30k3J4349SzpfJV1lTze/YWxe+aH/7wbQNKRrNClDX6fm/lmOWafjZ1tBqBzpb7SfzY/bB/n22Z3jSNneP2HB7v6LEOqtNpGxJAPJdyeRDDcevbt9tBxUtb1ZE39Wp0QFbUOVbrKNz2DcbnlHeb04v2psHjlp/Z4fqIOpNW1d5tb0zPGs/EFhcGp2yQ1199nzXkP1g6bi9OrfDmiWDMXUwP9q11/7q6AW7oKhwm6Kpc0Nz9mdnrtpNAWZrKmfzkt/7evb1Qyfs7PS07R8YstsT8/aTky/aVYFSoaZBgKNOS4CRqO+0xoNHbeuDN23w0DOWbOCHc7yIYTi93MliN25Tkk2VZBOBJP/X6bNnBGZ37r9nSwfPSf8LtvfAWbt15207fOKiZRUR1zUP2LXbb9gb7//ADp16waNIosHbAk2G4HVtQwK/LkWQc7Zpyz6b0FD7nMCSOcnW3o0xQDJ/2WBPVWpEpgiaFziJfLMt7j9u915/z3oH2BBYOoVXXmylMjbR/2X7P3/8r+zcka9YS+MfWCbzVY0qsvHUzUfRE5D8dZEPt6H6RK+dmHrJXj71pk337rGWymHb3/+s3Tv6dTs4dt4G03PWtm7Muis32ebG3TbRvsOmuhbt7MYb9q1nf2ov7Lhn7TVj/hKiN7fZ3tv/l3Z76V2b6dlnDal+y1W3Wz7TZikZcvg2NoAkm6SGrZV8vZ2esWvygze+bmfPXza2/Oc5kePFl2569MgmnGywyjnzkmygypwkw2iiT4CSYTrl40ihPobRt159ZL3DMnINfTZoqFiWyDkBkq1yfiJTQDdEkkFGnGOogDq/i8jpyDrGnBwDkCzPaQjY2mnrO7vt6c4ue0r0NdG6ji5b39RmTynaWqc6y2Tk5TiNeMsJqDIF/qMcRaZh/nR6q6LI279l//ef/U/247cHrKOtVU6pIbCA/WtyzPWKJIlOhpKV9v2NvfZIgDyqYV+LHLVRwJdLi8/KlO0SoH+wdMwe7D9k8z0D1l7XajmBM4Bc5W+tBTwaliZErXLErw+N2/tL+22knWiVaYGETWbz9o/bD9tfKHp8tqPXjgqcz9W22HvbFuyDIwLUxm4bV3t+uHvRHiwd1aii11pV/0xFrb23eNIe7TlhfbUNtlvt/avD5+zY1lnrqs9Za3W5zdU32deXTtj1mV2yA+Zu06pXsmaZTceIOpcFS3VO2bpcu9rcqOhNIFkyEkG3/PLC92xUuwFJpi/YJfy1R9+0E6dfUmc6bHkN19lB/NLV+3br3jvWIZCrbx30yPEG1wNTPudI5HhM0eerb3zT7zHsDsRLmv3HLziIdg1N+3V4yQM4MofJkqKB8Xm7cUc2JOBll3L/zYPSVev5+kSLdbf8hv3DN3/DfvKX/8JuvLzORkYqLZ3O+DTX2gAJPQHJXxdFS4Ak8LxAbHPLHrt15G2B5SUbz+2wZ7fftOuHHtlM0z7rr56xrg2Ttql20c5vf9kuHLxlJ7a9aFe2vG4fnPyxXV143Qaap/0lz2B+Vo7513Zx813rz81YTXmXJdcLHCuYgwtD6mUjdyATQHAdQJIdlgHJ3XJwNgRmpxeG2AcUVQJizB8CjIDkmWde8mF1NLdZZ4v7jtqjtz90IKUsBzlFzBjXiTPP2+37bwgkJ8wXM1dl/Ail8tE/Y+6+9rYdOf6sb/ZJlO0vi2KQ9EhSgAaws2lpVu3JVkVLeqoUKfbv3G0jx0/Y8MmTTiOnTtnG06ete8cuq2hss/XpGjmVokm1NZFX24kkBZLIwLfNj6ceZrcU7MHdDfb//Oh37Hv36q2lpd42CLSe1rOn5XTr0+3ip2A9lWX23fFue3Nhj40JCJqTjVZLJKo6MpVJ25prsNf3HrRz27ZaUz3DU8kBOQvcGZ4ur+1r8BcuX1d098HSPhsVSFb58pRqm6mts/+084j9tSL41xb3aJi82+5rWP/avn128/A+a2/utuFkwf589y67tLjPOhvarF6R+XS52jCzZG/ukRya22xJkfZPTl6wmYlBK2QqrK5ivQ3X1tobi4eKIFmeSEoGkpF4W5fUcLbQa0/nem1docPWKVoskw34QvvYhth1iZc8AFG1jv7iRu1hHvKBQHKXADqjvMxPMlw/euJ5e+Pd79nI5HZr6Rqzq6+86UPo8OIGoNy6+5g9fO/71jm42eccoyU+zAXX2wGB5D0BKNElL24cKHVk6E26Pt2/ePmuPffiKz7cp25eGlE3Ee76VKd1Nf+G/f0HX7Cf/jBv16/128bxTg3F5Q9rgmOgJyD566IvuLAlfJbsdOUm7Nz8Dbu++w07OPycXT563+cV+9PT1lY2ZgOpWTu3/ZpdPfzAFjcdt41tO21322l7bf+35Byv2VDbrKVk2EM1c/bu0l/a6fFr1pXeaDWVXZYqU08qkIwAkjrDvBxfm0RvsUOECREFvvbofVs6dMq3fAckISLBl+88tMGxzUWQPPfcZX+h4y+gFP15mlce+twl98KWboAwy4XuPHgrjiSjrz8ikBQgZOuttWPAXlUUevzUc/5fm5B3GSRrnGefjxTPaRlvJgbJCoFe6+SMdW/fZd2K7KAugePA4l5r2yynquermWj5TTmGrnISKoehNgDJ/0Z8aKaIqakpb5tH/sD+4pXfsB+91abhcaOcsck2sOREDl+uSJKvX3oqy+27Y/32cNceG63vtiaBRI2iqTQgWZWy7Srrtd0H7PA8/7tmmM9aRtrBS4+66CuSmOrKMvb24Ji9RyTZ1q6OJW2JZMLGFUn+w44j9he7j9i5gWHb199vhwYGRP220N9lNZLDsDqhHywu2LMC62aBZJ0i802VtXZ3dske7TttQ4qkd6tj+ZuTF+3UzKx15tIarVTYXL7ePlw6JZDUcFvRZnkipXYVbL34eUoRaXJ01iraJ6yitsvKBUYRSEYvbVhyVVzIDzgKjPxrl+p6/+fM629+S/bzjDq7bgepvMo488xVe/jWt61fYNbcOWpXFEk+f/VVa9J5tQCRZT4HT6ojfe19axaIEhn6mkmVD0ge0rP7KpcXPVWKdokkmZOsyrdavyLI56/es6sqc2xqp+xVMhRwpnm5I70xXVCWaLWx/t+w//pvftNuXGi10YFOa6rrkL4a/CXe4+AY6AlI/rrIQRLhp5PN1qhh8bbuw3b3+Pt26/hb9sKxOzbWttWaKwatoazfBmtn7frp1+35w7c1HJu3nrpJW+zXcOrsd+yFpTvW1zqlCKbZBhtm7fVD37EjGy9aW2bEClUdvjSIlzpFkISBuO4oAlypeOb8AMAbr7zuPwDihQrRJfOFF1684f/rAAR5ERPWPRJxkpYIlCE3gMn+mGGPTMoHJO8+eNv6Ribj4TZfgOSsoCiPOcyxiTl7+Ojrdv7CFesb2GiNKpNfQwR+OcIrPPP9NYvDUyKW9KxnKK1oNEHUCylK9nlH8ZHU0Jzo0QEypuhzQCIhpRMA8gLHj0SCGlrXZ/6Z3X/mC/ajdztsqLdZgNosoFQ5oqqMHE9A2F1RZR9OTNirC/ttsL7L6uWUeYEIC8UzipJ3KHq5r0ht/zx/uoPvvO6zmBxwiUAmUK0iyXsjm+3h/qPq8LrUvpw6grT1JTP2/alF++ul0/Zc/5hNNTTafEOzHerstQOtndauOsfl4B/u3mcnFvZanYbjNep4hioKdnVuye7sP2199a02p87g+wLMb+0/ZYvtPTZZ02DPd47bD4+/aJfm91pNncAmmVW9ecmw1RoOHbORm7etV+kzjfwAiuU4AkGflikFFK51X2AW1knWC+yu3nzdrguw+Ak/w96NU7vs/sMP7flLd6yhbciaFD0yJ/nqow9t85Yla+2ZsPHpBbv3+jf8RU2N6qTMasm7UkDIlzWHFQnff/NDgeSMokiG2gLrdIMNT27zN+WP3v2uHTj2rD/v6J8QEA+6fsPPw/iwYtPQb9h/+vFv27GldqtV9Jphobz4Z5S1EhhLCZCMbO8JSP5qyYfbCD8tw6pNdlh/3Sa7sP+mvX75G3Zk4VlrzQ9YgaVAFZ3Wlh2yowvn7eoz9+zMoRfs5P6LdnrPi3bz3Ot27sBl624Zc5DsbByzK8detX3Tp6w526/haIulWHMpA/HvmKVwKPrKJ6r/MaXrGuC7pajx1t1HMvj7fuQN9vz2vT4vyI+BeHFz/+F7duP2A18KdPvuG3bn1bc8L0N5okB2W/dIUGUSZd65/5b1j/CGk7V1OfX4DRqWHbTnLl6x69fv2Dc//IG99dY37LoA+OTpC9ameopRbimPIpby+OeFAswyfiimyLWc/3VUiATM/guION/yG/KIHCQBWzlg9IvSaPE2TpVSxJev/i17JJD8qUByoofPKZVe0W6VgIL0GYFyo4bUL05vtRf3HrUuRb4F8ZFRuUkNf1Nq21hdu720/5jt2bLdsgWBifJUSybhhZTLP6aM+D49td2uHjltva1dllDahC9bydhuReq3tjDneMxuKDK9vnjA7qnc4wPj1qMIaVAO/vr+I3ZGYN1R22qNand3Va2dntltl/adtH5Fkd3i7aiGsB8cPGcPde/awkG7sfeY3VN0eXTrHivQwYjnpHTF0q2hs8/a3nfft42nL1q6qVcyUbQtMGGIzXSBA2VM0RtvADK6zta026bpXbKX1+2mgPDii7dkG2/Lht6yaQEyHU5Dy4Bdu/XQXn34ga9rfEkR5U0Nv2/fe8c2zS4qAmzzctEPUxN8v30EkHz0gUYiGopLD2XqIOtb+u3ZF162D77zl/b1b/3Qbt17UxHqPXvp5dt25NmzlqwXwGbqbJ14yyTSNt7+ZfvHP/tdWzjYYRUFtYdRlOSHDUU+sUyAY0TSkfQRPgF9ApK/OopAUpSSAeQSTdaQ6bLRnlmbn9hjvW3jVki3WLa60XLVzVZItFif7s1PLtrWmT02s3GHjfbP2MTgvA33bra6vIYNMtSCopzxgTnPn0+1WprPFQWQfNMciLWFASRXMwWxPpF5Rn5NuXP3IZ9nZCkP0SRvtgE9QJC/uE3N7LQdiwc9HescN03viOYoFbnxtQ47qoe3+CwYB1CZr+R5haIWvlse3zhrWwQCW0ULO5dsp4B469bdtnFy3v/BjQGvxSf8u3ELmNjVhg0c/CsmEVumuTF/lEHrvoOkhlqAHuBYJJWZXP879ua5f2L/8Ru1tmfij6y19l8p8iizTLqg4RlTJALSqrQNt3bbuCLteuZ35UApwA2Q1POGQqOGd6PW2yGQyShi1DOmF2h3tDtRRHzxkRS/fa29Nt4/bnU5Ipvoa5qkgJI1joMNLbZzYNQOT0zb0thmW1A0Psz8o9rQoLbPdw/ZmDqUBsm1Vu2vq8jbaOuAbeoZ8zfgOZYKFZptV++4HVfktX/jFptUGSN9Y9apiD2TVodTnZMtindF74XRSetY2Ge5kSnboCiUFx8pAY0DosrjuJo86oojsrSGw/yxcOvOA7Zlx37btuugjU5s0fC7UyMLtVcd0sSm7Rp9LPizxb3HZUeHbUy8ZQptrhcfAquuMpW5Qccj5160VzTSaNUog082n5IeU+qcRqZ32oxAf2bnfpvettfmduzQcauNTs1adSEnkFynkcTvWW3mf7btg//E/q9/U2kLh7usXNE9/1VC3xFIRjYVER17IHQBSEb0BCR/dVQESSIi1vtlZBQ59dh5DW04940ZYkoJ2PIyrFoNhWoLrVaQ4RZkiFBWTs5uLiyJ4ZjV8CKj85A3+izvZwNJgIf5St5YQ/yELNpan+cyFoBEz5mr5Hn4Cx7ze2FYwj3mNHkJw5H1lgzRGVoHACNKzCty4a1vTnlreDGjY1Z1pVU+yzccJD/CMMMUAiBcSsV5zI8i5QEkiYwYjkFFkEy1WLqqzM7v+mf2X75fb9+/W2HPH/yq7ZzMW2OuoIgkb1lFXQyps4msZeU4GZVHBAlAQkndAzD5NDEnIjKswuH86w6iyWXii4+kiHLzAK34r1b5lRpyVwgoyzTkrhLlMwVryNcLRDWsV2RL+ThtQgCX5xNIHasEdNWQImlAO8eXO9RRnXUeCoqG6wuSsyiVi/ii7qRANCP+AEnscYPkv16g+pTA/2nJCaCK1kNGtHI4upLCAnMic958Q7wgYzqD++xbyTErMOReSjbM718zsm2mPXgG6PLHw9auEUvzR8uOQTtz7a5dffS+5bpH7Guyka8IzL8m/jbIztbJhspElfkWq85nLJXPKzrutbQ6mULdH9nU3L+0o/v/qX391p/aP36rzqY2Mx8vX9EojtURa4MkHW1E0ffxT0DyV00rQJJhY/iumA1m+a1qtSKCcPRfrOpYSr6zjZQbPrVLy5ihqCyGdhH9rCC5gmQQAE4RfFQe94kEHaB0zj0npQtRI/n4F/DJM897BPnc89ft9Tc/sKMnzvvbafIBpMWXRzp6mZDu81dFFn8HwP0owwzPAg9h09xPA5L+hlbOGP0bJ4BlY7TmL52y9o7ft/PHW+zlcyN28ciY7Z1VVCZgyQlwMqKkQLJa0STD1ACOpeQAKAdLptVOOVdC1wkHwIhKQdIJcKvKOkVRXQSeAB+R8Qadr1d5/nmmzgFbn0MEHEVEqGyD5kur2HJNjl0moC0XkEMVAK/4IF0UzfJJrMDTQVXA4vVhb0ojYjhbJjvx7dNEGwSO5YDkGsAIFV/oiBh2L7/g4Vk09+rkz2WHkjX5iCwZqgOeDsTYpvJ39U7YMxeu2ZEzL9mpF27btYcf2r4zl6y6oc+eyrbZ1zRq+ppGW19NN9tXUk32tK7XpUXwq3Kr091WLbDPNVbb3EKjnTozaBfPjtixPd1WaJT+eeud7JSuiFojf3gCkp8vipYAiaLP5GJyoJRDiQLI+dyaQLGyMudguQyYUbpA9IiAZhEkeUngaX42kHSwiylcB5AMAFQKXMvPIhCFAFD+L8wc5oEjZ+zI8Wdsm4ZDvBXnbXqIAB0EAUhFOCzyZh2j7x8p8i3RSupZi0pBMgCk8xHz/vEUg2QASoEkxKYUfHtdnXvKmpuS1tfcZP1qS6eGdrVEZ0SRAp1qgVFltdLxdr4EHCF25Akb6PLGOKEjQ2qiRICvFCQDAVoVArkqUUrAxUse3t6ndGQjCYaX/1r1PyXZ8Z067QygW6byAcFy5XWgFH8ApB8DSOo+aRwsIV0DkoBzFUeVQ3mRvUl+kOolMmSvSQAzgNxHUdjkFmCMNgxZSSGdAyuAqHO+/w7HkIbnhfpODcUP2f6j523PofM2te2QNXdvsqpsp+yjTXYiSrUKvFs0HG/1e+U6liWbxStbr/FWW6OsQsEa2+usq6fXWtq6LV/Pm3FeQrUrDS/JnoDk55UeA0nfEDYmrh0k4+fhPESbETBG+Txa5Fkg0pZQBJLLtOLFjaiUKSgAjgMe1zFIRtfRPQc4DEsU3YvSQEXwEzHkBiyb2wf8nIjRAUxpvEzSMqRWNMnb5/UCl1KQXP3CZTUFEF0LJNdKv5KUV5G3z7GVDLvzkk0jIJWqElX4tmK5Kt2v0hBQ5TLUZputKoAnwVBYkVgJQK4GSSI+wMcBUkRE+VEgGcCMSDKAZFJHorqvit8/llw4rpMOiCwrlQ7QW+cRYwSyASi55tzBMSYHRuVxQC4BTu5V6UjUWikelwnAFH8OmBFoBgK4w/fbpVTcGWjV/VIKaT6uDHSSr+u0xpYBq2/qt1yhS1E535C3xBSdV/uel0SFzZJ9k/wHarS0Ex2e9JVK6agOKM1mw5TdpLStygPJ/mQPAGMpPQHJXz+tGG4Xd85muKxjERxj4n5avV9Kx2iiWRGGIrIUzh2n8ft+LmXKoMP9tWi5x3ycSkESHgMAOrjpugiQMRCuThOWFZE/RIy86GFOk2uWBAUqV3oHXeVZr/zr5PisY3RSvk+iAKSUE/7hzZturtdKv5o8v+r2L0kAa8kzI6fJ61lGjpEV+ETA2Ciq13WNHA8gxHkEKH6kzR8DkiKAMSkKAPmRIKkyAS3mJENHSEdHB/K0ZMdWZtHQly3EkLfSK88GQDLO+1HkIFp6vSq9R5eiiJ8IKLCjiI+I+E4+0vdnSZGduW1hZwydFe2zSxY7YqUEfqmUADDNVnJNOhco6j4rOPw5b7KVPifKqpy0OoKkIv5kdUrPo+kR33NVoFqto79Ec/Bb1tdqegKSvx56HCTjcyc3SDlbfAznpZSUEQGeIQ8AynWILkM+J937tISRBoJHjgCgg6DI+VbdkREvP/c8qsvzxfcBRRaVM+/IInDylGloF9ZPRvkkEO4rPRQBVwx+n0Ck43vsZYCMQLJMILVW+tVUrEsESLKzd1JAiSzZrTvrztYgp+NlGHO+yFzyL3Ug0epIEuJ+AMAAjB8FkBBlMVfIG/BQdni7SnsAxuW1ngDncnrOw5vztYhnpc/D9Vp5woulwCvRbxQBq90ibCQY8WdKamd0HgNlAEsRaxvZZ5Ujc4rc8+ciNlNm2gld0aGl1Aa+z4aSIpZnsbcnw2xWNkS7vD8Byc8jFUEScqCEiBw0tHGQ86OeMx8pqqhUTx8T90gTenjOcWyPNCmPe8rvQyWdh3o+Da1mNIBfBJIRCK4GyOKz8FxG6tGozgFDXsoAlKwzq5DRQgFYo4XdRHNRmX7NuWg1qK2mzwokcUCWVDk4ijgnaqdjImpc4UCitUDSl/GIl09LlLUawH7V5CApgh8A0l82ldCvFCQDyZZ8aZGA0El6CC/biuTPonlO0vu/gNLyJ4hObRWxV4DbGwDJiy/uxW1fi56A5K+HinOSGF0xgoyv3RABSI4iwMfniGLALM4XlVAA2jDchoppdP/TUuArEEBWBEBI124oMXEvAGUAvgCiEJEk1wBlGIqHYbgPp7guSR+uoU+KJj87kGQ+ayVIcp91dZGzRM7jDiRaDZD/I4AkFIAyRJXRMFx6+ixI+nAqPUdHshE2Tob4LNI/jUwvn/t18VxpBXyAX6W/9cfuInIwFHG/+FO5oj6fgOTnkUpAUkqk9ws9IMARU9iUwv+EFw8nSr8EWElKx3GVEksB8NMQczQOjCLycyxGff5cpDoCsHnaEqCMnolXgQ5pOPLCJlrmQ88f9fbk87bF5Xg+2sxXEKRTvk8Lkj4HWSTxIcLh2avy48oIjuLOEoMkv9EIIJmNCaBMsfBcjuhOh8MkmZNUB6B6VgMkayZ9XpI2rkHhGccoOkNuWfGaVXsCaKktoqgNoT3LFEAtnC9TlK+UfClQKqe00bFMxJF5yYiWy2OZEGs6V4NkBJzcj22glKS3FVS00Y+gNdIEm+dZODpJJxWSfYWGxnyrXZ7WeYZ/3NQbf3VkoTlH7pdhMyL2lYyAUnaYwRaZJmGtqNrHy0OVF4Gq0hXBLwLEtegJSP56aBVIyvmktIQUDeGkSSakOSbj82STlBzvDr1ieLFMvti3xPEdeGLHdKdUfeHTxNWRayBAJYAWRsq1A6XI5w9LDTimAHxeXww4EGCXYFF4loXa0dtjN3rqoT6lie5H6R1cZcSkKQN4Vd5jwCYKjkobAUnnK9xbYeCfDJI+7Ip59h9oxbIvqEMqJNOWS1VYNr3ev6X29kCqMyFASyb4RUPWsgKQnPjlp18AZFJlhzlml2s8KnC+mVKJ5R+9bJMDK186kdB1WjIAdHmBIr68U6RdcXtisKKNG3B47osAuOh8WWZlKhtiH03SlqUF6gKKirSAWMS32gnxz1xdAFqOxc/v4rqWo0jocZDkLbXbn+zXyW2TVQzoeW1yW111vXoIXSxPNsOfG/0nYaLwA7Cw6S7XHMuUFvAkyuRlnBMRZJbd28ukw69YNlWmzg6bBiSblaZZddDeJyD5eaQIJCVwj56kYP88TsQvTtOZVqcUX3/wY69kmx/5r3O1/y8YoOTNXLSpgP+yk95W5ZRjJEXCgGMDwNjloCvWTIqH4LzB+COgFXEUlYs//iHDWjnO/W2wDDdb227pAv+ikYHz5tqNOXYW1Q1xvxqAzDVZvr7TUqTHmOOySc8zFv36XwHjPJz7wmU99/pxejkoBBDkK9lEIpJf1BkAKBy5FwxbRu3X0f3QcZRSmP8M5NMBaX5+1WltlVnryPyRtbX8c2tu+y3LNv6plec0HEdHGrLl03lrTOSsTdFzv0BhJN1ibfnmaOst3YuWzohiUHT+qlWvKMkbWOktvHgoqN6+dMpaCgXLqY565ctWySaqJRt0JdkXo1TpEUD7muoPIAa4pasEtMhE9bDZxAbZx9Oyia8J+J8WvxsyOYG8AENgn9AxK5BsV3mt8Kr84e138d/eyM5BsZSW7SSyX2SLntC9ACoQIOQkewykNvsPw3SfrdVS+Tb/jtv/vS3wY3/NQGxqUalynJSWfSPZfZw/KwKQXLOVGkDp/wdXeiLLar7q0XlUN7yI59xXLdfy29bU+k+tveFfWlsq6RF8eZq/fHapDgD6CUh+Hsk33Y1AMopeEurV+HVnOtUqR+sQdcqROgQGHZav7rJcVaelK9stUSmgrGqW88ig/N/BjVI6i2cxChkrACWggXzoESuXIRQgybfcqfh7bpx3GSQjRw4GH7apYt9Dfu+JEXKPfyPnZLDbdh+1bYtHrdDU6/dCnoioW7zJkJOFdqtp7rcde0/4noCNHSOepjLNnoDN6umbLSGH4Tej+cYeS9d2er7ov8wRWDLHCEASzeK4vn5QbfFo0GUoIHJiCMu6xZhk3D40VrQQvuL5KIAMhIOm0wmbKPwre27fH9vdW7V299UOW1zqtUyd+OJTumyN1SbSNlSds6OdI3Znbsne2HXSLi0es/nhzdaYlw4l//ASiLev0VcpgIWcUnKNRgbSebLZmnTvYn+/nZqdtZb2DoEI86qSY4KOkWUt0ZtaItWMQI2vZBg6Z3TkbS1DZqJRPkPlF8TYRaU61AqVzQYRGzK1tj6bU9SecsoIkNvSBTs8uMmWBiatUAs4RXaSIPoSuZwkU4x12UYi4p5Ps2AzAN8K3UfktlNC2BBHnqHjXftO2vbdx1z33Ktixx/fZUlH1z1giX20WEI2tGv/af/6pqVnwiNK/m/DfYCSbdNIl9J1Mk9nC+9t0nFW6f7IFg5X2iu3m+yNm3k7v/gnVmj4E6vIsjUcUava5OC3NkBCT0Dy10MRSOokWtaAs+AQRI3tlk91Wz7ZoyFcl2XLuyxfofPybkuXd1iqvM2SlUpb3aL0Mgzlg5IsruUoymQ6FInKYHzRrXpu9fgOIqqv+AWODLw0kowiMUCV3pi9/OilI6pQlFSB8fLnvFy71bYO2fmX7tqZCy9bc/eE7um+npUr3wY5fxmgTSRcy/9H+gSM45725r33bGB8mz+rEFVm2qy5a8LmF47a4VMv2Ylnr9new+ete2jWqtkTULwTSYYXMe60IqLv0mE0IJkQ+VBXhpyUYUOsZ3TgdPCLHT+mCCSJIpaJyIhnieQf2Jm5L9lfv1dtr75cb6dONNjkeJtlBN7linwzAsnWyqTtV3T8zsIRe2vnEbs2tsPOTGy3WYFma67ZajJ0RnljZyC+7WZZSkoAS6TNxrYAQErRTFY6YsuzB9NTduvoIesYGrSv1hbsXwusn+afOpJBSm3IpPh3toBRlGIpC+cCyKSOlexVCcBJf9ESGeZUGYWIV+ridxlZ5ckkxXvCatJJG8zW2d3FI/bC/G6rqWVbMslRQFktQC0HVCUvIlA2KnaZF+0kAshoDlpAKXsicgPUifAcEEuIew6a6JIIUWDGLuT8z+bc8y97h0tUyMa72BjndJ6kBQCjH351+m8d7jz8hvWPb/G01eqIwrPu4Rnbqg5794GzNjEzr9EJuuxQe7IC5D+16e3l9uzxSnv3xh/Z337w+zY5V2ZVhQp1hooqJdcnIPn5JP+lLPNT0TovOYx6vmS1htmJdssluqwgkKxJ9Tk41lT2WaGy17IVXZapUJSp51kNCTNyIo4AaqG61+qTg9aSHrfG6mGrq+y3ukSf5YlGVT7gyJApzDX5HJbzIOXHgO1focg4k4VOGaAcNK+8db2K7PiBfASSyZpO9eaT9tLNRzLcO9YkkEsofbXSR2DKp2IC2hgkkzUC+cYBG5vebZu3HbRC86ADL2Vl6/ts6ehFe+7Sq3ZIIHn8mWt27c47cqA7/i+TapxFPDlAyln5Eoe9IaO3kwBkQREKAAroabiFLBnGsljYFwwTocd7CpIvBsgIJInoFEmUElMBilKqqv/QXj76JfuH79Tavi1562xotXo6HnVAbPjakq23KdV7Z3Te3jt0xo6ObLbhfIt1CUAb5UiFCn7xWiWdVVljMmF11VVWpyFubU29pQuKjHnDmmm0nICyQVFfm3Qw15qzydEey7Q12/pCzr4qUHlKIFqWVWeWSQvckpYrpC2VS0t2aQe9pxUdlinqTAvgsgKGjMCNHX2ykk1OIJ3WOVFvudJV5FS/8tbr2JbP2aj4fOvAabs0v8fyBQG3ImPAtlLllNWJh6Y2+4rAcx07GK0GSeaLAUkN8f0rGSJkwFCyWx4Kq0OQ/oj4OI9+FSsZ6xm7kb9083V77vId32yXe8ma9jh9pwMqAAtIEi1yb2Rqp//vhmE3QMt9qK5t0M5cvGm37r9rb7z3PTt+9qLvJ+r//Fb7E9kqy9evs566P7LDm79s/+0nv2OLB7qsuqCORADJaOMJSH4+yUGSjQRqZACdnRutuXFYoNdpySoNPat7rLtRjtexzZoyI1ZbOWDNqTGb6F6w+fFDtnP6hB+H2rdZY2bYapP9ViNAbEtttG2dx228ftFGGrfb/NAB2z51yDaP77Ja/2UtQySGanztIqrKigf1pDJ6Z4yhvwwzLSDsHJyxLQvH7cCJF2xm+2Fr6Z60dF2PpWq6BWCb7NLLb4jeVC99yLbtOWlbFo+rl98mQOx3cE2I+se22tTWgzarSGvHvtMOkvmmATlUiwMlADq15YANTe6U44wqKt1ouw89a7cffOB/zUvLcZZBUs6aUYTAix0BHstxiIS/pvb8iQx+fe+YVYzMW9XIDqsaXbDE2G6rGttlleK7WsAWvSWNIsro7afKkTM6ySEZAvu0hwAwl/lde+30F+3vv9lqsyMFRfQC/yqBf1WDwKjNNjX02nl1Dn+x45j95f6zdkNgeUwdx0zXsPQhgKqotP7qlO1qarFtNQXbVd9gh3oH7ej4Zts6PmWtGra3Ss7b28ftWN+cPaO8l3vabHdPl9U3NNvT+bxAkl2dmmy4vGALGkI+09tvlyYm7NzgiM13qpOsyWsYnbGCHH1HW5/N1XXYDnVKJ7om7fTQtC32jlp3DdvnZa2+OmndinwX61vs7PC4vTA6ZVfaRu3Pls7Z5bndlhd4l1cx/JQtCCRb57ba+MnT1qRjWR2RIEN85j/pUGMjdrCQLBPMGxMlLr9cARQZFs/uPKTO73mb23XIGtmBXBEggNjQMWKXb2M/DwV8e23x4BknokRAE/AjHb9qmFekPrfrsNPk/F6flwwRKgSQDkxsVXS4x15940M7df6ydKiOToAcrZIQn9VZq6l+yrb2fcn+21/9qe3ZNyb7FMjyAusJSH5uyUGyrDIncBywk4desrnNB6yu0G+pynZFF8O2c+NJO7rwog20zltLcsy2DByxS8dft/MHb9vpPdft0uHX7YUDr9ls30EH0ppUr/UWZu3q4tt2butte27pFbt06jU7d+Sa7V88bQ31GtYAkhqesQUXxsPbXF/2IiDyZRcy+KSMc3zzol28+ppdvvWmnb90z66+8rZ661s2OLHDgbKxc9yf3X/ru3bl9lt27oVX7MUbDz0KnJzfb5n6Xqf5hWN28vwNDc3v2Suvf+ig2jEwLUdq8WiTI6CaUZkAK9Hlpi37BZLfcJCs1rA1emFU4993p2uaLVPT4pECi7t5oQFIfrWp3TqWjtqmF1+x6Suvix7Z3LW3bOrSa9a1+4RlGro90gQcqwS07PRTxTyWHIyXBhWKOKP/Riv6zG1Qh/Kb9vD0F+zff6PTZsYU8SndBkUm60U1iqp3dG20OzN77D8cvmB/d/SCvbV1v90S2O+bmLemfL3lq6psQQD1xtad9vKmTXZn+w57sPeg3d59yE7t3GtDTV3WrzJPjmy1l7cesYez++wfFhftzZ2LNiTAK8vX2tcE5s0aAbyQ7rVvzS7atxf22tvzW+2723bbB/uP2pbRYQF23nqrc/auosFH2w/ag62H7OHMAXt/11F798BJOzI0bs2KOAfKE3amsdu+sXjQ3t1z0B7OLwrgj9pPj71gVwWShTp1Eook2VItX99mc2eftZOP3rId5y5aSsCalIzTVSwHijpT5m6jr6jY6qzZ55CZEwSwGAbzj+znr92XjTz0YTL/syHa6xmdFfi1+N8Qr9150157+zv+B8SLV1/V9Vv28v33ikBIxMgvZflLIkNznr9084GDLZEk/74JQJmu63TgfeW19+2IQJkfrTF14vtSMn1UxWelFTbX/yX7rz/8U9u9mLZkvlwBQZXSPhluf16p+EvZhly/ndt7004tXbHOpklFId3Wk5m18/vv2KGdz1trzYQ1V4/bdNsB2z/6nE13HbDRxp22NHLBHp79gZ3ecsM6CsqX6rK+2jl74/hf2MNnvm+nF68rClKU1jVnXa1jGoYxmQ9ISvHpgoxbUQb7QLJXJOAho2I5Rq168otXXnXwI/ID1DbKibk+fPqSjHHMoz4iScAMIOxS1Dkxu9fuPvqWgyWRJlEiYNo1NGt9iigvXLlvt177wHoU7YW5Tp+7ZJ5TxPwkw/Ijpy/LId72v+LxJjyAJLsF5eTA/MaUn3ex7pJ5ReYrKxX9NXQNWvvwpHWOTFnn8CYdN1nb0KTVdgzIoZkLJHpUZ8BcodqcUZSaZC5Vju2RkIbp1ZkWKzT9ng30f9H+/NYX7D98u8fG+pWW/JIf/4zOa9jdU9dtO+TEf7ZlyR4dOGpzQyM23NVvnS1dVsgWNBKotoMasn53/yF7++hBO7FlxuaHh2y0vct6Wjs15G2wWvHTo7YMtw3YbGO7fW9+yt7bL922qIMRn7SrX/z9cOKgvb33iG0b7bOBjno7puj0W3sP2eVdu2Q7NTaqkcBPFGV9cOI5W5qYs43N3ba3rcc+OHjC7ghQ2xvqbU4d4jfn9trDfQdt52C/berssH29Q/aNw2ftytyC1QgkE8lo6zd2nh/atc/2vXDNJhXl1QtwatWZs3Ev3z0DEv6Ne0H68r8lajjMHGFWQ2zJJ13XJdC756A2s+OgzxdOzO7261PPXbealn6rbR104Hzl9Q882uwZmfXhNH9PPH/pjoMokWRT16jbAXTm4g3Z2/vFPykCjkSUUfTa6Hle0fMVIJlm+ZnAW3adSFbZZLdA8ke/aRef/2cq57csW1umtJknIPk5peI6ydqqHts3fN5unH7bZgb2W2tiwvb0PWuXj2ooMrJHztRvTeVjNli9XY55yrZ2H7eFoTN2edsb9t0L/96u7Xnb+hvnFRG2WHfdtL1z4q/s+sG35ZA7rD4zYPlUh6V5C17NnBLDJZTNXFWDnKNN0Qg7ojBfSSRZb8Maujx853t24PgLVtM86C9ZiApPPHvdgXJgYrvPQzInyXV7/2YHxJqWITt94WV7/d0fFIFwfYLhEPN47Xb07BU5wXsaQm3xe0SREADJcyJUQBkgXVJ0hjOx2Wu0TRfzjgUBW7P/szoDzwyZZbC+Y1BW0UTboFX0T9qG/mnRjNP6AVHbiNfny5oYsit9UiCZ1fCUN+9EQcyn+VykHGp6S9beeC1p/+9P/9B+9FqjdTU3W9L/dEgExYYKAgeBaa86uA8m5+3mvv3W1sZyqDp/oZPSEC6bTNj+2hb79sGjdmPPLutt1jBdQ+OE/+ArF71cQgfihV3LmzU0fzTea28LJEeaeo2Nk5kzHhePf7f9mP256rgw1mMnBlvtZneb/WD3gj06cti6m9tso4Drf9u5ZLcUofY1dVqNZDIksHtjQQC+cMA6FGXvU2T2j4fO25npaUWKaXs6XWbtaaXZd8wuz+y0Qj3zuIquKsWf7KJaQF3oGrOa2h4NU2sdIP0n/kkI+wkg2aHOtsWnaHgjzVwiIPbgne/ansPPOGACaESFJ85f9RcvvWNzDmj8UhagJDIkciQtPwIjL8DKkJ2olKgRQFw69pz/Upbyoxc70fwnxLIggPeuQPf42Zd8aVGVeEkoTYahu87XJxLW2/Jl+7fva4Twty326K1Jm9rcKh2w3d3a4BjoCUj+eqgIkgVFjpvrl+zm4XftzNabNlGzx17a+dCe2/+KtTSMWi7RbW2VG21X62m7Ov+2Xdj1qh2dvmTPjd+3D4//rV3f9a71N8wpQqy3rvope/f4j+3slpetOUdeRV288VaUFCbewyJmNsNwgNQxAs8IJDep138koNux95S/meaFDC9y9gm4GDIPT+6ylu6NHjG+eP11B0xADiAlzevv/MAjR4AJkAQIOT9y5rKDJM+qsizdwAHaLFGQo9V2+9zmZQ3HeXnT2jsZOYcigACSGzSsZME3OwoBkL5cB9DT8DlV32kTC0dt8tx1mzh/xyaeu2fj5+/qeMf6ls5Zpqnfh9vlcVn+rxrfxTpywjDHxXCxpy9pF0/+qf337/8L+9H9ZutqaVKkLWfBQZSmOil5CCTbxc8Hm6bt5aWD1tqmNmiIzG9jE5mspVNJW2pos6/vO2zPzk5rCM6SJIGkHM6/JxY48lIhUGNVwl4b6bJ39h+0YUXyKUVCjDI2KtL8Ow2L/+2hI/b2LgHytkl7uG2zhsw77ObiDutVvRsFXj/dsceubdtlXXWt6lQbrb8iaa9u3WWPNLzuaOqx/TU99l+Ov2iHR4bV0VTbhtR661cE9e7SCbsSg2Ra/GXZMUcguU4d0VfVeTAHm2K5FfPXel7hFIEkv2DwCF1252+3HYjqbXDjNnvj6z+wbXuO+58MAUlevAByACDzjjUtA/7iBgIwSQNIMi/59oc/tIHxra4b5iYBQ4bW+46ed5AFJNETxDPqRH91Asn7b3zTTguM0wLwhHQU/tTIjufrBIZdrV+2//17/9R++M0ee/bsgA0NyAey2Scg+Tml+JeyNTLMDutKbLazU7fs3oFv2emNL9ut4+/blo2H/e11pqrT+vLz9vzW+3Zj63u20HvGJup22878GXtr31/ajYX3BJLzHil11E3aW0d/ZCdmrgokR+I32zIWGVEAyQCUUNhFKHpxw3C73gZG5+3VN75le48852+iAcBcY7+dff62Xb/7rr/QARiZs2S+slHDb8COFzInzl+3W/f5gfys3yOaBAwBxaNnokiSlzk8C+AJEBNB+rynIlGG7oAyS5BYfMxmrwAbP/rynXAEiixP4T/afE3CAvC0nLWlY8TaBqatdWhOtCWmeWvonhAgRpEkw3bK4rySHcjl6KWOxrAtk81Inv/C/uzSF+3v3u+w4X4BiMr3Rc68MWVZjpyPReQfbJqxW0uHrE1D6FROwJfJC/SyijaTtljTaO/sXrIzmzdZY05D1ZQiSEWNyWy9HFhyLwHJBkByWCB5IAJJlvGsl0768+3277efs28uakjf2a7OqckGe9tsuqvFtrc0WGO+xiaqM/Y3O3bbje0L1lXLW/hmG1REeGduh72xeNg6BZILitL/8eSL9sKmzTaYz1hT2TqbrsrYh3uP25XpCCRTCYGkZJzOKEocnbL6+QVLtY+ovexQlZXdRJ9NApL+hYx4hFgryZIm5IccOwen7LW3v20HTlz06JL7gN3Z51/2+cdOgRwgyTwk/91mxEBHRbR5/Jkrdu+ND334TacVhtIBJO8+WgZJgBUg5a051w3tww6Sp569qkiyRfasiFj5iSR5kbMuXW1DvV+y//7Xv2+XT7daX3ud1eWzlknTga0NjoECQPqXSE9A8ldGRZBMJ1rlJMO2pf2o3TnyDXv19Lfs4tG71t0xJeU1W6q6xXrqNtul/Q/s+p53bMfgCdvctWQnN163bzz7N3bjwDvW26ThiRy/pWbU7h/5th2efcGaC8OWU9TD8p8kBq1KV5MDZEwBJOtlwOdffMWu3n7T5ncetrGpXbawdFoG+C07fu6yeuwha9AQ9sLle/4f5MUDZ2xI0cPOfSfs4bvfsxPPkIZhukBQoIKj8BvW42cv2817inrHNNxOA4AsKu6yLbuO2q1X37dXXvu6HTrxvNc5Pr1oHf1qv0eTEUhuEChtkIOul6FC60SApL9EkNOyx2BK5SadmGdtUcQmZ3JwY8Gz2qf0EQkkFflEXykpCpITEon78ielq0/+nr159ov27z4ctE0jGgpmO1SPos4kIKnoSOW2yTk/mFwQSJ60luYuAV9tPCTPWyqZtl2K0t9aPGQnNk9bfU4RpO77rxwEQuG79kANlSm7PzRgbx84aoPN/UoL4GgYro7i0eRB+8sjL9gVAceSAG9vc7cdHRi1pcEhq9PwfqNk85Pt++wK84+1bVar9g5WZu3O7IK9tfuoQLLXxnJt/jLnz/edtJudI3Zekda94Tn7u9OX7Yr0y3+3+cQyq+i4UNNi/WfO2dYHj2zi+LPqsJotrfsAqM9Jqr7oc8mYJPtogwnJUTIsiMfnr9x1sJvZfsD61elObdkXDYXPXfKPBmrUEfDP7Qdvfdujx/HNC7Kfk/b629+x089d8yVCpVMgAO3+488JJD90EI5Akii11dp6J2x0aod/3HDv4dftxav3/Fe2PX2bzP/RLnkT+a5Pl9tg/5fsv/3kj+3UvmFrkEyyLDYXfSJIyk+jReeRz67l0E/ol0/FzxL58iKf6HIgPL3nqt2/9k3bs+u01aj3Z2lKdaLJajO9tnvmtF07+YZdOHbbzh2+Zuf2Xrfruj6rPF3NipY0TKqv7bUXD9+zhZkTVl/odYDk5+ssMo7AUL1hkbheSRg9/1geGJ218+r5r956aJdvPLDb999TD33Fuvo3WVI9eKOGSM9cvOm/BX357ptKc99evvemXXjplvIqEswBkIrUMHKVR8R2/Owlu/7Km9Y3POMRGWvrOvsm7fwLt+zR29+1BwLc24o07j74wG6+8pYdPf2C5TSMLt28gv0UId90VgbrC50BGibp5aDRVvzRch7/VNOJFzyPr5GM1knGTi5AIp0PIwVgNZk/tLvnvmQ//bDXpscE5hquAZBVRCceTTaqY6u3m1NLdmHPCWvQsDj6lA9ieJqzyUKL3RBILk3NWE1OHZKczf/Op/KJfoubmogKVVm7MDxhN/Yds67GHqVjCFtrOelurn7AXp4/aB8snbN3dh6zN3afsFt7j9qejZv9x179Ku+tnUt2am6XNdawOL3B2tWhXJhbsBt7jlp7U7c1qbw9XaOKbE/Yd/aesvcVub++47BA+ZydmNxmuQIgqShS+fgp28DhY7Z474FNHT2nKLzJ32xnRUlfY4udMDWjtkLIEHmm1RHpvFrANDwxby9euyu7edf/r339zlt27uIN6xma9tEBIHnx8h23r1dee89u3XtHIPp1u3DpFRscn7dMrTol2Qz2A/Dyz5r9xy/YbaXpEEjyhpwvn/iq7PDJ5+zKy6+prrft4TvftgcCZ/77/cz5m1bf1CUeiRTVtuQf2eTgF+2//O1X7NhSv3SidvGJpkCSjm0tcPRPemV3vASKdIud4Lfc+wWIMl2OT+jjaPnbbRkYkQOO2NTSZ939G61OymWNF5FdpUAykWi2+ho9a5+07s4J6+KrjtY+a28btBa2tldvSy9HNMO9hvpuRVUyfCk12kQBEAQYMfJAKwFymRSVyUBb24dsYHizjUxssWEZbmPrgHjirSHzgoqk5HQdPWPWP7TJ+qDhTf4/bv6g6IuyRXzjnVBajifOvSTHedU6mW9UFEnbsqzH7N1o/QLOAVG/oqUhRR4Dw7Mqe1ztUaQnnlaQZBaAkiPX0Zc4OK6cNUQ3MfFZY1hrGShKH5QROXw0hGQYXKsh9x/bS2e+ZD/+Tqvt3ZGRU7P1P/ILYFyv4alAvr7H2puZQ1wZqbOesKByepo7ra1OHZUcjnvoIlApSPJJYZuGyt0tvZZTm7kHb+wClVdd7XUa9rcP2kjbgA13DFpve581qFw22uAf4L3N7dbWqFGD+Eio/RnV197YZl0tXZYVkPLFTq2G+H3iZ7Sjz4Zbe5WnW/z1WEs983eyHdmE/1JWZdboWUvvuNVpKAwPxX1L3YZKbSUmybI0MsYG2rpHBHhzNrZpmw0JNJs7ht0W+CyTY0ffuLWrjn51yJOKeoeUtlFt5Ft+5oyxGeakN0jmT1UVbOn4ebtx/x1rG9ioCFKdsNrK1mhtPSPWOzxlfSObVda0DYzMWN/grHX3zVoa21NUX1OTsN7Cb9rBmS/Yf/63CTu0Xx1QoUodIl/crAbJAGIByErsys+xndL0gaJdoR6ntdI+AclPQ8UXNzgrH+JXSFHl6ZyUn9c5C75Z+I1iAErmFImOmAeiR5OgpVzeNrJll1/ryJwR/2sO95xWAGMprTL0UuJNuL8Nx4mjqCf6r0mk3Oj+cu9aSlGban2pTnf/hMBuVOC32a69/MBevHLHmuXoGFv0SZvKcnCiXaUUR3mUtYoAOJ9bjI8/DzlIusOXEu3SfXVaqVzKFme/Zn/xwYR98O6gnb3SaJu2tqkjkyykkyKJV5dDnHclAYpsSKGjiI6qFCBXp+ezUX/u5yufk5d70ffpgZZ59yhV16F8PtHkOvqWPUofpfsoUhr49Hwr+fS6S3h5nMSDyliet5ON6No3tlWUG212oo5KgEZnFUXz3I86L85ZlsV9n1IR8bIupWF+38iUtQhsOwYm7bmrd+zFWw+sVvbj3/R7ObI3r2OZWOtalWwXX31WXpWzTM0623egxW4+X2d//t6Y/eibczYxpsgyW6Wonl2X1gLJYG+lAAl9FEgChuHtfyk9AclfhIog6RPhMii+avB9/yRcwM4/G3xMSSIXMgrIfAqSAWi48TODZEw4BzuiL2/cG47LVNooJzkZNKhe/ZkLV+3iSzftys1X7d6Dd23rzv0CoCYH2zIN3wDKx/J/AgWQ/EUoiiRpi+TgHcoyMU3AkpaW+mpb2JK1gweqbOfhShvcxLfXgNdqWimPjyXV67TWs18mCXzWvP+ZkOSILEtA0oFSBIitr875nHIAtUC+D2isj7CBiYOkdMLGye29o/b8ldv24vW79vy1e3b17pu2Zc8RS9S02jrZDRFnNG0iH3HiHP/QaCfRahVV3QLJvCWz621yOmtL+7J27GCLbZ9ps0Itu+VrGO4LyaGPArCfBSTX9r/H00JPQPLT0IpIEiVHBsN6wCgijML9tUBS9134n45+EZCEKmRoH7e7eWmjovbIQdWeusYum9i01XbtOey/lh3buNXqNbxjPo42+2eZ3sY1yvgY+mWAJBS9pVXb5CCRo0TOUpVq1tC6Qw6Utkyh2nL1CStouJ2tU1TF1zpq26ciySF0GP/j0+NAEO1RWeOgt1r2gUpHA5w7UMZgma5psfHN22y77Gd21wHrm5iznOyHNbFM5SR09K3tinLGrhh1iZiLTtAZMyrJa2ids9oGDbvrUzoXeCkS9d2y0vIRB8jIFiIqtUn8bzWt1d4nkeRnQQLJWFAoWE6FoURvXtUDuyBxNClZSufoBuBEntVCX5swkOJw6uch8RcAcq3nREW0Ido2K6LgOAAFaxr5lWym0OLzmMwxRrvtRPlC2p+Vlt9S/wLkZcFvKXEv2uatIiOHyOiaI8M4H8qtAsKPo/9fgSQk+blNR0QnxHCa1QnRnPDj5M/i59EqBkjAWgVQysayTf7yLtfQ5Z+ospt4VJ5syO0oljG25MR1lZ5VR35TTVSp+6mEdJJRxydfSEs3aV4mikc+S1Tn+HhbAlHeauJ+sBdo9fVaVFrmE/q09IWqagyiQ9Qng+qR4nFOPQxfd7hjAipStpPOufb7KJo0n0z0ttFvCX5OkkE6rfHMo0IZ5vLWWYG4ju4xtHZyUIyMzIeD0Frg8iloeYj1i9DaTua7ZaszYt6rUtEK6yl9A2NPL96V9wmVkGzD549dlispenkm2f0sJPkDnBuq1JERFcruifyi4bT8AF24nmKduUMt11kFQAoUmS9mX03nTQBJ0OCrCphOYdWFfKMynVJapgdWtekTCTv4tLZA5/qEfh76QlVlva2r3mg1rUetoeWAnLFTQwkpLiulMaxjfRdr6oi+nKLrn4X4FUL0030M4+Mp7Iwe/Wbz01AE4NESGgw6iiSLFEAyPg/b/Afj8R+D/dpI8sHh5EjuXDFARlMaOCEvBljMzA440fAOJ3W+dVy7zP8/EvaFLGULgNJjxH1epPxs5NG8v6jkWgBZCsJuayK3qbUp0qfyVKscRZOAbelL0LA0DBtYu10/D0WyeJzwvyf0s1OD/X+uS+dataPhOgAAAABJRU5ErkJggg==;" parent="1" vertex="1">
                    <mxGeometry x="498" y="200" width="329" height="67" as="geometry"/>
                </mxCell>
                <mxCell id="12" style="edgeStyle=none;html=1;exitX=1;exitY=0.5;exitDx=0;exitDy=0;fontColor=#FFFF00;" parent="1" source="10" edge="1">
                    <mxGeometry relative="1" as="geometry">
                        <mxPoint x="160" y="524" as="targetPoint"/>
                    </mxGeometry>
                </mxCell>
                <mxCell id="10" value="标记清除" style="text;strokeColor=none;align=center;fillColor=none;html=1;verticalAlign=middle;whiteSpace=wrap;rounded=0;" parent="1" vertex="1">
                    <mxGeometry y="508.5" width="60" height="30" as="geometry"/>
                </mxCell>
                <mxCell id="11" value="&lt;font style=&quot;background-color: rgb(255, 255, 0);&quot; color=&quot;#ff3333&quot;&gt;这个算法设置一个根对象，垃圾回收器会定期从这个根开始，找所有从根开始有引用到的对象，对于哪些没有引用到的对象，就认为是不可用的对象；&lt;/font&gt;" style="text;whiteSpace=wrap;html=1;fontColor=#FFFF00;" parent="1" vertex="1">
                    <mxGeometry x="160" y="498.5" width="560" height="50" as="geometry"/>
                </mxCell>
            </root>
        </mxGraphModel>
    </diagram>
</mxfile>